<svg width="24" height="25" fill="none" xmlns="http://www.w3.org/2000/svg"><g clip-path="url(#clip0_3581_16668)"><path fill-rule="evenodd" clip-rule="evenodd" d="M20.5 3.505A11.872 11.872 0 0012.082 0h-.036C5.46 0 .1 5.36.1 11.95v.002c0 2.096.552 4.156 1.6 5.972L0 24.12l6.336-1.663a11.95 11.95 0 005.708 1.457h.002C18.647 23.913 24 18.559 24 11.959c0-3.17-1.26-6.211-3.501-8.451v-.003zM12.05 21.9c-1.78 0-3.53-.482-5.06-1.39l-.363-.217-3.76.985 1-3.665-.235-.376a9.95 9.95 0 01-1.529-5.296 9.937 9.937 0 0116.975-7.014 9.945 9.945 0 012.912 7.03c0 5.49-4.451 9.943-9.942 9.943h.002zm5.45-7.446c-.3-.151-1.767-.871-2.04-.971-.271-.1-.471-.151-.674.15-.203.303-.772.972-.946 1.173-.174.2-.35.227-.645.076-.296-.151-1.263-.466-2.4-1.484a9.09 9.09 0 01-1.67-2.069c-.175-.3-.019-.46.133-.607.152-.146.3-.348.447-.523.124-.15.225-.319.3-.5a.55.55 0 00-.024-.522c-.081-.15-.681-1.62-.921-2.22-.24-.598-.49-.5-.673-.513-.184-.014-.373-.01-.57-.01a1.1 1.1 0 00-.8.374c-.27.297-1.042 1.022-1.042 2.492s1.069 2.888 1.219 3.09c.15.202 2.106 3.217 5.106 4.51.712.306 1.268.49 1.7.632a4.128 4.128 0 001.88.117c.573-.084 1.765-.721 2.016-1.418.251-.697.25-1.3.175-1.42-.075-.118-.269-.205-.57-.358H17.5z" fill="#fff"/></g><defs><clipPath id="clip0_3581_16668"><path fill="#fff" d="M0 0h24v24.119H0z"/></clipPath></defs></svg>