<svg width="307" height="134" fill="none" xmlns="http://www.w3.org/2000/svg"><path d="M54.987 76.622c7.637.83 13.286 1.398 16.946 1.706l-3.146 23.987L1.65 93.509l3.146-23.987c9.094 1.537 15.967 2.61 20.62 3.221l5.744-43.785c-3.923 6.285-10.708 9.784-20.355 10.498 1.056-10.017 1.318-19.234.787-27.652 6.891-.043 11.737-.57 14.537-1.579 2.896-1.083 5.174-2.377 6.835-3.88a236.266 236.266 0 003.495-3.027l.033-.254L64.16 6.693l-9.172 69.929zm87.145-30.655c9.645 1.265 17.548 3.678 23.708 7.24 6.255 3.489 10.691 7.728 13.307 12.72 2.711 4.916 3.701 10.167 2.968 15.75-1.664 12.692-7.316 21.332-16.954 25.92-9.543 4.515-21.718 5.801-36.524 3.859-12.438-1.631-23.123-5.142-32.055-10.53-8.837-5.463-14.721-13.42-17.653-23.875 4.742-.066 9.963-.5 15.662-1.302 5.784-.79 11.024-1.695 15.719-2.715 1.299 3.871 3.446 6.864 6.439 8.978 3.004 2.03 7.214 3.399 12.629 4.11 5.753.754 10.613.445 14.58-.929 4.052-1.362 6.294-3.692 6.727-6.992.444-3.384-.835-6.435-3.835-9.153-3-2.717-7.884-4.52-14.653-5.407-4.4-.577-8.524-.3-12.373.83-3.838 1.046-6.749 2.901-8.734 5.567l-29.317-3.845c3.174-8.448 6.182-17.607 9.026-27.476 2.928-9.857 5.072-18.656 6.431-26.395l89.093 11.685-3.229 24.622c-9.314-1.825-18.154-3.328-26.519-4.512-8.269-1.256-19.892-2.867-34.868-4.831l-2.201 6.94c6.708-1.271 14.25-1.358 22.626-.26zM273.578 82.96c5.585.732 10.232 2.374 13.942 4.927 3.721 2.467 6.37 5.569 7.945 9.304 1.661 3.746 2.213 7.735 1.658 11.965-.565 4.315-2.134 8.068-4.704 11.26-2.485 3.203-5.85 5.558-10.093 7.067-4.231 1.425-9.14 1.771-14.724 1.038-5.668-.743-10.406-2.354-14.212-4.833-3.71-2.552-6.395-5.701-8.056-9.448-1.575-3.735-2.08-7.76-1.514-12.075.333-2.539 1.03-4.9 2.091-7.085l-26.409 27.132-29.317-3.845 46.395-47.619c-5.27 3.44-11.882 4.638-19.836 3.595-5.668-.743-10.406-2.355-14.212-4.833-3.71-2.552-6.395-5.702-8.056-9.448-1.575-3.735-2.08-7.76-1.514-12.076.555-4.23 2.075-7.947 4.561-11.15 2.57-3.19 5.971-5.499 10.203-6.923 4.327-1.498 9.326-1.875 14.994-1.132 5.585.733 10.232 2.375 13.942 4.927 3.721 2.468 6.37 5.57 7.945 9.305 1.661 3.746 2.213 7.735 1.658 11.965-.443 3.384-1.483 6.39-3.118 9.015l27.286-27.92 29.19 3.828-44.318 45.568c4.991-2.616 11.082-3.453 18.273-2.51zm-54.736-24.608c1.777.233 3.478-.275 5.105-1.525 1.712-1.238 2.684-2.746 2.917-4.523.233-1.777-.328-3.4-1.685-4.868-1.272-1.458-2.796-2.304-4.573-2.537-1.946-.255-3.763.152-5.453 1.221-1.605 1.081-2.524 2.51-2.757 4.286-.244 1.862.259 3.606 1.509 5.233 1.345 1.553 2.991 2.458 4.937 2.713zM269.7 112.53c1.777.233 3.478-.275 5.105-1.525 1.712-1.238 2.684-2.746 2.917-4.523.234-1.776-.328-3.399-1.685-4.868-1.272-1.458-2.796-2.303-4.573-2.536-1.946-.256-3.763.151-5.453 1.221-1.605 1.08-2.524 2.509-2.757 4.286-.244 1.861.259 3.605 1.509 5.232 1.345 1.554 2.991 2.458 4.937 2.713z" fill="#2E097B"/><path d="M54.987 76.622l-4.957-.65-.665 5.069 5.082.552.54-4.971zm16.946 1.706l4.958.65.681-5.193-5.22-.44-.419 4.983zm-3.146 23.987l-.65 4.957 4.957.651.65-4.958-4.957-.65zM1.65 93.509l-4.957-.65-.65 4.957 4.957.65.65-4.957zm3.146-23.987l.834-4.93-5.116-.864-.675 5.144 4.957.65zm20.62 3.221l-.65 4.958 4.958.65.65-4.957-4.957-.65zm5.744-43.785l4.957.65-9.199-3.297 4.242 2.647zM10.805 39.456l-4.972-.524-.627 5.953 5.968-.442-.369-4.987zm.787-27.652l-.03-5-5.293.033.333 5.282 4.99-.315zm14.537-1.579l1.696 4.704.028-.01.028-.01-1.752-4.684zm6.835-3.88l-3.25-3.8-.054.046-.052.048 3.356 3.706zm3.495-3.027l3.341 3.72 1.376-1.236.24-1.834-4.957-.65zm.033-.254l.65-4.958-4.957-.65-.65 4.958 4.957.65zM64.16 6.693l4.958.65.65-4.957-4.957-.65-.65 4.957zm-9.712 74.9c7.644.83 13.343 1.404 17.067 1.718l.838-9.965c-3.596-.303-9.195-.866-16.825-1.695l-1.08 9.942zm12.529-3.915l-3.146 23.987 9.915 1.3 3.146-23.987-9.915-1.3zm2.461 19.68L2.3 88.55 1 98.466l67.137 8.806 1.3-9.915zm-62.83-3.199l3.147-23.987-9.915-1.3-3.146 23.987 9.915 1.3zM3.964 74.452c9.108 1.54 16.055 2.626 20.803 3.249l1.3-9.915c-4.558-.598-11.358-1.66-20.436-3.194l-1.667 9.86zm26.411-1.058l5.743-43.785-9.915-1.3-5.743 43.784 9.915 1.3zM26.918 26.31c-2.83 4.535-7.891 7.523-16.482 8.16l.739 9.972C21.877 43.65 30.386 39.64 35.4 31.606l-8.483-5.295zm-11.14 13.67c1.08-10.245 1.356-19.747.804-28.492l-9.98.63c.51 8.09.263 17.023-.77 26.813l9.946 1.048zm-4.155-23.177c6.909-.043 12.521-.548 16.202-1.875L24.433 5.52c-1.92.693-5.999 1.24-12.872 1.283l.062 10zm16.258-1.896c3.278-1.226 6.169-2.801 8.439-4.857l-6.712-7.41c-1.051.951-2.716 1.963-5.23 2.903l3.503 9.366zm8.333-4.763A239.29 239.29 0 0039.8 7.038l-6.682-7.44c-.533.479-1.653 1.449-3.404 2.947l6.5 7.6zm5.203-6.177l.033-.254-9.915-1.3-.033.254 9.915 1.3zM35.842 8.02l27.667 3.63 1.3-9.916-27.666-3.629-1.3 9.915zm23.36-1.978l-9.172 69.93 9.915 1.3 9.172-69.929-9.915-1.3zM165.84 53.208l-2.503 4.328.033.02.034.018 2.436-4.366zm13.307 12.718l-4.429 2.321.025.047.025.047 4.379-2.415zm-13.986 41.671l2.138 4.52.011-.005-2.149-4.515zm-68.58-6.671l-2.628 4.253.023.014.023.014 2.583-4.281zM78.93 77.051l-.07-5-6.5.092 1.756 6.258 4.814-1.35zm15.66-1.301l-.677-4.954-.01.001-.01.002.697 4.951zm15.719-2.715l4.74-1.591-1.425-4.245-4.376.95 1.061 4.886zm6.439 8.978l-2.885 4.084.043.03.043.03 2.799-4.144zm27.209 3.181l-1.593-4.739-.021.007-.021.008 1.635 4.724zm-24.134-20.722l1.315 4.824.047-.013.047-.014-1.409-4.797zm-8.734 5.567l-.65 4.958 2.908.381 1.752-2.353-4.01-2.986zm-29.317-3.845l-4.68-1.758-2.216 5.896 6.246.82.65-4.958zm9.026-27.476l-4.793-1.423-.006.02-.006.019 4.805 1.384zm6.431-26.395l.65-4.958-4.746-.623-.828 4.716 4.924.865zm89.093 11.685l4.958.65.65-4.957-4.958-.65-.65 4.957zm-3.229 24.622l-.961 4.906 5.226 1.024.692-5.28-4.957-.65zm-26.519-4.512l-.751 4.944.025.004.026.003.7-4.95zm-34.868-4.831l.651-4.958-4.151-.544-1.266 3.99 4.766 1.512zm-2.201 6.94l-4.766-1.511-2.532 7.984 8.23-1.56-.932-4.913zm21.976 4.698c9.217 1.21 16.433 3.477 21.855 6.612l5.006-8.657c-6.898-3.989-15.487-6.548-25.561-7.87l-1.3 9.915zm21.922 6.65c5.636 3.143 9.258 6.75 11.314 10.673l8.857-4.642c-3.175-6.058-8.424-10.93-15.3-14.764l-4.871 8.733zm11.364 10.767c2.195 3.98 2.984 8.156 2.39 12.687l9.915 1.3c.871-6.638-.32-12.963-3.548-18.816l-8.757 4.829zm2.39 12.687c-1.495 11.397-6.36 18.348-14.146 22.054l4.298 9.03c11.491-5.47 17.928-15.798 19.763-29.784l-9.915-1.3zm-14.136 22.049c-8.385 3.967-19.504 5.288-33.735 3.421l-1.301 9.915c15.382 2.018 28.612.766 39.313-4.296l-4.277-9.04zm-33.735 3.421c-11.89-1.559-21.888-4.886-30.123-9.854L94 105.207c9.63 5.81 21.002 9.503 33.987 11.206l1.301-9.915zM99.21 96.674C91.493 91.902 86.353 85.008 83.743 75.7l-9.628 2.7c3.253 11.602 9.883 20.624 19.838 26.778l5.258-8.506zM78.999 82.05c4.99-.07 10.424-.526 16.288-1.35l-1.392-9.903c-5.534.778-10.542 1.19-15.036 1.254l.14 9.999zm16.27-1.348c5.886-.805 11.256-1.73 16.102-2.783l-2.122-9.772c-4.545.987-9.654 1.87-15.335 2.647l1.354 9.908zm10.301-6.078c1.597 4.758 4.335 8.675 8.294 11.471l5.769-8.168c-2.027-1.432-3.581-3.5-4.583-6.485l-9.48 3.182zm8.38 11.53c3.891 2.628 8.949 4.16 14.777 4.924l1.301-9.915c-5.002-.657-8.363-1.865-10.481-3.296l-5.597 8.287zm14.777 4.924c6.246.819 11.941.544 16.867-1.16l-3.271-9.45c-3.008 1.04-7.034 1.385-12.295.695l-1.301 9.915zm16.824-1.146c5.249-1.765 9.336-5.322 10.091-11.082l-9.915-1.3c-.11.84-.508 1.944-3.362 2.903l3.186 9.479zm10.091-11.082c.699-5.33-1.478-9.924-5.435-13.508l-6.713 7.411c2.043 1.85 2.422 3.357 2.233 4.797l9.915 1.3zm-5.435-13.508c-4.113-3.726-10.204-5.721-17.36-6.66l-1.3 9.915c6.382.838 10.06 2.447 11.947 4.156l6.713-7.412zm-17.36-6.66c-5.016-.658-9.847-.356-14.432.99l2.818 9.595c3.113-.914 6.531-1.166 10.314-.67l1.3-9.915zm-14.337.964c-4.697 1.28-8.653 3.675-11.431 7.405l8.021 5.972c1.193-1.602 3.06-2.917 6.039-3.73l-2.629-9.647zm-6.77 5.434l-29.317-3.846-1.3 9.915 29.317 3.846 1.3-9.915zm-25.286 2.87c3.225-8.586 6.274-17.871 9.15-27.85l-9.61-2.768c-2.812 9.76-5.78 18.792-8.902 27.102l9.362 3.516zm9.138-27.81c2.967-9.989 5.162-18.979 6.563-26.954l-9.85-1.73c-1.317 7.503-3.41 16.11-6.3 25.837l9.587 2.847zm.988-22.862l89.093 11.686 1.3-9.915L97.88 7.364l-1.3 9.915zm84.786 6.078l-3.23 24.621 9.915 1.3 3.23-24.62-9.915-1.3zm2.689 20.365c-9.39-1.84-18.317-3.358-26.78-4.555l-1.4 9.901c8.268 1.17 17.02 2.658 26.258 4.467l1.922-9.813zm-26.729-4.548c-8.319-1.264-19.981-2.88-34.968-4.846l-1.301 9.915c14.964 1.963 26.548 3.569 34.767 4.818l1.502-9.887zm-40.385-1.4l-2.201 6.94 9.532 3.024 2.201-6.94-9.532-3.024zm3.497 13.365c6.079-1.153 13.074-1.26 21.044-.215l1.3-9.915c-8.782-1.152-16.871-1.086-24.207.305l1.863 9.825zM287.52 87.887l-2.834 4.12.035.023.036.024 2.763-4.167zm7.945 9.304l-4.606 1.943.017.042.018.04 4.571-2.025zm-3.046 23.225l-3.894-3.136-.028.035-.028.035 3.95 3.066zm-10.093 7.067l1.595 4.739.041-.013.04-.015-1.676-4.711zm-28.936-3.795l-2.833 4.12.052.035.053.035 2.728-4.19zm-8.056-9.448l-4.606 1.943.017.042.018.041 4.571-2.026zm.577-19.16l4.498 2.185-8.081-5.672 3.583 3.487zm-26.409 27.132l-.65 4.958 2.485.326 1.748-1.796-3.583-3.488zm-29.317-3.845l-3.581-3.489-6.965 7.149 9.896 1.298.65-4.958zm46.395-47.619l3.582 3.49-6.314-7.677 2.732 4.187zm-34.048-1.238l-2.834 4.12.053.035.053.035 2.728-4.19zm-8.056-9.448l-4.606 1.943.017.042.018.04 4.571-2.025zm3.047-23.225l-3.894-3.136-.029.035-.027.035 3.95 3.066zm10.203-6.924l1.595 4.739.02-.007.02-.007-1.635-4.725zm28.936 3.795l-2.834 4.12.035.024.036.024 2.763-4.168zm7.945 9.305l-4.606 1.943.017.041.018.041 4.571-2.025zm-1.46 20.98l-4.245-2.644 7.82 6.139-3.575-3.495zm27.286-27.92l.651-4.958-2.479-.325-1.747 1.788 3.575 3.494zm29.19 3.828l3.585 3.486 6.951-7.147-9.885-1.296-.651 4.957zM255.305 85.47l-3.584-3.487 5.905 7.915-2.321-4.428zm-31.358-28.642l-2.931-4.05-.058.041-.056.044 3.045 3.965zm1.232-9.391l-3.767 3.287.046.053.048.052 3.673-3.392zm-10.026-1.316l-2.674-4.224-.06.038-.058.039 2.792 4.148zm-1.248 9.519l-3.966 3.046.09.116.096.111 3.78-3.273zm60.9 55.366l-2.931-4.05-.058.042-.056.043 3.045 3.965zm1.232-9.391l-3.767 3.287.046.053.048.052 3.673-3.392zm-10.026-1.315l-2.674-4.225-.06.038-.058.04 2.792 4.147zm-1.248 9.518l-3.966 3.046.09.116.096.112 3.78-3.274zm8.165-21.9c4.993.655 8.842 2.083 11.758 4.09l5.668-8.24c-4.505-3.098-9.95-4.955-16.125-5.765l-1.301 9.915zm11.829 4.137c2.988 1.981 4.947 4.343 6.102 7.08l9.213-3.886c-1.996-4.733-5.334-8.575-9.789-11.529l-5.526 8.335zm6.137 7.163c1.273 2.871 1.713 5.93 1.272 9.289l9.915 1.3c.669-5.101.004-10.02-2.044-14.64l-9.143 4.05zm1.272 9.289c-.454 3.463-1.683 6.342-3.641 8.774l7.788 6.272c3.183-3.952 5.09-8.579 5.768-13.746l-9.915-1.3zm-3.697 8.844c-1.836 2.367-4.372 4.197-7.818 5.423l3.351 9.421c5.039-1.792 9.232-4.673 12.367-8.712l-7.9-6.132zm-7.738 5.395c-3.346 1.126-7.458 1.477-12.478.819l-1.301 9.915c6.148.806 11.852.466 16.969-1.257l-3.19-9.477zm-12.478.819c-5.114-.671-9.095-2.087-12.134-4.066l-5.457 8.38c4.573 2.978 10.066 4.785 16.29 5.601l1.301-9.915zm-12.029-3.995c-3.027-2.082-5.069-4.536-6.318-7.355l-9.143 4.052c2.071 4.674 5.4 8.519 9.794 11.542l5.667-8.239zm-6.283-7.272c-1.205-2.857-1.623-5.98-1.163-9.482l-9.915-1.301c-.673 5.129-.081 10.056 1.865 14.669l9.213-3.886zm-1.163-9.482c.266-2.034.817-3.874 1.631-5.55l-8.995-4.37c-1.309 2.694-2.152 5.577-2.551 8.619l9.915 1.301zm-6.45-11.222l-26.409 27.132 7.166 6.975 26.409-27.132-7.166-6.975zm-22.175 25.662l-29.317-3.845-1.301 9.915 29.317 3.845 1.301-9.915zm-26.386 4.601l46.395-47.618-7.163-6.979-46.395 47.619 7.163 6.978zm40.081-55.295c-4.022 2.625-9.35 3.756-16.453 2.825l-1.301 9.915c8.803 1.154 16.699-.11 23.219-4.365l-5.465-8.375zm-16.453 2.825c-5.114-.671-9.095-2.087-12.134-4.066l-5.457 8.38c4.573 2.978 10.066 4.784 16.29 5.6l1.301-9.914zm-12.029-3.996c-3.027-2.082-5.069-4.535-6.318-7.354l-9.143 4.052c2.071 4.674 5.4 8.519 9.793 11.541l5.668-8.239zm-6.283-7.271c-1.205-2.858-1.623-5.98-1.163-9.482l-9.915-1.3c-.673 5.127-.081 10.055 1.865 14.668l9.213-3.886zm-1.163-9.482c.445-3.398 1.64-6.27 3.553-8.734l-7.9-6.132c-3.059 3.942-4.904 8.502-5.568 13.565l9.915 1.3zm3.497-8.664c1.919-2.383 4.491-4.173 7.904-5.321l-3.19-9.478c-5.051 1.7-9.281 4.527-12.502 8.527l7.788 6.272zm7.944-5.335c3.435-1.189 7.623-1.566 12.709-.899l1.301-9.915c-6.252-.82-12.06-.443-17.281 1.364l3.271 9.45zm12.709-.899c4.993.655 8.842 2.083 11.758 4.089l5.668-8.24c-4.505-3.098-9.95-4.954-16.125-5.764l-1.301 9.915zm11.829 4.137c2.988 1.98 4.947 4.342 6.102 7.08l9.213-3.887c-1.996-4.733-5.334-8.574-9.789-11.528l-5.526 8.335zm6.137 7.163c1.273 2.87 1.713 5.93 1.272 9.289l9.915 1.3c.669-5.102.004-10.02-2.044-14.641l-9.143 4.051zm1.272 9.289c-.361 2.75-1.185 5.062-2.406 7.021l8.489 5.287c2.05-3.291 3.305-6.99 3.832-11.008l-9.915-1.3zm5.414 13.16l27.287-27.92-7.151-6.99-27.287 27.92 7.151 6.99zm23.061-26.458l29.19 3.829 1.301-9.915-29.19-3.83-1.301 9.916zm26.256-4.615l-44.318 45.567 7.168 6.972 44.319-45.567-7.169-6.972zm-38.413 53.482c3.848-2.017 8.839-2.828 15.302-1.98l1.301-9.915c-7.921-1.039-15.112-.177-21.245 3.038l4.642 8.857zM218.192 63.31c3.284.43 6.288-.587 8.801-2.518l-6.091-7.93c-.741.569-1.141.568-1.41.533l-1.3 9.915zm8.687-2.432c2.609-1.888 4.499-4.539 4.943-7.924l-9.915-1.3c-.022.168-.077.534-.891 1.122l5.863 8.102zm4.943-7.924c.45-3.43-.738-6.494-2.969-8.91l-7.347 6.784c.286.31.366.5.387.562.016.046.034.11.014.264l9.915 1.3zm-2.875-8.806c-2.004-2.296-4.605-3.802-7.69-4.206l-1.301 9.915c.469.061.916.247 1.456.866l7.535-6.575zm-7.69-4.206c-3.13-.41-6.121.272-8.778 1.954l5.348 8.45c.722-.457 1.366-.59 2.129-.49l1.301-9.914zm-8.896 2.031c-2.688 1.81-4.486 4.461-4.922 7.783l9.915 1.3c.03-.23.07-.437.592-.788l-5.585-8.295zm-4.922 7.783c-.434 3.305.525 6.358 2.5 8.929l7.931-6.092c-.524-.683-.571-1.118-.516-1.536l-9.915-1.3zm2.686 9.156c2.106 2.432 4.845 3.975 8.067 4.398l1.3-9.915c-.671-.088-1.223-.354-1.808-1.03l-7.559 6.547zm58.925 58.576c3.284.431 6.288-.587 8.801-2.517l-6.091-7.931c-.741.569-1.141.568-1.41.533l-1.3 9.915zm8.687-2.432c2.609-1.888 4.499-4.538 4.943-7.923l-9.915-1.301c-.022.169-.077.534-.891 1.123l5.863 8.101zm4.943-7.923c.45-3.43-.738-6.495-2.969-8.911l-7.347 6.784c.286.31.366.501.387.562a.52.52 0 01.014.264l9.915 1.301zm-2.875-8.806c-2.004-2.297-4.605-3.802-7.69-4.207l-1.301 9.915c.469.062.916.247 1.456.866l7.535-6.574zm-7.69-4.207c-3.13-.41-6.12.272-8.778 1.954l5.348 8.45c.722-.457 1.366-.589 2.129-.489l1.301-9.915zm-8.896 2.031c-2.688 1.81-4.486 4.461-4.922 7.783l9.915 1.301c.03-.232.07-.437.592-.789l-5.585-8.295zm-4.922 7.783c-.434 3.305.525 6.358 2.5 8.929l7.931-6.091c-.524-.683-.571-1.119-.516-1.537l-9.915-1.301zm2.686 9.157c2.106 2.431 4.845 3.974 8.067 4.397l1.3-9.915c-.671-.088-1.223-.354-1.808-1.029l-7.559 6.547z" fill="#fff"/></svg>