<svg width="40" height="40" fill="none" xmlns="http://www.w3.org/2000/svg"><path d="M20 0C8.963 0 0 8.963 0 20s8.963 20 20 20 20-8.963 20-20S31.037 0 20 0zm0 35.111C11.63 35.111 4.815 28.37 4.815 20A15.21 15.21 0 0120 4.815 15.21 15.21 0 0135.185 20C35.111 28.37 28.37 35.111 20 35.111z" fill="#F2F5F9"/><path d="M17.556 22.889c1.407 1.259 3.48 1.259 4.815 0v-5.778c-1.407-1.259-3.482-1.259-4.815 0v5.778zM20 9.704c-2.741 0-5.333 1.111-7.26 3.037l3.408 3.407a5.413 5.413 0 017.704 0l3.407-3.407c-1.926-1.926-4.518-3.037-7.26-3.037z" fill="#fff"/><path d="M23.852 23.852a5.409 5.409 0 01-7.704 0l-3.407 3.407c4 4 10.519 4 14.519 0l-3.407-3.407h-.001zM19.996 40c.148-2.37-1.259-4.519-3.556-5.259-5.926-1.482-10.37-6.296-11.333-12.296h10.074c-.815-1.556-.815-3.333 0-4.815H5.107a15.126 15.126 0 0117.26-12.593 14.83 14.83 0 015.481 2c2.074 1.259 4.815.741 6.296-1.185-7.778-7.778-20.444-7.778-28.296 0s-7.852 20.444 0 28.296C9.626 37.852 14.663 40 19.996 40z" fill="#fff"/></svg>