<svg width="79" height="57" fill="none" xmlns="http://www.w3.org/2000/svg"><g clip-path="url(#clip0_301_2)"><path d="M27.577.578c2.871.164 5.23 1.272 7.075 3.322a18.226 18.226 0 014 6.891c.82 2.584 1.23 5.23 1.23 7.936 0 2.708-.41 5.353-1.23 7.937-.78 2.584-2.113 4.901-4 6.952-1.845 2.01-4.204 3.097-7.075 3.261H4.937c-1.108-.041-2.051-.43-2.83-1.169-.739-.78-1.128-1.723-1.17-2.83V17.62c.042-1.148.472-2.092 1.292-2.83.82-.78 1.805-1.169 2.954-1.169a4.08 4.08 0 012.83 1.23c.779.739 1.19 1.662 1.23 2.77v9.35c0 1.108.574 1.662 1.723 1.662h14.52c1.558-.082 2.85-.677 3.875-1.784a10.004 10.004 0 002.215-3.753c.492-1.436.739-2.892.739-4.369a12.85 12.85 0 00-.739-4.306 9.932 9.932 0 00-2.215-3.815c-1.025-1.107-2.317-1.702-3.876-1.784H4.937c-2.461-.205-3.794-1.538-4-3.999 0-1.148.37-2.133 1.108-2.953.78-.82 1.743-1.25 2.892-1.292h22.64zm20.61 36.777c-.677 0-1.244-.236-1.701-.71-.44-.474-.66-1.067-.66-1.778 0-.71.22-1.303.66-1.777.457-.474 1.024-.711 1.7-.711.678 0 1.245.237 1.702.71.457.475.686 1.067.686 1.778 0 .711-.229 1.304-.686 1.778-.457.473-1.024.71-1.701.71zm7.957-11.732c.44.016.814.18 1.123.488.31.293.472.66.489 1.099v8.447c-.098.977-.635 1.506-1.612 1.587-.456 0-.854-.146-1.196-.44a1.52 1.52 0 01-.488-1.147V27.21c.016-.456.187-.83.512-1.123.326-.31.716-.464 1.172-.464zm-2.05-3.174c0-.456.195-.846.585-1.172.391-.325.863-.488 1.416-.488.554 0 1.026.163 1.416.488.391.326.586.716.586 1.172 0 .472-.195.871-.586 1.196-.39.326-.862.489-1.416.489-.553 0-1.025-.163-1.416-.489-.39-.325-.586-.724-.586-1.196zm12.438-.293c.456 0 .846.155 1.172.464.325.293.496.667.513 1.123v2.124h8.3c.456 0 .847.155 1.172.464.31.326.464.716.464 1.172a1.6 1.6 0 01-.488 1.172c-.31.309-.692.464-1.148.464h-8.3v.488a9.6 9.6 0 00.122 1.855c.114.554.374 1.05.78 1.49.408.44.92.675 1.539.708h5.957c.456.016.83.187 1.123.512a1.62 1.62 0 01-.024 2.295c-.293.293-.66.448-1.099.464h-6.787c-1.14-.065-2.084-.447-2.832-1.147a6.22 6.22 0 01-1.587-2.613 11.86 11.86 0 01-.488-3.271v-.781h-2.808a1.52 1.52 0 01-1.148-.489 1.52 1.52 0 01-.488-1.147c0-.456.155-.838.464-1.148a1.598 1.598 0 011.172-.488h2.808v-2.124c.016-.44.179-.805.488-1.098a1.62 1.62 0 011.123-.489zM75 41H4c-1.657 0-3 1.433-3 3.2v9.6C1 55.567 2.343 57 4 57h71c1.657 0 3-1.433 3-3.2v-9.6c0-1.767-1.343-3.2-3-3.2z" fill="#fff"/><path d="M6.286 51.975c-.745-.026-1.307-.2-1.688-.52a2.982 2.982 0 01-.826-1.105 3.3 3.3 0 01-.253-1.257c0-.44.08-.864.24-1.27.17-.415.445-.783.826-1.104.39-.33.88-.5 1.473-.508h4.824a.79.79 0 01.597.254c.169.16.253.36.253.596 0 .237-.084.44-.253.61a.81.81 0 01-.597.241H6.007a.54.54 0 00-.42.203 1.23 1.23 0 00-.266.457 1.793 1.793 0 000 1.041c.06.17.148.322.267.457a.6.6 0 00.419.203h4.875a.79.79 0 01.597.254c.169.161.253.36.253.597a.79.79 0 01-.253.597.79.79 0 01-.597.254H6.286zm9.797 0c-.744-.026-1.307-.2-1.688-.52a2.982 2.982 0 01-.825-1.105 3.3 3.3 0 01-.254-1.257c0-.44.08-.864.241-1.27a2.85 2.85 0 01.825-1.104c.39-.33.88-.5 1.473-.508h4.113c.593.008 1.08.178 1.46.508.39.321.665.69.825 1.104a3.269 3.269 0 010 2.527 2.977 2.977 0 01-.825 1.104c-.38.322-.944.495-1.688.52h-3.657zm-.279-4.063a.54.54 0 00-.419.203 1.23 1.23 0 00-.267.457 1.793 1.793 0 000 1.041c.06.17.149.322.267.457a.6.6 0 00.42.203h4.214a.6.6 0 00.419-.203 1.22 1.22 0 00.254-.457c.059-.178.089-.355.089-.533 0-.17-.03-.338-.09-.508a1.103 1.103 0 00-.253-.457.54.54 0 00-.42-.203h-4.214zM27.05 46.02c.296 0 .584.051.863.153.288.101.563.25.825.444.042.043.089.085.14.127.042-.042.088-.084.14-.127a3.18 3.18 0 01.812-.444 2.507 2.507 0 011.727 0c.287.101.558.254.812.457.262.194.49.457.685.787.204.33.305.724.305 1.18v2.705c-.05.508-.33.783-.838.825a.926.926 0 01-.622-.229.79.79 0 01-.254-.596v-2.603c0-.203-.038-.372-.114-.508a1.061 1.061 0 00-.254-.33.822.822 0 00-.292-.177.787.787 0 00-.305-.064.788.788 0 00-.304.064.857.857 0 00-.28.177 1.061 1.061 0 00-.253.33 1.122 1.122 0 00-.127.508v2.603c-.051.508-.33.783-.838.825a.926.926 0 01-.622-.229.79.79 0 01-.254-.596v-2.603c0-.203-.038-.372-.115-.508a1.06 1.06 0 00-.253-.33.822.822 0 00-.293-.177.787.787 0 00-.304-.064.787.787 0 00-.305.064.857.857 0 00-.28.177 1.06 1.06 0 00-.253.33 1.122 1.122 0 00-.127.508v2.603c-.042.508-.317.783-.825.825a.926.926 0 01-.622-.229.79.79 0 01-.254-.596v-2.704c.017-.457.123-.85.317-1.181.195-.33.423-.593.686-.787.262-.203.533-.356.812-.457.288-.102.576-.153.864-.153zm9.987 7.06c-.05.507-.33.782-.838.824a.898.898 0 01-.622-.24.75.75 0 01-.254-.585v-6.043a.792.792 0 01.267-.584.854.854 0 01.61-.241h5.331c.745.025 1.308.203 1.689.533.38.322.656.69.825 1.105.17.406.254.82.254 1.244 0 .44-.085.867-.254 1.282-.16.406-.436.774-.825 1.105-.381.321-.868.486-1.46.495h-3.2a.79.79 0 01-.596-.254.79.79 0 01-.254-.597.81.81 0 01.241-.597.831.831 0 01.61-.254h3.25c.16 0 .3-.063.419-.19a1.22 1.22 0 00.254-.457 1.565 1.565 0 000-1.041 1.102 1.102 0 00-.254-.457.584.584 0 00-.42-.216h-4.443c-.22.009-.33.119-.33.33v4.837zm16.297-1.778v-3.06c0-.211-.11-.321-.33-.33H48.56c-.16.009-.3.08-.419.216-.118.127-.207.28-.267.457a1.8 1.8 0 000 1.041c.06.17.149.322.267.457.119.127.258.19.419.19h3.25a.79.79 0 01.597.254c.169.161.254.36.254.597a.79.79 0 01-.254.597.79.79 0 01-.597.254h-3.2c-.592-.009-1.083-.174-1.472-.495a2.984 2.984 0 01-.825-1.105 3.517 3.517 0 01-.241-1.282c0-.423.084-.838.254-1.244a2.85 2.85 0 01.825-1.105c.38-.33.943-.508 1.688-.533h5.332c.237 0 .44.08.61.241a.79.79 0 01.266.584v4.266a.773.773 0 01-.266.596.88.88 0 01-.61.229c-.508-.042-.787-.317-.838-.825zm7.792-5.282a5.527 5.527 0 012.526.61c.39.194.732.457 1.029.787.304.33.47.724.495 1.18v2.705c-.051.509-.33.784-.838.826a.926.926 0 01-.622-.229.79.79 0 01-.254-.596V48.99a.92.92 0 00-.305-.647 2.01 2.01 0 00-.61-.42 3.442 3.442 0 00-1.422-.305c-.245.001-.49.026-.736.077a3.54 3.54 0 00-.698.229 2.24 2.24 0 00-.61.419.943.943 0 00-.291.647v2.311c-.042.508-.318.783-.825.825a.926.926 0 01-.622-.229.79.79 0 01-.254-.596v-2.703c.025-.457.186-.85.482-1.181a3.44 3.44 0 011.028-.787c.39-.203.796-.356 1.22-.457a5.688 5.688 0 011.307-.153zm6.903.039c.236 0 .44.08.609.24a.79.79 0 01.266.585v1.282c-.008.347.013.669.064.965a1.6 1.6 0 00.406.774c.212.229.478.352.8.368h3.39V46.91a.75.75 0 01.254-.584.898.898 0 01.622-.241c.507.042.787.317.838.825v4.139a6.45 6.45 0 01-.28 1.917 3.068 3.068 0 01-.838 1.345c-.38.373-.867.576-1.46.61h-4.392a.842.842 0 01-.584-.254.82.82 0 01-.241-.571.88.88 0 01.228-.61.832.832 0 01.597-.266h3.96a1.13 1.13 0 00.8-.368c.212-.229.348-.495.407-.8a.239.239 0 00.013-.076H69.74c-.592-.034-1.083-.233-1.472-.597a3.236 3.236 0 01-.826-1.358 6.167 6.167 0 01-.253-1.702v-1.434a.798.798 0 01.254-.572.842.842 0 01.584-.253z" fill="#000"/></g><defs><clipPath id="clip0_301_2"><path fill="#fff" d="M0 0h79v57H0z"/></clipPath></defs></svg>