<svg width="26" height="26" fill="none" xmlns="http://www.w3.org/2000/svg"><path d="M18.126 1.19h-1.5l1.56 1.692v.806h-3.213v-.944h1.56l-1.56-1.692V.245h3.153v.944zm-3.79 0h-1.5l1.56 1.692v.806h-3.213v-.944h1.56l-1.56-1.692V.245h3.153v.944zm-3.752.038H8.965v1.477h1.619v.983h-2.77V.245h2.77v.983z" fill="#fff"/><path d="M5.61 23.706L3.963 5.26h18.072L20.39 23.703l-7.401 2.052-7.38-2.05z" fill="#1572B6"/><path d="M13 24.186l5.98-1.657 1.407-15.761H13v17.418z" fill="#33A9DC"/><path d="M13 13.451h2.994l.207-2.317H13V8.872h5.673l-.054.607-.556 6.234H13v-2.262z" fill="#fff"/><path d="M13.014 19.327l-.01.002-2.52-.68-.161-1.804h-2.27l.316 3.552 4.634 1.286.011-.003v-2.353z" fill="#EBEBEB"/><path d="M15.802 15.617l-.273 3.03-2.523.681v2.354l4.638-1.285.034-.382.394-4.398h-2.27z" fill="#fff"/><path d="M13.008 8.872v2.262H7.543l-.045-.508-.103-1.147-.055-.607h5.668zM13 13.452v2.262h-2.488l-.045-.509-.103-1.147-.055-.607H13z" fill="#EBEBEB"/></svg>