<svg width="26" height="26" fill="none" xmlns="http://www.w3.org/2000/svg"><g clip-path="url(#clip0_21_513)"><path d="M4.604 0h16.792C23.942 0 26 2.111 26 4.722v16.556C26 23.888 23.942 26 21.396 26H4.604C2.058 26 0 23.889 0 21.278V4.722C0 2.112 2.058 0 4.604 0z" fill="#470137"/><path d="M13.672 6.833l-3.25 5.5 3.466 5.834a.196.196 0 01.022.133c-.01.044-.054.011-.119.022h-2.48c-.174 0-.293-.01-.37-.122-.227-.467-.465-.922-.693-1.389a45.156 45.156 0 00-.736-1.4c-.26-.478-.52-.955-.78-1.444H8.71c-.227.477-.476.955-.726 1.433-.249.478-.498.955-.736 1.422-.25.467-.499.945-.748 1.4-.043.111-.13.122-.249.122H3.868c-.044 0-.076.023-.076-.033a.158.158 0 01.022-.122l3.369-5.667-3.283-5.7c-.032-.044-.043-.089-.021-.11.021-.034.065-.045.108-.045h2.459c.054 0 .108.01.152.022a.31.31 0 01.108.1c.206.478.444.955.693 1.433.26.478.51.945.78 1.411.26.467.499.934.726 1.411h.022c.227-.489.466-.966.704-1.433.238-.467.487-.933.737-1.4.249-.467.487-.944.726-1.4.01-.044.032-.089.065-.111a.202.202 0 01.14-.022h2.286a.1.1 0 01.12.078c.01.01-.011.055-.033.077zm5.005 11.722a5.27 5.27 0 01-2.33-.5 3.811 3.811 0 01-1.635-1.51c-.4-.678-.596-1.523-.596-2.534a4.655 4.655 0 01.596-2.344 4.553 4.553 0 011.723-1.723c.758-.433 1.668-.644 2.74-.644.055 0 .13 0 .228.011.097.011.206.011.336.022v-3.51c0-.079.032-.123.108-.123h2.2c.053-.011.097.033.107.078v10.6c0 .2.011.422.022.666.022.234.033.456.044.645 0 .078-.033.144-.109.178a8.113 8.113 0 01-1.766.533c-.552.1-1.105.155-1.668.155zm1.062-2.222v-4.889c-.098-.022-.195-.044-.293-.055a3.826 3.826 0 00-.357-.022c-.423 0-.845.088-1.224.288a2.449 2.449 0 00-.921.823c-.239.355-.358.833-.358 1.41-.01.39.054.779.184 1.145.109.3.271.567.488.79.206.2.455.355.736.444.293.1.596.144.9.144.162 0 .314-.011.455-.022a.92.92 0 00.39-.056z" fill="#FF61F6"/></g><defs><clipPath id="clip0_21_513"><path fill="#fff" d="M0 0h26v26H0z"/></clipPath></defs></svg>