<svg width="29" height="20" fill="none" xmlns="http://www.w3.org/2000/svg"><g clip-path="url(#clip0_21_488)"><path d="M25.962 11.477a6.404 6.404 0 00-2.628.563c-.272-.495-.543-.927-.589-1.25-.05-.375-.113-.605-.05-1.053.062-.447.345-1.083.345-1.135-.006-.047-.063-.276-.646-.281-.583-.005-1.087.104-1.144.245-.057.14-.17.463-.244.796-.102.49-1.166 2.224-1.773 3.136-.198-.354-.368-.667-.402-.917-.05-.375-.113-.604-.05-1.052.062-.448.345-1.083.345-1.135-.006-.047-.062-.276-.646-.282-.583-.005-1.087.105-1.144.245-.057.14-.119.474-.243.797-.12.323-1.536 3.219-1.904 3.974-.187.386-.35.693-.47.901-.119.209-.005.016-.017.037l-.158.276v.005c-.08.13-.165.255-.204.255-.029 0-.085-.349.011-.828.21-1.005.72-2.573.714-2.63 0-.026.096-.302-.329-.443-.413-.14-.56.094-.595.094-.034 0-.062.083-.062.083s.459-1.765-.878-1.765c-.838 0-1.994.838-2.566 1.604-.362.182-1.132.567-1.948.979-.311.156-.634.323-.94.474l-.063-.063c-1.62-1.588-4.616-2.713-4.491-4.849.045-.776.34-2.823 5.755-5.302 4.434-2.031 7.986-1.474 8.603-.234.878 1.77-1.897 5.062-6.508 5.536-1.756.183-2.679-.442-2.911-.677-.244-.245-.278-.255-.368-.208-.147.073-.057.292 0 .422.136.328.702.911 1.665 1.203.844.255 2.906.396 5.398-.49 2.792-.994 4.973-3.755 4.333-6.062-.651-2.35-4.888-3.12-8.893-1.813-2.384.782-4.967 2-6.825 3.6C1.233 6.127.882 7.783 1.03 8.471c.516 2.453 4.192 4.052 5.664 5.234l-.204.104c-.736.334-3.54 1.683-4.242 3.11-.793 1.614.125 2.776.736 2.932 1.892.484 3.83-.385 4.877-1.818 1.042-1.432.918-3.291.436-4.14l-.017-.031.578-.313c.374-.203.742-.39 1.065-.552-.181.453-.312.99-.38 1.77-.079.917.329 2.105.867 2.574.238.203.521.208.697.208.623 0 .906-.474 1.217-1.042.386-.692.725-1.494.725-1.494s-.425 2.171.737 2.171c.425 0 .85-.505 1.042-.765v.005l.034-.052a2.1 2.1 0 00.068-.1v-.01c.17-.27.55-.89 1.116-1.916.73-1.323 1.433-2.98 1.433-2.98s.068.407.277 1.074c.125.395.397.828.606 1.25-.17.218-.272.343-.272.343l.006.006c-.136.166-.289.343-.447.52-.578.636-1.27 1.36-1.36 1.568-.107.245-.085.427.125.573.153.104.425.125.713.104a3.41 3.41 0 001.065-.224c.284-.093.606-.234.918-.442.566-.386.912-.933.878-1.662-.017-.401-.159-.797-.334-1.172.05-.067.102-.135.153-.208.895-1.203 1.585-2.526 1.585-2.526s.069.406.278 1.073c.108.338.323.708.515 1.073-.838.63-1.365 1.359-1.546 1.838-.334.886-.073 1.287.42 1.38.22.042.537-.052.775-.145a3.64 3.64 0 00.98-.464c.567-.385 1.11-.922 1.082-1.646a2.946 2.946 0 00-.244-.974c.714-.27 1.637-.427 2.81-.297 2.52.271 3.019 1.72 2.923 2.323-.097.604-.623.938-.8 1.042-.175.099-.231.135-.214.208.022.11.102.104.255.084.21-.032 1.325-.495 1.37-1.61.068-1.432-1.41-2.995-4.033-2.979zM6.523 17.503c-.832.839-2.005 1.156-2.503.886-.538-.287-.329-1.521.697-2.412.623-.542 1.433-1.042 1.965-1.349.119-.068.3-.167.515-.286a.603.603 0 01.057-.032c.04-.02.085-.046.13-.072.38 1.27.017 2.385-.86 3.265zm6.09-3.807c-.29.65-.901 2.323-1.27 2.229-.317-.078-.51-1.344-.062-2.594.227-.63.708-1.38.991-1.672.46-.468.958-.625 1.082-.432.148.25-.56 2.063-.742 2.469zm5.023 2.208c-.124.057-.238.1-.289.068-.04-.021.051-.1.051-.1s.63-.619.878-.905c.142-.167.312-.36.493-.579v.063c0 .75-.782 1.25-1.133 1.453zm3.875-.812c-.091-.063-.08-.256.226-.86.119-.24.39-.64.861-1.02a1.2 1.2 0 01.085.447c-.006.938-.73 1.287-1.172 1.433z" fill="#CF649A"/></g><defs><clipPath id="clip0_21_488"><path fill="#fff" d="M0 0h29v20H0z"/></clipPath></defs></svg>