<svg width="26" height="26" fill="none" xmlns="http://www.w3.org/2000/svg"><path d="M5.542 23.765L3.887 5.19h18.197l-1.658 18.57-7.452 2.067-7.432-2.063z" fill="#E44D26"/><path d="M12.985 24.25l6.022-1.67 1.416-15.87h-7.438v17.54z" fill="#F16529"/><path d="M12.986 13.599H9.972l-.209-2.335h3.223V8.988H7.272l.057.61.56 6.28h5.096V13.6zm0 5.916l-.01.003-2.536-.685-.163-1.818H7.988l.32 3.576 4.666 1.296.011-.003v-2.369z" fill="#EBEBEB"/><path d="M5.58.143h1.158v1.144h1.059V.143h1.158v3.464H7.797v-1.16h-1.06v1.16H5.58V.143zm4.897 1.149h-1.02V.142h3.197v1.15h-1.02v2.315h-1.157V1.292zM13.161.143h1.208l.742 1.217.742-1.217h1.207v3.464h-1.153V1.89l-.796 1.231h-.02l-.797-1.231v1.717H13.16V.143zm4.476 0h1.158v2.319h1.628v1.145h-2.786V.143zm-4.66 13.456v2.277h2.805l-.262 2.954-2.543.688v2.369l4.672-1.296.034-.382.534-6 .057-.61h-5.297zm0-4.612v2.277h5.502l.046-.51.106-1.156.054-.61h-5.708z" fill="#fff"/></svg>