<svg width="24" height="24" fill="none" xmlns="http://www.w3.org/2000/svg"><g clip-path="url(#clip0_21_571)"><path d="M0 0h24v24H0V0z" fill="#F0DB4F"/><path d="M22.036 18.276c-.176-1.095-.89-2.014-3.005-2.872-.734-.338-1.553-.58-1.797-1.136-.087-.324-.099-.507-.044-.703.158-.636.917-.835 1.52-.652.387.13.755.428.976.905 1.036-.67 1.034-.666 1.757-1.127-.265-.41-.406-.6-.58-.775-.623-.696-1.471-1.054-2.829-1.027-.235.03-.472.062-.707.091-.677.171-1.323.527-1.702 1.004-1.136 1.29-.812 3.545.57 4.474 1.363 1.022 3.363 1.255 3.619 2.21.248 1.17-.86 1.55-1.962 1.415-.812-.169-1.264-.582-1.752-1.332l-1.823 1.051c.219.48.45.696.817 1.111 1.738 1.764 6.089 1.677 6.869-.992.032-.091.242-.703.073-1.645zm-8.989-7.245h-2.245c0 1.939-.009 3.864-.009 5.803 0 1.235.064 2.366-.137 2.713-.328.682-1.18.598-1.567.465-.395-.194-.595-.47-.828-.86-.064-.112-.112-.198-.128-.205l-1.825 1.118c.304.622.75 1.163 1.323 1.514.856.514 2.006.671 3.208.395.782-.228 1.458-.7 1.811-1.419.511-.942.402-2.083.397-3.344.012-2.058 0-4.116 0-6.18z" fill="#323330"/></g><defs><clipPath id="clip0_21_571"><path fill="#fff" d="M0 0h24v24H0z"/></clipPath></defs></svg>