<svg width="26" height="26" fill="none" xmlns="http://www.w3.org/2000/svg"><g clip-path="url(#clip0_21_574)" fill-rule="evenodd" clip-rule="evenodd"><path d="M.195 13C.195 5.82 5.928 0 13 0s12.806 5.82 12.806 13S20.072 26 13 26C5.928 26 .195 20.18.195 13z" fill="#0868AC"/><path d="M11.602 7.7c-.544.939-.612 2.095-.298 3.125.3.993.93 1.87 1.727 2.51l.051.041a5.842 5.842 0 00.338.245c.018.011.034.024.051.035.056.036.113.071.17.105l.033.02.14.08.064.034c.037.019.073.039.11.057.073.037.146.072.221.105l.049.02a5.58 5.58 0 00.423.162l.072.024c.08.026.159.05.24.07 1.817.482 3.521-.135 4.4-1.427 0 0-.975 3.32-5.202 2.606-.083-.014-.16-.046-.239-.07l-.075-.025a5.865 5.865 0 01-.165-.059l-.076-.028a5.558 5.558 0 01-.18-.075l-.049-.02a5.374 5.374 0 01-.219-.104l-.12-.063c-.019-.01-.037-.018-.054-.029-.05-.027-.1-.056-.15-.085l-.025-.014a4.564 4.564 0 01-.17-.107l-.049-.033-.105-.07a5.87 5.87 0 01-.236-.176l-.05-.04a5.575 5.575 0 01-.416-.371l-.048-.05a5.011 5.011 0 01-.184-.194c-.163-.144-.299-.357-.421-.536a5.339 5.339 0 01-.362-.617c-.639-1.271-.684-2.88.135-4.082m-2.63.255c-.997 1.966-.55 4.36.698 6.095a8.325 8.325 0 00.302.394l.043.053a6.803 6.803 0 00.339.379l.052.053a5.85 5.85 0 00.186.185 8.612 8.612 0 00.383.342l.063.052a8.383 8.383 0 00.37.283l.053.038c.055.039.11.076.167.113a8.9 8.9 0 00.297.19l.06.034c.06.035.12.07.18.103l.1.053.15.078.056.027c.064.032.129.062.194.093l.046.02c.076.034.152.066.23.098l.06.023a7.339 7.339 0 00.487.173l.062.02c.083.025.166.052.251.071 2.247.522 4.618.053 5.953-1.722 0 0-1.59 4.375-7.065 3.357-.087-.017-.17-.047-.253-.073l-.059-.018a7.366 7.366 0 01-.49-.174l-.057-.023a7.313 7.313 0 01-.233-.098l-.042-.02a7.887 7.887 0 01-.199-.094L10.636 19c-.072-.036-.113-.058-.155-.08l-.097-.052a8.145 8.145 0 01-.176-.1l-.064-.037a8.473 8.473 0 01-.234-.147l-.065-.044-.15-.1-.07-.052a7.878 7.878 0 01-.155-.113l-.073-.057a7.888 7.888 0 01-.137-.109l-.068-.056a9.269 9.269 0 01-.165-.141l-.031-.028a6.643 6.643 0 01-.184-.17l-.054-.053a8.001 8.001 0 01-.568-.619 9.545 9.545 0 01-.29-.38 6.96 6.96 0 01-.166-.242c-.015-.02-.028-.042-.042-.064a6.433 6.433 0 01-.096-.153l-.047-.079a7.083 7.083 0 01-.082-.145c-.016-.027-.03-.054-.045-.082l-.026-.045-.04-.08c-.021-.042-.043-.083-.063-.125-.865-1.764-1.006-3.924.126-5.584m6.831-2.951c-.668 1.23-.032 2.741.992 3.533a3.381 3.381 0 001.18.585c1.144.284 2.076.088 2.63-.726-.168.247-.8 1.929-3.135 1.469-.051-.01-.1-.028-.15-.044l-.047-.015-.105-.037a3.375 3.375 0 01-1.921-1.832c-.335-.8-.288-1.7.195-2.425" fill="#fff"/><path d="M25.805 13c0 7.18-5.733 13-12.805 13-2.623 0-5.061-.8-7.092-2.174L20.581 2.522A13.045 13.045 0 0125.805 13z" fill="#000" fill-opacity=".08"/></g><defs><clipPath id="clip0_21_574"><path fill="#fff" d="M0 0h26v26H0z"/></clipPath></defs></svg>