<svg width="26" height="26" fill="none" xmlns="http://www.w3.org/2000/svg"><g clip-path="url(#clip0_21_501)"><path d="M4.604 0h16.792C23.942 0 26 2.111 26 4.722v16.556C26 23.888 23.942 26 21.396 26H4.604C2.058 26 0 23.889 0 21.278V4.722C0 2.112 2.058 0 4.604 0z" fill="#001E36"/><path d="M5.85 18.233V6.8c0-.078.033-.122.108-.122.185 0 .358 0 .607-.011.26-.011.53-.011.823-.023.293-.01.607-.01.943-.022.336-.01.66-.01.986-.01.888 0 1.625.11 2.231.344.542.188 1.04.5 1.452.91.347.356.618.79.79 1.267.163.467.25.945.25 1.445 0 .955-.217 1.744-.65 2.366a3.723 3.723 0 01-1.744 1.356c-.737.278-1.55.378-2.438.378-.26 0-.433 0-.541-.011-.109-.011-.26-.011-.466-.011v3.566a.138.138 0 01-.12.156H5.98c-.087 0-.13-.045-.13-.145zm2.362-9.41v3.732c.151.012.292.023.422.023h.574c.423 0 .845-.067 1.246-.2.347-.1.65-.311.889-.59.227-.277.335-.655.335-1.144a1.865 1.865 0 00-.249-.988 1.58 1.58 0 00-.758-.634A3.108 3.108 0 009.393 8.8c-.282 0-.531 0-.737.011a2.44 2.44 0 00-.444.011zM20.8 11.878a3.772 3.772 0 00-1.04-.378 5.575 5.575 0 00-1.213-.144 2.129 2.129 0 00-.65.077.555.555 0 00-.336.223.6.6 0 00-.087.3c0 .1.043.2.108.289.098.122.228.222.369.3.249.133.509.255.769.366.585.2 1.148.478 1.668.811.358.234.65.545.856.923.174.355.26.744.25 1.144a2.649 2.649 0 01-.423 1.478 2.728 2.728 0 01-1.213.989c-.531.233-1.181.355-1.961.355-.499 0-.986-.044-1.474-.144a4.291 4.291 0 01-1.105-.356c-.075-.044-.13-.122-.119-.211v-1.933c0-.034.011-.078.043-.1.033-.023.065-.011.098.01a4.57 4.57 0 001.343.545c.412.111.845.167 1.279.167.411 0 .704-.056.899-.156a.517.517 0 00.292-.466c0-.156-.086-.3-.26-.445-.173-.144-.53-.31-1.061-.522a6.565 6.565 0 01-1.539-.8 2.853 2.853 0 01-.823-.944 2.435 2.435 0 01-.25-1.134c0-.477.13-.933.37-1.344.27-.445.67-.8 1.137-1.022.509-.267 1.148-.39 1.917-.39.444 0 .9.034 1.344.1.325.045.639.134.931.256.043.011.087.056.108.1.011.045.022.09.022.134v1.81a.138.138 0 01-.054.112c-.098.022-.152.022-.195 0z" fill="#31A8FF"/></g><defs><clipPath id="clip0_21_501"><path fill="#fff" d="M0 0h26v26H0z"/></clipPath></defs></svg>