<svg width="21" height="28" fill="none" xmlns="http://www.w3.org/2000/svg"><path d="M5 27c2.76 0 5-2.016 5-4.5V18H5c-2.76 0-5 2.016-5 4.5S2.24 27 5 27z" fill="#0ACF83"/><path d="M0 13.5C0 11.016 2.24 9 5 9h5v9H5c-2.76 0-5-2.016-5-4.5z" fill="#A259FF"/><path d="M0 4.5C0 2.016 2.24 0 5 0h5v9H5C2.24 9 0 6.984 0 4.5z" fill="#F24E1E"/><path d="M10 0h5c2.76 0 5 2.016 5 4.5S17.76 9 15 9h-5V0z" fill="#FF7262"/><path d="M20 13.5c0 2.484-2.24 4.5-5 4.5s-5-2.016-5-4.5S12.24 9 15 9s5 2.016 5 4.5z" fill="#1ABCFE"/></svg>