<svg width="26" height="26" fill="none" xmlns="http://www.w3.org/2000/svg"><path d="M10.396.205C6.941.995 4.11 2.96 2.162 5.935-1.246 11.18-.567 18.212 3.783 22.7c1.302 1.348 3.283 2.65 4.778 3.15.555.186.623.186.872.011.272-.186.283-.232.283-1.569V22.92l-.996.058c-1.167.059-2.073-.15-2.616-.627-.193-.163-.567-.721-.827-1.233-.43-.86-.747-1.255-1.63-2.057-.295-.267-.306-.279-.103-.43.487-.372 1.473-.012 2.095.756 1.087 1.36 1.506 1.72 2.13 1.86.554.116 1.064.07 1.834-.163.102-.035.238-.28.306-.558.068-.268.249-.674.396-.895l.272-.407-.918-.186c-1.925-.407-3.114-1.116-3.895-2.325-.725-1.116-.963-2.081-.974-3.883 0-1.697.181-2.394.895-3.348.317-.418.35-.546.26-.79-.17-.419-.124-2.186.057-2.72.147-.395.226-.465.532-.5.51-.058 1.46.279 2.423.837l.827.488.725-.174c1.03-.244 4.122-.233 5.05 0l.702.186.657-.407c.872-.535 1.982-.953 2.537-.953.441 0 .441.011.623.604.192.686.226 1.93.056 2.523-.09.348-.068.453.181.79 1.235 1.674 1.37 4.452.329 6.73-.702 1.5-2.186 2.547-4.179 2.93l-.951.186.351.64.362.65.034 2.593.046 2.592.283.186c.26.174.317.174.86-.023.906-.314 2.458-1.174 3.307-1.837 5.05-3.883 6.681-10.846 3.884-16.635C23 3.971 19.896 1.356 16.341.38c-1.552-.418-4.473-.511-5.946-.174z" fill="#fff"/></svg>