<svg width="32" height="23" fill="none" xmlns="http://www.w3.org/2000/svg"><path d="M10.645 17.287c-.15-.98-.562-1.774-1.564-2.158-.391-.15-.73-.424-1.117-.597-.439-.197-.885-.384-1.348-.506-.35-.094-.677.064-.885.371-.197.289-.055.56.11.803.186.272.392.53.6.785.345.424.711.831 1.047 1.26.32.411.594.867.547 1.41-.103 1.193-.643 2.181-1.513 2.985a.577.577 0 01-.388.137c-.555-.06-1.06-.27-1.466-.658-.467-.444-.396-.967.163-1.292.133-.077.272-.148.394-.242a.86.86 0 00.27-1.076c-.089-.184-.188-.382-.334-.515-.715-.651-1.416-1.322-2.18-1.915C1.125 14.64.172 12.734.026 10.428a11.855 11.855 0 011.781-7.14c.512-.83 1.108-1.622 2.023-2.033C4.453.975 5.135.818 5.8.644 7.635.162 9.484-.2 11.39.123c1.643.275 2.845 1.121 3.396 2.735.362 1.056.448 2.147.336 3.265-.221 2.195-1.843 4.159-3.958 4.74-.917.251-1.418.11-1.97-.653-.395-.549-.723-1.147-1.077-1.727-.053-.086-.09-.185-.135-.277-.043-.092-.09-.18-.135-.272.133.953.354 1.87.874 2.687.28.444.656.772 1.205.821 2.021.182 3.728-.482 4.939-2.107 1.356-1.82 1.654-3.912 1.262-6.115-.077-.435-.206-.86-.298-1.294-.062-.279.049-.485.324-.583.128-.043.259-.078.386-.105C18.192.882 19.865.764 21.55.935c1.913.19 3.722.716 5.34 1.779 2.534 1.667 4.103 4.039 4.956 6.908.124.416.142.871.154 1.31.007.293-.18.37-.403.186a6.19 6.19 0 01-.683-.666c-.197-.223-.354-.478-.546-.712-.148-.184-.277-.156-.348.073a11.59 11.59 0 00-.124.414c-.443 1.579-1.14 3.019-2.27 4.232-.158.17-.299.424-.318.649-.048.622-.084 1.258-.024 1.879.124 1.333.317 2.66.467 3.992.084.752-.158 1.194-.864 1.455a5.785 5.785 0 01-1.555.352c-.836.058-1.68.017-2.52.017-.022-.937.058-1.858-.823-2.36.17-.696.368-1.356.486-2.031.097-.56.015-1.112-.379-1.572-.37-.433-.832-.55-1.256-.303-1.277.744-2.605.748-3.957.26-.62-.225-1.053-.097-1.396.47a3.406 3.406 0 00-.484 1.985c.052.872.204 1.734.32 2.602.064.486.01.612-.472.735-1.07.272-2.16.302-3.255.214-.058-.006-.117-.03-.154-.04-.054-.909.041-1.854-1.043-2.338.48-1.018.415-2.073.25-3.129l-.004-.01zm-6.472-3.568c.159-.15.286-.385.331-.6.113-.54-.292-1.264-.76-1.465-.25-.109-.468-.07-.644.13-.43.485-.853.976-1.275 1.47a1.505 1.505 0 00-.186.283c-.168.324-.069.56.291.648.218.055.443.066.666.098.58-.056 1.143-.154 1.577-.563v-.001zM4.22 8.32a.72.72 0 00-.705-.71.731.731 0 00-.716.735c.017.388.34.7.726.692a.707.707 0 00.697-.715L4.22 8.32z" fill="#777BB4"/></svg>