<svg width="26" height="26" fill="none" xmlns="http://www.w3.org/2000/svg"><g clip-path="url(#clip0_21_493)"><path d="M24.85 11.903L14.096 1.15a1.586 1.586 0 00-2.243 0L9.62 3.383l2.833 2.833a1.882 1.882 0 012.385 2.401l2.73 2.73a1.887 1.887 0 11-1.13 1.064l-2.546-2.545v6.7a1.888 1.888 0 11-1.552-.055V9.748a1.887 1.887 0 01-1.025-2.475L8.523 4.48l-7.374 7.373c-.62.62-.62 1.625 0 2.244L11.903 24.85c.62.62 1.623.62 2.243 0L24.85 14.147c.62-.62.62-1.624 0-2.244z" fill="#F05133"/></g><defs><clipPath id="clip0_21_493"><path fill="#fff" d="M0 0h26v26H0z"/></clipPath></defs></svg>