<svg width="26" height="26" fill="none" xmlns="http://www.w3.org/2000/svg"><g clip-path="url(#clip0_21_558)"><path fill-rule="evenodd" clip-rule="evenodd" d="M9.727 25.584l3.834-11.47 3.426 11.261a13.047 13.047 0 01-7.26.209zM0 13C0 5.824 5.824 0 13 0a12.94 12.94 0 018.881 3.512c-.127-.03-.26-.05-.399-.055-2.246-.076-3.694 2.126-2.103 4.065.5.607 1.516 1.166 1.878 2.237l-2.656 8.708-2.436-8.004c-.332-1.094-.492-1.744-.492-1.955a.99.99 0 01.131-.52.723.723 0 01.361-.328c.222-.092.583-.147 1.088-.155v-.512h-7.21v.512c.457 0 .808.078 1.046.235.236.159.446.421.632.787.18.365.438 1.093.779 2.186l.316 1.038-2.263 7.409-2.698-8.447c-.36-1.14-.536-1.882-.536-2.233a.94.94 0 01.258-.675c.168-.18.515-.28 1.035-.3v-.512H2.156v.512c.47.058.801.247.999.571.2.323.546 1.259 1.044 2.803L8.79 25.302C3.679 23.553 0 18.705 0 13zm18.065 11.974l3.939-13.132c.464-1.165 1.796-4.44 1.836-5.367a3.99 3.99 0 00-.07-.755A12.957 12.957 0 0126 13c0 5.376-3.275 9.994-7.935 11.974z" fill="#3476B2"/></g><defs><clipPath id="clip0_21_558"><path fill="#fff" d="M0 0h26v26H0z"/></clipPath></defs></svg>