<svg width="26" height="26" fill="none" xmlns="http://www.w3.org/2000/svg"><g clip-path="url(#clip0_21_548)"><path d="M4.007 16.92l-1.36.496-.073 4.046 4.709-1.72c-1.615-.542-2.795-1.497-3.276-2.823z" fill="#FDBD39"/><path d="M4.72 12.64L0 14.363l2.647 3.053 1.36-.497c-.48-1.322-.183-2.817.712-4.28z" fill="#F69833"/><path d="M12.661 6.8c-6.01 2.196-9.884 6.726-8.653 10.12L25.77 8.97c-1.23-3.394-7.1-4.365-13.109-2.17z" fill="#FECF33"/><path d="M17.116 19.087c6.01-2.195 9.892-6.705 8.654-10.118l-21.763 7.95c1.238 3.413 7.1 4.364 13.11 2.168z" fill="#EE6723"/><path d="M25.77 8.969l-21.763 7.95c.426 1.175 2.052 1.754 4.332 1.754 2.223 0 5.068-.55 8.035-1.633 6.01-2.196 10.238-5.75 9.396-8.071z" fill="#F69833"/><path d="M21.439 7.215c-2.223 0-5.069.55-8.035 1.634-6.01 2.195-10.238 5.75-9.396 8.07L25.77 8.97c-.426-1.175-2.051-1.754-4.331-1.754z" fill="#FDBD39"/><path d="M20.237 21.677c-.64 0-1.585-.579-2.808-1.72-1.446-1.349-3.103-3.325-4.666-5.565-1.562-2.24-2.846-4.478-3.615-6.304-.837-1.99-.957-3.213-.354-3.637a.805.805 0 01.472-.14c.49 0 1.444.365 3.209 2.102l.038.038-.005.054-.033.375-.02.245-.173-.174c-1.9-1.916-2.738-2.122-3.01-2.122a.316.316 0 00-.183.046c-.26.184-.278 1.083.534 3.011.755 1.794 2.02 3.999 3.563 6.21 1.542 2.21 3.174 4.157 4.594 5.483 1.532 1.429 2.223 1.583 2.448 1.583a.323.323 0 00.189-.05c.275-.193.275-1.156-.63-3.232l-.042-.095.091-.05.262-.146.109-.062.05.115c.642 1.471 1.242 3.341.455 3.894a.81.81 0 01-.475.14zm0-.227v.113-.113z" fill="#EE6723"/><path d="M17.263 19.025l-.01.113c-.151 1.88-.552 4.14-1.595 4.232a.72.72 0 01-.064.003c-.709 0-1.379-1.015-1.992-3.018-.58-1.894-1.031-4.437-1.269-7.161-.237-2.724-.234-5.307.01-7.274.266-2.143.772-3.263 1.505-3.327a.723.723 0 01.066-.003c.514 0 1.288.582 2.082 3.293l-.518.1c-.265-.906-.554-1.643-.84-2.15-.265-.468-.523-.725-.726-.725h-.02c-.317.028-.78.798-1.037 2.876-.24 1.932-.242 4.476-.008 7.165.234 2.689.677 5.194 1.247 7.054.256.833.536 1.52.81 1.986.253.43.498.666.69.666h.02c.303-.027.875-.828 1.116-3.647l.533-.183z" fill="#EE6723"/></g><defs><clipPath id="clip0_21_548"><path fill="#fff" d="M0 0h26v26H0z"/></clipPath></defs></svg>