<svg width="26" height="26" fill="none" xmlns="http://www.w3.org/2000/svg"><path d="M13 1.219l-7.327.774L0 9.61l13 15.138L26 9.609l-5.673-7.616L13 1.22z" fill="#FDB300"/><path d="M0 9.609l13 15.138L5.266 9.609H0zm20.734 0L13 24.747 26 9.609h-5.266z" fill="#EB6C00"/><path d="M5.266 9.609L13 24.747l7.734-15.138H5.266z" fill="#FDAD00"/><path d="M5.673 1.993L5.266 9.61 13 1.219l-7.327.774zm15.061 7.616l-.407-7.616L13 1.22l7.734 8.39z" fill="#FDD231"/><path d="M20.734 9.609H26l-5.673-7.616.407 7.616zM0 9.609h5.266l.407-7.616L0 9.61z" fill="#FDAD00"/><path d="M13 1.219l-7.734 8.39h15.468L13 1.219z" fill="#FEEEB7"/></svg>