<svg width="11" height="11" viewBox="0 0 11 11" fill="none" xmlns="http://www.w3.org/2000/svg">
<path d="M0.647258 1.77704C0.64659 1.92549 0.67532 2.07258 0.731793 2.20983C0.788267 2.34707 0.871364 2.47175 0.976293 2.57668C1.08122 2.68161 1.2059 2.76471 1.34315 2.82118C1.48039 2.87765 1.62748 2.90638 1.77593 2.90572L7.01604 2.89566L0.978347 8.93335C0.767372 9.14432 0.648781 9.4304 0.648661 9.72864C0.648541 10.0269 0.766902 10.3129 0.977707 10.5237C1.18851 10.7345 1.47449 10.8528 1.77273 10.8527C2.07098 10.8526 2.35705 10.734 2.56803 10.523L8.60572 4.48534L8.59566 9.72544C8.59554 10.0249 8.71438 10.3121 8.92605 10.5237C9.13772 10.7354 9.42487 10.8542 9.72433 10.8541C10.0238 10.854 10.311 10.7349 10.5229 10.5231C10.7347 10.3112 10.8538 10.024 10.8539 9.72453L10.8571 1.77294C10.8539 1.62492 10.8216 1.47902 10.7619 1.34359C10.7088 1.20636 10.6277 1.08175 10.5236 0.977725C10.4196 0.873704 10.295 0.792567 10.1578 0.739509C10.0224 0.679802 9.87645 0.647435 9.72844 0.644264L1.77684 0.647463C1.62839 0.646914 1.48128 0.675762 1.34399 0.732345C1.2067 0.788929 1.08195 0.872127 0.976936 0.97714C0.871923 1.08215 0.788724 1.2069 0.73214 1.34419C0.675557 1.48148 0.646709 1.62859 0.647258 1.77704Z" fill="#393939"/>
</svg>
