<svg width="307" height="134" viewBox="0 0 307 134" fill="none" xmlns="http://www.w3.org/2000/svg">
<path d="M54.9872 76.6219C62.6242 77.4515 68.2729 78.0203 71.9332 78.3283L68.787 102.315L1.65009 93.5088L4.79628 69.5223C13.8896 71.0593 20.763 72.1329 25.4165 72.7433L31.1595 28.9583C27.2369 35.2429 20.4522 38.7423 10.8054 39.4564C11.8611 29.4393 12.1234 20.2218 11.5923 11.8039C18.4831 11.761 23.3287 11.2347 26.1291 10.225C29.0252 9.14181 31.3034 7.84844 32.9637 6.34493C34.7086 4.85251 35.8738 3.84347 36.4591 3.31779L36.4924 3.06396L64.1594 6.69289L54.9872 76.6219ZM142.132 45.9668C151.777 47.2319 159.68 49.6455 165.84 53.2075C172.095 56.696 176.531 60.9355 179.147 65.9261C181.858 70.8432 182.848 76.0938 182.115 81.6779C180.451 94.3692 174.799 103.009 165.161 107.597C155.618 112.112 143.443 113.398 128.637 111.456C116.199 109.825 105.514 106.314 96.5817 100.926C87.7451 95.4635 81.8607 87.5053 78.9287 77.0512C83.671 76.9847 88.8918 76.5506 94.5911 75.749C100.375 74.9585 105.615 74.0536 110.31 73.0342C111.609 76.9054 113.756 79.8979 116.749 82.0118C119.753 84.0411 123.963 85.4109 129.378 86.1211C135.131 86.8757 139.991 86.5665 143.958 85.1934C148.01 83.8314 150.252 81.5006 150.685 78.2008C151.129 74.8165 149.85 71.7657 146.85 69.0484C143.85 66.3312 138.966 64.5287 132.197 63.6409C127.797 63.0638 123.673 63.3404 119.824 64.4708C115.986 65.5166 113.075 67.3724 111.09 70.0382L81.773 66.1929C84.9467 57.7445 87.9553 48.586 90.7989 38.7173C93.727 28.8598 95.8708 20.0612 97.2303 12.3216L186.323 24.0074L183.094 48.6285C173.78 46.8044 164.94 45.3007 156.575 44.1174C148.306 42.8607 136.683 41.2501 121.707 39.2858L119.506 46.2265C126.214 44.9547 133.756 44.8681 142.132 45.9668ZM273.578 82.9596C279.163 83.6921 283.81 85.3344 287.52 87.8866C291.241 90.3542 293.89 93.4556 295.465 97.1909C297.126 100.937 297.678 104.926 297.123 109.156C296.558 113.471 294.989 117.224 292.419 120.416C289.934 123.619 286.569 125.974 282.326 127.483C278.095 128.908 273.186 129.254 267.602 128.521C261.934 127.778 257.196 126.167 253.39 123.688C249.68 121.136 246.995 117.987 245.334 114.24C243.759 110.505 243.254 106.48 243.82 102.165C244.153 99.6264 244.85 97.265 245.911 95.0804L219.502 122.212L190.185 118.367L236.58 70.7483C231.31 74.1881 224.698 75.3863 216.744 74.3432C211.076 73.5996 206.338 71.9885 202.532 69.5098C198.822 66.9576 196.137 63.8083 194.476 60.0619C192.901 56.3266 192.396 52.3015 192.962 47.9864C193.517 43.756 195.037 40.0395 197.523 36.8369C200.093 33.6454 203.494 31.3374 207.726 29.913C212.053 28.4151 217.052 28.0379 222.72 28.7814C228.305 29.5139 232.952 31.1562 236.662 33.7084C240.383 36.176 243.032 39.2774 244.607 43.0127C246.268 46.7591 246.82 50.7475 246.265 54.9779C245.822 58.3623 244.782 61.3673 243.147 63.9929L270.433 36.0724L299.623 39.9011L255.305 85.4685C260.296 82.8526 266.387 82.0163 273.578 82.9596ZM218.842 58.3521C220.619 58.5852 222.32 58.0769 223.947 56.8272C225.659 55.5886 226.631 54.0809 226.864 52.3041C227.097 50.5273 226.536 48.9045 225.179 47.4356C223.907 45.9778 222.383 45.1324 220.606 44.8994C218.66 44.6441 216.843 45.0512 215.153 46.1205C213.548 47.201 212.629 48.6296 212.396 50.4064C212.152 52.2678 212.655 54.012 213.905 55.639C215.25 57.1925 216.896 58.0969 218.842 58.3521ZM269.7 112.53C271.477 112.763 273.178 112.255 274.805 111.005C276.517 109.767 277.489 108.259 277.722 106.482C277.956 104.706 277.394 103.083 276.037 101.614C274.765 100.156 273.241 99.3106 271.464 99.0776C269.518 98.8223 267.701 99.2294 266.011 100.299C264.406 101.379 263.487 102.808 263.254 104.585C263.01 106.446 263.513 108.19 264.763 109.817C266.108 111.371 267.754 112.275 269.7 112.53Z" fill="#2E097B"/>
<path d="M54.9872 76.6219L50.0297 75.9717L49.3648 81.0406L54.4473 81.5927L54.9872 76.6219ZM71.9332 78.3283L76.8908 78.9785L77.572 73.785L72.3524 73.3459L71.9332 78.3283ZM68.787 102.315L68.1368 107.272L73.0943 107.923L73.7446 102.965L68.787 102.315ZM1.65009 93.5088L-3.30744 92.8586L-3.95769 97.8161L0.999843 98.4664L1.65009 93.5088ZM4.79628 69.5223L5.62957 64.5922L0.513521 63.7275L-0.16126 68.872L4.79628 69.5223ZM25.4165 72.7433L24.7662 77.7008L29.7238 78.3511L30.374 73.3936L25.4165 72.7433ZM31.1595 28.9583L36.1171 29.6086L26.918 26.3109L31.1595 28.9583ZM10.8054 39.4564L5.83293 38.9324L5.20562 44.8847L11.1745 44.4428L10.8054 39.4564ZM11.5923 11.8039L11.5612 6.80402L6.26898 6.83696L6.60221 12.1188L11.5923 11.8039ZM26.1291 10.225L27.825 14.9286L27.8529 14.9186L27.8807 14.9082L26.1291 10.225ZM32.9637 6.34493L29.7138 2.54519L29.66 2.59121L29.6075 2.63873L32.9637 6.34493ZM36.4591 3.31779L39.8 7.03783L41.1761 5.80196L41.4166 3.96805L36.4591 3.31779ZM36.4924 3.06396L37.1426 -1.89357L32.1851 -2.54383L31.5349 2.41371L36.4924 3.06396ZM64.1594 6.69289L69.117 7.34314L69.7672 2.38561L64.8097 1.73536L64.1594 6.69289ZM54.4473 81.5927C62.091 82.423 67.7899 82.9973 71.514 83.3107L72.3524 73.3459C68.7558 73.0432 63.1573 72.48 55.5272 71.6512L54.4473 81.5927ZM66.9757 77.678L63.8295 101.665L73.7446 102.965L76.8908 78.9785L66.9757 77.678ZM69.4373 97.3573L2.30035 88.5513L0.999843 98.4664L68.1368 107.272L69.4373 97.3573ZM6.60763 94.1591L9.75381 70.1725L-0.16126 68.872L-3.30744 92.8586L6.60763 94.1591ZM3.96298 74.4524C13.0711 75.9918 20.0182 77.0781 24.7662 77.7008L26.0668 67.7858C21.5078 67.1878 14.7081 66.1267 5.62957 64.5922L3.96298 74.4524ZM30.374 73.3936L36.1171 29.6086L26.202 28.3081L20.459 72.0931L30.374 73.3936ZM26.918 26.3109C24.0875 30.8457 19.0266 33.8341 10.4362 34.4701L11.1745 44.4428C21.8778 43.6504 30.3863 39.6402 35.4011 31.6058L26.918 26.3109ZM15.7778 39.9805C16.8575 29.7365 17.1341 20.2342 16.5824 11.4891L6.60221 12.1188C7.11266 20.2095 6.86471 29.1421 5.83293 38.9324L15.7778 39.9805ZM11.6234 16.8038C18.5317 16.7608 24.144 16.2558 27.825 14.9286L24.4332 5.52143C22.5133 6.21366 18.4344 6.76124 11.5612 6.80402L11.6234 16.8038ZM27.8807 14.9082C31.1588 13.6821 34.0499 12.1068 36.3199 10.0511L29.6075 2.63873C28.557 3.59005 26.8916 4.60154 24.3775 5.54188L27.8807 14.9082ZM36.2137 10.1447C37.9519 8.65799 39.1625 7.61036 39.8 7.03783L33.1182 -0.402244C32.5851 0.0765742 31.4654 1.04703 29.7138 2.54519L36.2137 10.1447ZM41.4166 3.96805L41.4499 3.71422L31.5349 2.41371L31.5016 2.66754L41.4166 3.96805ZM35.8421 8.0215L63.5092 11.6504L64.8097 1.73536L37.1426 -1.89357L35.8421 8.0215ZM59.2019 6.04264L50.0297 75.9717L59.9448 77.2722L69.117 7.34314L59.2019 6.04264ZM165.84 53.2075L163.337 57.5359L163.37 57.5554L163.404 57.5744L165.84 53.2075ZM179.147 65.9261L174.718 68.2473L174.743 68.2942L174.768 68.3406L179.147 65.9261ZM165.161 107.597L167.299 112.117L167.31 112.112L165.161 107.597ZM96.5817 100.926L93.9528 105.179L93.9758 105.193L93.9989 105.207L96.5817 100.926ZM78.9287 77.0512L78.8586 72.0517L72.3592 72.1428L74.1145 78.4014L78.9287 77.0512ZM94.5911 75.749L93.914 70.7951L93.9043 70.7964L93.8947 70.7978L94.5911 75.749ZM110.31 73.0342L115.05 71.4429L113.625 67.1979L109.249 68.148L110.31 73.0342ZM116.749 82.0118L113.864 86.096L113.907 86.126L113.95 86.1552L116.749 82.0118ZM143.958 85.1934L142.365 80.4541L142.344 80.4612L142.323 80.4685L143.958 85.1934ZM119.824 64.4708L121.139 69.2949L121.186 69.282L121.233 69.2682L119.824 64.4708ZM111.09 70.0382L110.44 74.9957L113.348 75.3773L115.1 73.0242L111.09 70.0382ZM81.773 66.1929L77.0924 64.4346L74.8773 70.3312L81.1227 71.1504L81.773 66.1929ZM90.7989 38.7173L86.0059 37.2936L86 37.3132L85.9943 37.333L90.7989 38.7173ZM97.2303 12.3216L97.8805 7.36404L93.1338 6.74145L92.3056 11.4566L97.2303 12.3216ZM186.323 24.0074L191.281 24.6576L191.931 19.7001L186.973 19.0499L186.323 24.0074ZM183.094 48.6285L182.133 53.5353L187.359 54.5588L188.051 49.2788L183.094 48.6285ZM156.575 44.1174L155.824 49.0607L155.849 49.0646L155.875 49.0682L156.575 44.1174ZM121.707 39.2858L122.358 34.3283L118.207 33.7839L116.941 37.7742L121.707 39.2858ZM119.506 46.2265L114.74 44.7149L112.208 52.6994L120.438 51.139L119.506 46.2265ZM141.482 50.9243C150.699 52.1333 157.915 54.4007 163.337 57.5359L168.343 48.8791C161.445 44.8903 152.856 42.3306 142.782 41.0093L141.482 50.9243ZM163.404 57.5744C169.04 60.7169 172.662 64.3239 174.718 68.2473L183.575 63.6048C180.4 57.5471 175.151 52.675 168.275 48.8406L163.404 57.5744ZM174.768 68.3406C176.963 72.3209 177.752 76.4973 177.158 81.0277L187.073 82.3282C187.944 75.6902 186.753 69.3654 183.525 63.5116L174.768 68.3406ZM177.158 81.0277C175.663 92.4247 170.798 99.3761 163.012 103.082L167.31 112.112C178.801 106.642 185.238 96.3138 187.073 82.3282L177.158 81.0277ZM163.022 103.077C154.637 107.044 143.518 108.365 129.287 106.498L127.986 116.413C143.368 118.431 156.598 117.179 167.299 112.117L163.022 103.077ZM129.287 106.498C117.397 104.939 107.399 101.612 99.1645 96.6445L93.9989 105.207C103.629 111.017 115.001 114.71 127.986 116.413L129.287 106.498ZM99.2107 96.6727C91.4925 91.9018 86.3531 85.0076 83.743 75.701L74.1145 78.4014C77.3683 90.003 83.9976 99.0251 93.9528 105.179L99.2107 96.6727ZM78.9988 82.0507C83.9892 81.9807 89.4227 81.5252 95.2875 80.7003L93.8947 70.7978C88.3608 71.5761 83.3527 71.9887 78.8586 72.0517L78.9988 82.0507ZM95.2682 80.703C101.155 79.8984 106.525 78.9724 111.371 77.9203L109.249 68.148C104.704 69.1347 99.5954 70.0186 93.914 70.7951L95.2682 80.703ZM105.57 74.6254C107.167 79.3828 109.905 83.2997 113.864 86.096L119.633 77.9277C117.606 76.4962 116.052 74.4279 115.05 71.4429L105.57 74.6254ZM113.95 86.1552C117.841 88.7832 122.899 90.3142 128.727 91.0786L130.028 81.1636C125.026 80.5075 121.665 79.299 119.547 77.8685L113.95 86.1552ZM128.727 91.0786C134.973 91.8978 140.668 91.6234 145.594 89.9184L142.323 80.4685C139.315 81.5097 135.289 81.8537 130.028 81.1636L128.727 91.0786ZM145.551 89.9328C150.8 88.1683 154.887 84.6107 155.642 78.8511L145.727 77.5506C145.617 78.3904 145.219 79.4946 142.365 80.4541L145.551 89.9328ZM155.642 78.8511C156.341 73.5219 154.164 68.9268 150.207 65.3425L143.494 72.7544C145.537 74.6046 145.916 76.111 145.727 77.5506L155.642 78.8511ZM150.207 65.3425C146.094 61.6171 140.003 59.6219 132.847 58.6833L131.547 68.5984C137.929 69.4355 141.607 71.0454 143.494 72.7544L150.207 65.3425ZM132.847 58.6833C127.831 58.0254 123 58.327 118.415 59.6734L121.233 69.2682C124.346 68.3538 127.764 68.1022 131.547 68.5984L132.847 58.6833ZM118.51 59.6467C113.813 60.9265 109.857 63.3223 107.079 67.0522L115.1 73.0242C116.293 71.4224 118.16 70.1066 121.139 69.2949L118.51 59.6467ZM111.74 65.0807L82.4233 61.2353L81.1227 71.1504L110.44 74.9957L111.74 65.0807ZM86.4536 67.9512C89.6793 59.3645 92.7283 50.0798 95.6034 40.1017L85.9943 37.333C83.1823 47.0922 80.2141 56.1246 77.0924 64.4346L86.4536 67.9512ZM95.5919 40.1411C98.559 30.1524 100.754 21.162 102.155 13.1866L92.3056 11.4566C90.9876 18.9604 88.8951 27.5671 86.0059 37.2936L95.5919 40.1411ZM96.58 17.2791L185.673 28.9649L186.973 19.0499L97.8805 7.36404L96.58 17.2791ZM181.366 23.3571L178.136 47.9783L188.051 49.2788L191.281 24.6576L181.366 23.3571ZM184.055 43.7217C174.665 41.8827 165.738 40.3637 157.275 39.1667L155.875 49.0682C164.143 50.2377 172.895 51.7261 182.133 53.5353L184.055 43.7217ZM157.326 39.1742C149.007 37.9098 137.345 36.2941 122.358 34.3283L121.057 44.2434C136.021 46.2061 147.605 47.8115 155.824 49.0607L157.326 39.1742ZM116.941 37.7742L114.74 44.7149L124.272 47.7381L126.473 40.7975L116.941 37.7742ZM120.438 51.139C126.517 49.9863 133.512 49.879 141.482 50.9243L142.782 41.0093C134 39.8573 125.911 39.9231 118.575 41.314L120.438 51.139ZM287.52 87.8866L284.686 92.0061L284.721 92.0302L284.757 92.0537L287.52 87.8866ZM295.465 97.1909L290.859 99.1342L290.876 99.1756L290.894 99.2167L295.465 97.1909ZM292.419 120.416L288.525 117.28L288.497 117.315L288.469 117.35L292.419 120.416ZM282.326 127.483L283.921 132.222L283.962 132.209L284.002 132.194L282.326 127.483ZM253.39 123.688L250.557 127.808L250.609 127.843L250.662 127.878L253.39 123.688ZM245.334 114.24L240.728 116.183L240.745 116.225L240.763 116.266L245.334 114.24ZM245.911 95.0804L250.409 97.265L242.328 91.593L245.911 95.0804ZM219.502 122.212L218.852 127.17L221.337 127.496L223.085 125.7L219.502 122.212ZM190.185 118.367L186.604 114.878L179.639 122.027L189.535 123.325L190.185 118.367ZM236.58 70.7483L240.162 74.2375L233.848 66.5611L236.58 70.7483ZM202.532 69.5098L199.698 73.6293L199.751 73.6651L199.804 73.6996L202.532 69.5098ZM194.476 60.0619L189.87 62.0052L189.887 62.0466L189.905 62.0877L194.476 60.0619ZM197.523 36.8369L193.629 33.7008L193.6 33.7358L193.573 33.7712L197.523 36.8369ZM207.726 29.913L209.321 34.6517L209.341 34.6449L209.361 34.6379L207.726 29.913ZM236.662 33.7084L233.828 37.8279L233.863 37.852L233.899 37.8755L236.662 33.7084ZM244.607 43.0127L240.001 44.956L240.018 44.9974L240.036 45.0385L244.607 43.0127ZM243.147 63.9929L238.902 61.3495L246.722 67.4876L243.147 63.9929ZM270.433 36.0724L271.084 31.1149L268.605 30.7898L266.858 32.5777L270.433 36.0724ZM299.623 39.9011L303.208 43.3872L310.159 36.2402L300.274 34.9436L299.623 39.9011ZM255.305 85.4685L251.721 81.9824L257.626 89.897L255.305 85.4685ZM223.947 56.8272L221.016 52.7765L220.958 52.8184L220.902 52.8619L223.947 56.8272ZM225.179 47.4356L221.412 50.7227L221.458 50.7759L221.506 50.8278L225.179 47.4356ZM215.153 46.1205L212.479 41.8958L212.419 41.9335L212.361 41.973L215.153 46.1205ZM213.905 55.639L209.939 58.6847L210.029 58.8013L210.125 58.9123L213.905 55.639ZM274.805 111.005L271.874 106.955L271.816 106.997L271.76 107.04L274.805 111.005ZM276.037 101.614L272.27 104.901L272.316 104.954L272.364 105.006L276.037 101.614ZM266.011 100.299L263.337 96.074L263.277 96.1118L263.219 96.1512L266.011 100.299ZM264.763 109.817L260.797 112.863L260.887 112.979L260.983 113.091L264.763 109.817ZM272.928 87.9172C277.921 88.572 281.77 90.0002 284.686 92.0061L290.354 83.7671C285.849 80.6686 280.404 78.8122 274.229 78.0021L272.928 87.9172ZM284.757 92.0537C287.745 94.035 289.704 96.3966 290.859 99.1342L300.072 95.2477C298.076 90.5147 294.738 86.6734 290.283 83.7195L284.757 92.0537ZM290.894 99.2167C292.167 102.088 292.607 105.147 292.166 108.506L302.081 109.806C302.75 104.705 302.085 99.7867 300.037 95.1652L290.894 99.2167ZM292.166 108.506C291.712 111.969 290.483 114.848 288.525 117.28L296.313 123.552C299.496 119.6 301.403 114.973 302.081 109.806L292.166 108.506ZM288.469 117.35C286.633 119.717 284.097 121.547 280.651 122.773L284.002 132.194C289.041 130.402 293.234 127.521 296.369 123.482L288.469 117.35ZM280.731 122.745C277.385 123.871 273.273 124.222 268.253 123.564L266.952 133.479C273.1 134.285 278.804 133.945 283.921 132.222L280.731 122.745ZM268.253 123.564C263.139 122.893 259.158 121.477 256.119 119.498L250.662 127.878C255.235 130.856 260.728 132.663 266.952 133.479L268.253 123.564ZM256.224 119.569C253.197 117.487 251.155 115.033 249.906 112.214L240.763 116.266C242.834 120.94 246.163 124.785 250.557 127.808L256.224 119.569ZM249.941 112.297C248.736 109.44 248.318 106.317 248.778 102.815L238.863 101.514C238.19 106.643 238.782 111.57 240.728 116.183L249.941 112.297ZM248.778 102.815C249.044 100.781 249.595 98.9406 250.409 97.265L241.414 92.8958C240.105 95.5894 239.262 98.4723 238.863 101.514L248.778 102.815ZM242.328 91.593L215.919 118.725L223.085 125.7L249.494 98.5679L242.328 91.593ZM220.153 117.255L190.836 113.41L189.535 123.325L218.852 127.17L220.153 117.255ZM193.767 121.856L240.162 74.2375L232.999 67.2591L186.604 114.878L193.767 121.856ZM233.848 66.5611C229.826 69.1857 224.498 70.3173 217.395 69.3856L216.094 79.3007C224.897 80.4554 232.793 79.1904 239.313 74.9355L233.848 66.5611ZM217.395 69.3856C212.281 68.7149 208.3 67.2991 205.261 65.32L199.804 73.6996C204.377 76.678 209.87 78.4844 216.094 79.3007L217.395 69.3856ZM205.366 65.3903C202.339 63.3084 200.297 60.855 199.048 58.0362L189.905 62.0877C191.976 66.7616 195.305 70.6068 199.698 73.6293L205.366 65.3903ZM199.083 58.1187C197.878 55.2615 197.46 52.1384 197.92 48.6367L188.005 47.3362C187.332 52.4645 187.924 57.3918 189.87 62.0052L199.083 58.1187ZM197.92 48.6367C198.365 45.2385 199.56 42.3664 201.473 39.9025L193.573 33.7712C190.514 37.7126 188.669 42.2735 188.005 47.3362L197.92 48.6367ZM201.417 39.973C203.336 37.5902 205.908 35.8004 209.321 34.6517L206.131 25.1742C201.08 26.8744 196.85 29.7005 193.629 33.7008L201.417 39.973ZM209.361 34.6379C212.796 33.4491 216.984 33.0718 222.07 33.739L223.371 23.8239C217.119 23.0039 211.311 23.381 206.09 25.188L209.361 34.6379ZM222.07 33.739C227.063 34.3938 230.912 35.822 233.828 37.8279L239.496 29.5889C234.991 26.4904 229.546 24.6339 223.371 23.8239L222.07 33.739ZM233.899 37.8755C236.887 39.8567 238.846 42.2184 240.001 44.956L249.214 41.0694C247.218 36.3364 243.88 32.4952 239.425 29.5413L233.899 37.8755ZM240.036 45.0385C241.309 47.9097 241.749 50.9685 241.308 54.3277L251.223 55.6282C251.892 50.5265 251.227 45.6085 249.179 40.987L240.036 45.0385ZM241.308 54.3277C240.947 57.0782 240.123 59.3899 238.902 61.3495L247.391 66.6363C249.441 63.3447 250.696 59.6464 251.223 55.6282L241.308 54.3277ZM246.722 67.4876L274.009 39.5672L266.858 32.5777L239.571 60.4982L246.722 67.4876ZM269.783 41.03L298.973 44.8587L300.274 34.9436L271.084 31.1149L269.783 41.03ZM296.039 36.415L251.721 81.9824L258.889 88.9545L303.208 43.3872L296.039 36.415ZM257.626 89.897C261.474 87.8803 266.465 87.0694 272.928 87.9172L274.229 78.0021C266.308 76.9632 259.117 77.825 252.984 81.04L257.626 89.897ZM218.192 63.3097C221.476 63.7405 224.48 62.7229 226.993 60.7925L220.902 52.8619C220.161 53.4308 219.761 53.4298 219.492 53.3946L218.192 63.3097ZM226.879 60.8779C229.488 58.9896 231.378 56.3394 231.822 52.9544L221.907 51.6539C221.885 51.8224 221.83 52.1876 221.016 52.7765L226.879 60.8779ZM231.822 52.9544C232.272 49.5244 231.084 46.4601 228.853 44.0434L221.506 50.8278C221.792 51.138 221.872 51.3286 221.893 51.3899C221.909 51.4356 221.927 51.5006 221.907 51.6539L231.822 52.9544ZM228.947 44.1485C226.943 41.8519 224.342 40.3465 221.257 39.9418L219.956 49.8569C220.425 49.9184 220.872 50.1037 221.412 50.7227L228.947 44.1485ZM221.257 39.9418C218.127 39.5314 215.136 40.2136 212.479 41.8958L217.827 50.3453C218.549 49.8887 219.193 49.7569 219.956 49.8569L221.257 39.9418ZM212.361 41.973C209.673 43.7827 207.875 46.4342 207.439 49.7562L217.354 51.0567C217.384 50.8251 217.424 50.6193 217.946 50.2681L212.361 41.973ZM207.439 49.7562C207.005 53.0609 207.964 56.1135 209.939 58.6847L217.87 52.5933C217.346 51.9105 217.299 51.4748 217.354 51.0567L207.439 49.7562ZM210.125 58.9123C212.231 61.3438 214.97 62.8871 218.192 63.3097L219.492 53.3946C218.821 53.3066 218.269 53.0412 217.684 52.3657L210.125 58.9123ZM269.05 117.488C272.334 117.919 275.338 116.901 277.851 114.971L271.76 107.04C271.019 107.609 270.619 107.608 270.35 107.573L269.05 117.488ZM277.737 115.056C280.346 113.168 282.236 110.518 282.68 107.133L272.765 105.832C272.743 106.001 272.688 106.366 271.874 106.955L277.737 115.056ZM282.68 107.133C283.13 103.703 281.942 100.638 279.711 98.2216L272.364 105.006C272.65 105.316 272.73 105.507 272.751 105.568C272.767 105.614 272.785 105.679 272.765 105.832L282.68 107.133ZM279.805 98.3267C277.801 96.0301 275.2 94.5247 272.115 94.12L270.814 104.035C271.283 104.097 271.73 104.282 272.27 104.901L279.805 98.3267ZM272.115 94.12C268.985 93.7096 265.995 94.3918 263.337 96.074L268.685 104.524C269.407 104.067 270.051 103.935 270.814 104.035L272.115 94.12ZM263.219 96.1512C260.531 97.961 258.733 100.612 258.297 103.934L268.212 105.235C268.242 105.003 268.282 104.798 268.804 104.446L263.219 96.1512ZM258.297 103.934C257.863 107.239 258.822 110.292 260.797 112.863L268.728 106.772C268.204 106.089 268.157 105.653 268.212 105.235L258.297 103.934ZM260.983 113.091C263.089 115.522 265.828 117.065 269.05 117.488L270.35 107.573C269.679 107.485 269.127 107.219 268.542 106.544L260.983 113.091Z" fill="white"/>
</svg>
