<svg width="40" height="40" viewBox="0 0 40 40" fill="none" xmlns="http://www.w3.org/2000/svg">
<path d="M20 0C8.963 0 0 8.963 0 20C0 31.037 8.963 40 20 40C31.037 40 40 31.037 40 20C40 8.963 31.037 0 20 0ZM20 35.111C11.63 35.111 4.815 28.37 4.815 20C4.82161 15.9747 6.42358 12.1162 9.26989 9.26989C12.1162 6.42358 15.9747 4.82161 20 4.815C24.0253 4.82161 27.8838 6.42358 30.7301 9.26989C33.5764 12.1162 35.1784 15.9747 35.185 20C35.111 28.37 28.37 35.111 20 35.111Z" fill="#F2F5F9"/>
<path d="M17.5559 22.889C18.9629 24.148 21.0369 24.148 22.3709 22.889V17.111C20.9639 15.852 18.8889 15.852 17.5559 17.111V22.889ZM20.0009 9.70398C17.2599 9.70398 14.6679 10.815 12.7419 12.741L16.1489 16.148C16.6523 15.6376 17.252 15.2324 17.9132 14.9557C18.5745 14.6791 19.2842 14.5367 20.0009 14.5367C20.7177 14.5367 21.4274 14.6791 22.0887 14.9557C22.7499 15.2324 23.3496 15.6376 23.8529 16.148L27.2599 12.741C25.3339 10.815 22.7419 9.70398 20.0009 9.70398Z" fill="white"/>
<path d="M23.852 23.852C23.3487 24.3624 22.749 24.7676 22.0877 25.0442C21.4264 25.3208 20.7168 25.4633 20 25.4633C19.2832 25.4633 18.5735 25.3208 17.9123 25.0442C17.251 24.7676 16.6513 24.3624 16.148 23.852L12.741 27.259C16.741 31.259 23.26 31.259 27.26 27.259L23.853 23.852H23.852ZM19.996 40C20.144 37.63 18.737 35.481 16.44 34.741C10.514 33.259 6.06998 28.445 5.10698 22.445H15.181C14.366 20.889 14.366 19.112 15.181 17.63H5.10698C6.44098 9.33299 14.144 3.77799 22.367 5.03699C24.3084 5.33414 26.1714 6.01396 27.848 7.03699C29.922 8.29599 32.663 7.77799 34.144 5.85199C26.366 -1.92601 13.7 -1.92601 5.84798 5.85199C-2.00402 13.63 -2.00402 26.296 5.84798 34.148C9.62598 37.852 14.663 40 19.996 40Z" fill="white"/>
</svg>
