<svg width="79" height="57" viewBox="0 0 79 57" fill="none" xmlns="http://www.w3.org/2000/svg">
<g clip-path="url(#clip0_301_2)">
<path d="M27.5771 0.578125C30.4482 0.742195 32.8066 1.8496 34.6523 3.9004C36.498 5.9102 37.8311 8.20701 38.6514 10.791C39.4717 13.375 39.8818 16.0205 39.8818 18.7275C39.8818 21.4346 39.4717 24.0801 38.6514 26.6641C37.8721 29.248 36.5391 31.5654 34.6523 33.6162C32.8066 35.626 30.4482 36.7129 27.5771 36.877H4.93652C3.8291 36.8359 2.88574 36.4463 2.10645 35.708C1.36816 34.9287 0.97852 33.9854 0.9375 32.8779V17.6201C0.97852 16.4717 1.40918 15.5283 2.22949 14.79C3.0498 14.0107 4.03418 13.6211 5.18262 13.6211C6.29004 13.6621 7.2334 14.0723 8.0127 14.8516C8.792 15.5898 9.2021 16.5127 9.2432 17.6201V26.9717C9.2432 28.0791 9.8174 28.6328 10.9658 28.6328H25.4854C27.0439 28.5508 28.3359 27.9561 29.3613 26.8486C30.3867 25.7412 31.125 24.4902 31.5762 23.0957C32.0684 21.6602 32.3145 20.2041 32.3145 18.7275C32.3145 17.251 32.0684 15.8154 31.5762 14.4209C31.125 12.9854 30.3867 11.7139 29.3613 10.6064C28.3359 9.499 27.0439 8.9043 25.4854 8.8223H4.93652C2.47559 8.6172 1.14258 7.2842 0.9375 4.8232C0.9375 3.67481 1.30664 2.6904 2.04492 1.8701C2.82422 1.0498 3.78809 0.619145 4.93652 0.578125H27.5771ZM48.1868 37.3555C47.5097 37.3555 46.9426 37.1185 46.4856 36.6445C46.0455 36.1706 45.8254 35.5781 45.8254 34.8672C45.8254 34.1562 46.0455 33.5638 46.4856 33.0898C46.9426 32.6159 47.5097 32.3789 48.1868 32.3789C48.8638 32.3789 49.4309 32.6159 49.8879 33.0898C50.345 33.5638 50.5735 34.1562 50.5735 34.8672C50.5735 35.5781 50.345 36.1706 49.8879 36.6445C49.4309 37.1185 48.8638 37.3555 48.1868 37.3555ZM56.1443 25.623C56.5837 25.6393 56.9581 25.8021 57.2673 26.1113C57.5765 26.4043 57.7393 26.7705 57.7556 27.21V35.6572C57.6579 36.6338 57.1208 37.1628 56.1443 37.2441C55.6885 37.2441 55.2898 37.0977 54.948 36.8047C54.6224 36.4954 54.4597 36.113 54.4597 35.6572V27.21C54.476 26.7542 54.6469 26.3799 54.9724 26.0869C55.2979 25.7777 55.6885 25.623 56.1443 25.623ZM54.0935 22.4492C54.0935 21.9935 54.2888 21.6029 54.6794 21.2773C55.07 20.9518 55.542 20.7891 56.0954 20.7891C56.6488 20.7891 57.1208 20.9518 57.5114 21.2773C57.9021 21.6029 58.0974 21.9935 58.0974 22.4492C58.0974 22.9212 57.9021 23.32 57.5114 23.6455C57.1208 23.971 56.6488 24.1338 56.0954 24.1338C55.542 24.1338 55.07 23.971 54.6794 23.6455C54.2888 23.32 54.0935 22.9212 54.0935 22.4492ZM66.532 22.1562C66.9877 22.1562 67.3783 22.3109 67.7038 22.6201C68.0293 22.9131 68.2002 23.2874 68.2165 23.7432V25.8672H76.5173C76.973 25.8672 77.3637 26.0218 77.6892 26.3311C77.9984 26.6566 78.153 27.0472 78.153 27.5029C78.153 27.9587 77.9903 28.3493 77.6648 28.6748C77.3555 28.984 76.973 29.1387 76.5173 29.1387H68.2165V29.627C68.2002 30.2943 68.2409 30.9128 68.3386 31.4824C68.4525 32.0358 68.7129 32.5322 69.1198 32.9717C69.5267 33.4111 70.0394 33.6471 70.6579 33.6797H76.615C77.0707 33.696 77.445 33.8669 77.738 34.1924C78.0473 34.5179 78.2019 34.9085 78.2019 35.3643C78.1856 35.8037 78.0228 36.1781 77.7136 36.4873C77.4206 36.7803 77.0544 36.9349 76.615 36.9512H69.8279C68.6885 36.8861 67.7445 36.5036 66.9958 35.8037C66.2634 35.0876 65.7344 34.2168 65.4089 33.1914C65.0997 32.166 64.9369 31.0755 64.9206 29.9199V29.1387H62.113C61.6573 29.1387 61.2748 28.9759 60.9655 28.6504C60.64 28.3411 60.4773 27.9587 60.4773 27.5029C60.4773 27.0472 60.6319 26.6647 60.9411 26.3555C61.2667 26.0299 61.6573 25.8672 62.113 25.8672H64.9206V23.7432C64.9369 23.3037 65.0997 22.9375 65.4089 22.6445C65.7181 22.3353 66.0925 22.1725 66.532 22.1562Z" fill="white"/>
<path d="M75 41H4C2.34315 41 1 42.4327 1 44.2V53.8C1 55.5673 2.34315 57 4 57H75C76.6569 57 78 55.5673 78 53.8V44.2C78 42.4327 76.6569 41 75 41Z" fill="white"/>
<path d="M6.28613 51.9746C5.54134 51.9492 4.97852 51.7757 4.59766 51.4541C4.2168 51.124 3.94173 50.7559 3.77246 50.3496C3.60319 49.9349 3.51855 49.516 3.51855 49.0928C3.51855 48.6527 3.59896 48.2295 3.75977 47.8232C3.92904 47.4085 4.2041 47.0404 4.58496 46.7188C4.97428 46.3887 5.46517 46.2194 6.05762 46.2109H10.8818C11.1188 46.2109 11.3177 46.2956 11.4785 46.4648C11.6478 46.6257 11.7324 46.8245 11.7324 47.0615C11.7324 47.2985 11.6478 47.5016 11.4785 47.6709C11.3177 47.8317 11.1188 47.9121 10.8818 47.9121H6.00684C5.84603 47.9121 5.70638 47.9798 5.58789 48.1152C5.4694 48.2422 5.38053 48.3945 5.32129 48.5723C5.27051 48.7415 5.24512 48.9108 5.24512 49.0801C5.24512 49.2578 5.27051 49.4355 5.32129 49.6133C5.38053 49.7826 5.4694 49.9349 5.58789 50.0703C5.70638 50.1973 5.84603 50.265 6.00684 50.2734H10.8818C11.1188 50.2734 11.3177 50.3581 11.4785 50.5273C11.6478 50.6882 11.7324 50.887 11.7324 51.124C11.7324 51.361 11.6478 51.5599 11.4785 51.7207C11.3177 51.89 11.1188 51.9746 10.8818 51.9746H6.28613ZM16.0834 51.9746C15.3386 51.9492 14.7757 51.7757 14.3949 51.4541C14.014 51.124 13.739 50.7559 13.5697 50.3496C13.4004 49.9349 13.3158 49.516 13.3158 49.0928C13.3158 48.6527 13.3962 48.2295 13.557 47.8232C13.7263 47.4085 14.0013 47.0404 14.3822 46.7188C14.7715 46.3887 15.2624 46.2194 15.8548 46.2109H19.9681C20.5606 46.2194 21.0472 46.3887 21.4281 46.7188C21.8174 47.0404 22.0925 47.4085 22.2533 47.8232C22.4226 48.2295 22.5072 48.6527 22.5072 49.0928C22.5072 49.516 22.4226 49.9349 22.2533 50.3496C22.084 50.7559 21.8089 51.124 21.4281 51.4541C21.0472 51.7757 20.4844 51.9492 19.7396 51.9746H16.0834ZM15.8041 47.9121C15.6433 47.9121 15.5036 47.9798 15.3851 48.1152C15.2666 48.2422 15.1778 48.3945 15.1185 48.5723C15.0677 48.7415 15.0423 48.9108 15.0423 49.0801C15.0423 49.2578 15.0677 49.4355 15.1185 49.6133C15.1778 49.7826 15.2666 49.9349 15.3851 50.0703C15.5036 50.1973 15.6433 50.265 15.8041 50.2734H20.0189C20.1797 50.265 20.3194 50.1973 20.4379 50.0703C20.5563 49.9349 20.641 49.7826 20.6918 49.6133C20.751 49.4355 20.7806 49.2578 20.7806 49.0801C20.7806 48.9108 20.751 48.7415 20.6918 48.5723C20.641 48.3945 20.5563 48.2422 20.4379 48.1152C20.3194 47.9798 20.1797 47.9121 20.0189 47.9121H15.8041ZM27.0486 46.0205C27.3448 46.0205 27.6325 46.0713 27.9118 46.1729C28.1996 46.2744 28.4747 46.4225 28.737 46.6172C28.7793 46.6595 28.8259 46.7018 28.8767 46.7441C28.919 46.7018 28.9655 46.6595 29.0163 46.6172C29.2787 46.4225 29.5495 46.2744 29.8288 46.1729C30.1166 46.0713 30.4043 46.0205 30.6921 46.0205C30.9883 46.0205 31.2761 46.0713 31.5554 46.1729C31.8432 46.2744 32.114 46.4268 32.3679 46.6299C32.6303 46.8245 32.8588 47.0869 33.0534 47.417C33.2566 47.7471 33.3581 48.1406 33.3581 48.5977V51.3018C33.3073 51.8096 33.028 52.0846 32.5202 52.127C32.2833 52.127 32.0759 52.0508 31.8982 51.8984C31.7289 51.7376 31.6443 51.5387 31.6443 51.3018V48.6992C31.6443 48.4961 31.6062 48.3268 31.53 48.1914C31.4538 48.0475 31.3692 47.9375 31.2761 47.8613C31.183 47.7767 31.0857 47.7174 30.9841 47.6836C30.8825 47.6413 30.781 47.6201 30.6794 47.6201C30.5779 47.6201 30.4763 47.6413 30.3747 47.6836C30.2816 47.7174 30.1885 47.7767 30.0954 47.8613C30.0023 47.9375 29.9177 48.0475 29.8415 48.1914C29.7654 48.3268 29.723 48.4961 29.7146 48.6992V51.3018C29.6638 51.8096 29.3845 52.0846 28.8767 52.127C28.6397 52.127 28.4323 52.0508 28.2546 51.8984C28.0853 51.7376 28.0007 51.5387 28.0007 51.3018V48.6992C28.0007 48.4961 27.9626 48.3268 27.8864 48.1914C27.8103 48.0475 27.7256 47.9375 27.6325 47.8613C27.5394 47.7767 27.4421 47.7174 27.3405 47.6836C27.239 47.6413 27.1374 47.6201 27.0359 47.6201C26.9343 47.6201 26.8327 47.6413 26.7312 47.6836C26.6381 47.7174 26.545 47.7767 26.4519 47.8613C26.3588 47.9375 26.2741 48.0475 26.198 48.1914C26.1218 48.3268 26.0795 48.4961 26.071 48.6992V51.3018C26.0287 51.8096 25.7536 52.0846 25.2458 52.127C25.0088 52.127 24.8015 52.0508 24.6238 51.8984C24.4545 51.7376 24.3698 51.5387 24.3698 51.3018V48.5977C24.3868 48.1406 24.4926 47.7471 24.6872 47.417C24.8819 47.0869 25.1104 46.8245 25.3728 46.6299C25.6351 46.4268 25.906 46.2744 26.1853 46.1729C26.473 46.0713 26.7608 46.0205 27.0486 46.0205ZM37.0362 53.0791C36.9854 53.5869 36.7061 53.862 36.1983 53.9043C35.9613 53.9043 35.754 53.8239 35.5763 53.6631C35.407 53.5107 35.3223 53.3161 35.3223 53.0791V47.0361C35.3308 46.7992 35.4197 46.6045 35.5889 46.4521C35.7582 46.2913 35.9613 46.2109 36.1983 46.2109H41.5304C42.2751 46.2363 42.838 46.4141 43.2188 46.7441C43.5997 47.0658 43.8748 47.4339 44.044 47.8486C44.2133 48.2549 44.2979 48.6696 44.2979 49.0928C44.2979 49.5329 44.2133 49.9603 44.044 50.375C43.8832 50.7812 43.6082 51.1494 43.2188 51.4795C42.838 51.8011 42.3513 51.9661 41.7589 51.9746H38.5596C38.3227 51.9746 38.1238 51.89 37.963 51.7207C37.7937 51.5599 37.7091 51.361 37.7091 51.124C37.7091 50.887 37.7895 50.6882 37.9503 50.5273C38.1195 50.3581 38.3227 50.2734 38.5596 50.2734H41.8096C41.9705 50.2734 42.1101 50.21 42.2286 50.083C42.3471 49.9476 42.4317 49.7952 42.4825 49.626C42.5417 49.4482 42.5714 49.2747 42.5714 49.1055C42.5714 48.9277 42.5417 48.7542 42.4825 48.585C42.4317 48.4072 42.3471 48.2549 42.2286 48.1279C42.1101 47.9925 41.9705 47.9206 41.8096 47.9121H37.3663C37.1462 47.9206 37.0362 48.0306 37.0362 48.2422V53.0791ZM53.3334 51.3018V48.2422C53.3334 48.0306 53.2234 47.9206 53.0034 47.9121H48.56C48.3992 47.9206 48.2595 47.9925 48.1411 48.1279C48.0226 48.2549 47.9337 48.4072 47.8745 48.585C47.8237 48.7542 47.7983 48.9277 47.7983 49.1055C47.7983 49.2747 47.8237 49.4482 47.8745 49.626C47.9337 49.7952 48.0226 49.9476 48.1411 50.083C48.2595 50.21 48.3992 50.2734 48.56 50.2734H51.81C52.047 50.2734 52.2459 50.3581 52.4067 50.5273C52.576 50.6882 52.6606 50.887 52.6606 51.124C52.6606 51.361 52.576 51.5599 52.4067 51.7207C52.2459 51.89 52.047 51.9746 51.81 51.9746H48.6108C48.0183 51.9661 47.5274 51.8011 47.1381 51.4795C46.7573 51.1494 46.4822 50.7812 46.3129 50.375C46.1521 49.9603 46.0717 49.5329 46.0717 49.0928C46.0717 48.6696 46.1564 48.2549 46.3256 47.8486C46.4949 47.4339 46.77 47.0658 47.1508 46.7441C47.5317 46.4141 48.0945 46.2363 48.8393 46.2109H54.1713C54.4083 46.2109 54.6114 46.2913 54.7807 46.4521C54.95 46.6045 55.0388 46.7992 55.0473 47.0361V51.3018C55.0473 51.5387 54.9584 51.7376 54.7807 51.8984C54.6114 52.0508 54.4083 52.127 54.1713 52.127C53.6635 52.0846 53.3842 51.8096 53.3334 51.3018ZM61.1248 46.0205C61.5649 46.0205 61.9966 46.0713 62.4197 46.1729C62.8514 46.2744 63.2618 46.4268 63.6512 46.6299C64.0405 46.8245 64.3833 47.0869 64.6795 47.417C64.9842 47.7471 65.1492 48.1406 65.1746 48.5977V49.1309V51.3018C65.1238 51.8096 64.8445 52.0846 64.3367 52.127C64.0997 52.127 63.8924 52.0508 63.7146 51.8984C63.5454 51.7376 63.4607 51.5387 63.4607 51.3018V50.7432V48.9912C63.4438 48.7288 63.3423 48.513 63.1561 48.3438C62.9783 48.166 62.7752 48.0264 62.5467 47.9248C62.3266 47.8232 62.0939 47.7471 61.8484 47.6963C61.6115 47.6455 61.3702 47.6201 61.1248 47.6201C60.8794 47.6201 60.6339 47.6455 60.3885 47.6963C60.1515 47.7471 59.9188 47.8232 59.6902 47.9248C59.4702 48.0264 59.2671 48.166 59.0809 48.3438C58.9031 48.513 58.8058 48.7288 58.7889 48.9912V50.7432V51.3018C58.7466 51.8096 58.4715 52.0846 57.9637 52.127C57.7267 52.127 57.5193 52.0508 57.3416 51.8984C57.1723 51.7376 57.0877 51.5387 57.0877 51.3018V49.1309V48.5977C57.1131 48.1406 57.2739 47.7471 57.5701 47.417C57.8663 47.0869 58.2091 46.8245 58.5984 46.6299C58.9878 46.4268 59.394 46.2744 59.8172 46.1729C60.2488 46.0713 60.6847 46.0205 61.1248 46.0205ZM68.0275 46.0586C68.2645 46.0586 68.4676 46.139 68.6369 46.2998C68.8061 46.4521 68.895 46.6468 68.9035 46.8838V48.166C68.895 48.513 68.9162 48.8346 68.967 49.1309C69.0262 49.4186 69.1616 49.6768 69.3732 49.9053C69.5848 50.1338 69.8514 50.2565 70.173 50.2734H73.5627V46.9092C73.5627 46.6722 73.6473 46.4775 73.8166 46.3252C73.9943 46.1644 74.2017 46.084 74.4386 46.084C74.9464 46.1263 75.2257 46.4014 75.2765 46.9092V51.0479C75.2765 51.7249 75.1834 52.3639 74.9972 52.9648C74.828 53.498 74.5487 53.9466 74.1593 54.3105C73.7785 54.6829 73.2918 54.8861 72.6994 54.9199H68.3068C68.0783 54.9115 67.8836 54.8268 67.7228 54.666C67.5705 54.5137 67.4901 54.3232 67.4816 54.0947C67.4816 53.8577 67.5578 53.6546 67.7101 53.4854C67.8709 53.3161 68.0698 53.2272 68.3068 53.2188H72.2677C72.5893 53.2018 72.856 53.0791 73.0675 52.8506C73.2791 52.6221 73.4145 52.3555 73.4738 52.0508C73.4823 52.0254 73.4865 52 73.4865 51.9746H69.7414C69.1489 51.9408 68.658 51.7419 68.2687 51.3779C67.8879 51.0055 67.6128 50.5527 67.4435 50.0195C67.2827 49.4863 67.1981 48.9193 67.1896 48.3184V46.8838C67.1981 46.6553 67.2827 46.4648 67.4435 46.3125C67.6043 46.1517 67.799 46.0671 68.0275 46.0586Z" fill="black"/>
</g>
<defs>
<clipPath id="clip0_301_2">
<rect width="79" height="57" fill="white"/>
</clipPath>
</defs>
</svg>
