<svg width="3113" height="1115" viewBox="0 0 3113 1115" fill="none" xmlns="http://www.w3.org/2000/svg">
<path opacity="0.5" d="M117.761 323.735C117.761 323.735 340.583 252.495 596.259 246.061C851.936 239.626 754.985 619.34 918.919 787.307C1082.85 955.275 1528.89 18.6713 1737.93 22.1099C1946.98 25.5486 1802.78 925.073 2149.88 999.204C2496.99 1073.34 2742.99 596.224 2742.99 596.224M117.54 321.153C117.54 321.153 342.095 254.967 594.599 249.456C847.102 243.945 756.794 610.079 918.516 774.985C1080.24 939.891 1517.23 26.8304 1723.8 31.7828C1930.38 36.7353 1794.26 916.702 2143.72 988.029C2493.19 1059.36 2736.75 599.363 2742.62 599.507M118.611 318.459C118.611 318.459 344.198 256.736 593.639 253.441C843.08 250.145 758.714 602.109 918.813 763.253C1078.91 924.397 1506.16 34.2881 1710.37 42.0456C1914.59 49.8031 1786.44 908.922 2137.57 976.853C2488.69 1044.78 2731.11 601.8 2742.25 602.791M118.39 315.877C118.39 315.877 345.119 259.909 591.978 256.835C838.837 253.762 760.524 592.848 919.111 751.521C1077.7 910.194 1494.5 42.4473 1696.94 52.3086C1899.39 62.1699 1777.92 900.551 2132.7 965.566C2487.48 1030.58 2725.58 605.529 2741.88 606.075M118.169 313.294C118.169 313.294 346.631 262.38 589.727 260.932C832.823 259.484 761.153 584.99 918.117 739.9C1075.08 894.81 1482.25 51.3077 1682.92 63.2728C1883.6 75.2378 1769.51 893.472 2126.65 955.682C2483.79 1017.89 2719.45 609.96 2741.03 611.351M118.539 310.011C118.539 310.011 347.442 264.261 588.066 264.327C828.69 264.393 763.663 576.319 917.124 728.279C1071.17 879.539 1469.3 59.5783 1668.2 73.6471C1867.1 87.7159 1760.4 885.803 2119.2 944.618C2478 1003.43 2711.92 613.21 2739.37 614.746M118.318 307.428C118.318 307.428 348.954 266.732 586.406 267.722C823.857 268.711 764.882 567.759 916.721 715.957C1068.56 864.156 1457.54 66.4462 1654.07 83.3201C1850.61 100.194 1751.88 877.432 2113.04 933.442C2474.21 989.452 2706.39 616.939 2738.41 618.731M118.097 304.846C118.097 304.846 350.466 269.203 584.154 271.818C817.843 274.433 766.101 559.199 915.727 704.336C1065.35 849.474 1445.29 75.3065 1639.35 93.6942C1833.42 112.082 1742.66 868.472 2105.59 922.378C2468.53 976.284 2698.86 620.189 2736.75 622.126M117.877 302.263C117.877 302.263 350.687 271.785 582.494 275.213C814.301 278.64 767.32 550.639 915.324 692.014C1063.33 833.389 1432.93 82.8757 1625.22 103.367C1817.52 123.859 1734.14 860.101 2100.03 910.501C2465.91 960.901 2693.22 622.627 2736.38 625.409M118.246 298.98C118.246 298.98 352.789 273.555 580.833 278.608C808.877 283.661 769.13 541.378 915.622 680.282C1062.11 819.186 1421.86 90.3336 1612.49 114.22C1802.43 137.517 1727.02 852.91 2095.27 900.505C2463.52 948.1 2688.39 626.946 2737.41 629.873M118.025 296.397C118.025 296.397 353.711 276.728 578.582 282.704C803.454 288.681 769.759 533.52 914.038 669.362C1058.32 805.205 1409.02 99.8952 1597.18 125.295C1785.35 150.696 1717.32 845.942 2087.23 890.142C2457.14 934.342 2680.27 630.897 2734.46 633.379M118.505 294.405C118.505 294.405 355.222 279.199 577.622 286.689C800.022 294.179 772.269 524.849 914.335 657.63C1056.4 790.412 1397.36 108.054 1583.75 135.558C1770.15 163.062 1709.5 838.162 2081.77 879.557C2454.04 920.951 2674.74 634.626 2734.2 637.954M118.875 291.121C118.875 291.121 357.325 280.969 575.961 290.084C794.598 299.2 773.488 516.289 913.932 645.308C1054.38 774.328 1385 115.623 1569.62 145.231C1754.24 174.839 1700.28 829.201 2075.62 868.381C2450.95 907.561 2668.5 637.765 2733.83 641.238M118.654 288.539C118.654 288.539 358.246 284.141 574.301 293.479C789.765 303.518 775.998 507.618 913.529 632.986C1051.76 758.945 1373.93 123.081 1554.9 155.606C1735.87 188.13 1691.17 821.532 2068.76 856.616C2446.34 891.699 2662.27 640.904 2732.17 644.633M118.434 285.956C118.434 285.956 359.057 286.022 572.05 297.575C784.341 308.538 776.627 499.759 913.236 621.955C1049.85 744.152 1361.68 131.942 1541.58 167.16C1721.48 202.378 1683.47 815.043 2063.41 847.321C2443.36 879.6 2656.84 645.924 2732.61 649.798M118.803 282.673C118.803 282.673 360.569 288.493 570.389 300.97C780.208 313.447 777.846 491.199 912.243 610.334C1046.64 729.47 1348.74 140.212 1526.86 177.534C1704.99 214.856 1674.36 807.373 2055.96 836.257C2437.57 865.14 2649.32 649.175 2730.36 653.894M118.582 280.09C118.582 280.09 362.081 290.964 568.728 304.365C775.375 317.766 779.656 481.938 911.84 598.013C1044.02 714.087 1337.08 148.371 1512.73 187.207C1688.39 226.042 1665.14 798.413 2049.8 825.081C2434.47 851.75 2643.08 652.314 2729.99 657.177M118.361 277.508C118.361 277.508 363.593 293.435 566.477 308.461C769.951 322.786 780.285 474.08 910.846 586.392C1041.41 698.703 1324.72 155.94 1498.01 197.581C1671.3 239.222 1656.03 790.744 2043.05 814.607C2430.08 838.47 2636.26 656.154 2729.03 661.162M118.141 274.926C118.141 274.926 363.814 296.018 564.816 311.856C765.228 328.396 782.094 464.819 910.443 574.07C1038.79 683.32 1312.36 163.51 1483.88 207.254C1655.4 250.998 1647.51 782.373 2036.2 802.842C2424.89 823.31 2629.32 658.703 2726.67 663.967M118.51 271.642C118.51 271.642 365.916 297.788 563.156 315.251C760.395 332.715 783.313 456.259 910.741 562.337C1036.88 668.527 1301.4 172.259 1470.45 217.517C1639.5 262.775 1639.69 774.592 2031.33 791.555C2422.97 808.517 2624.38 661.73 2727.59 667.14M118.99 269.649C118.99 269.649 367.538 301.55 561.605 319.938C755.672 338.326 785.233 448.289 909.857 552.008C1034.37 654.435 1288.56 181.82 1456.54 229.772C1624.52 277.724 1631.39 768.805 2024.69 782.372C2417.99 795.939 2618.36 667.452 2726.15 673.117M118.769 267.067C118.769 267.067 368.35 303.431 559.945 323.333C751.539 343.234 786.452 439.729 909.454 539.686C1032.46 639.642 1277.49 189.278 1442.41 239.445C1607.33 289.612 1622.17 759.844 2018.53 771.196C2414.9 782.548 2611.54 671.292 2725.78 676.401M119.139 263.783C119.139 263.783 370.452 305.201 558.284 326.728C746.706 347.553 788.963 431.058 909.051 527.364C1029.14 623.669 1265.13 196.847 1428.28 249.118C1591.43 301.389 1613.65 751.474 2012.38 760.021C2411.1 768.568 2605.3 674.431 2724.82 680.386M118.918 261.201C118.918 261.201 371.373 308.373 556.623 330.123C741.282 352.573 790.182 422.498 908.648 515.041C1027.82 608.175 1252.77 204.416 1414.15 258.791C1575.53 313.166 1605.72 742.402 2005.52 748.255C2405.31 754.108 2598.37 676.98 2723.75 683.08M118.697 258.619C118.697 258.619 372.185 310.254 554.372 334.219C736.56 358.183 791.401 413.939 908.355 504.011C1025.31 594.083 1241.23 213.867 1400.13 269.755C1559.14 326.935 1597.31 735.322 2000.06 737.669C2402.81 740.016 2592.83 680.709 2723.49 687.654M118.477 256.036C118.477 256.036 373.106 313.427 552.121 338.315C731.136 363.203 792.03 406.08 907.362 492.39C1022.1 579.401 1228.87 221.436 1386.11 280.719C1543.35 340.003 1588.2 727.653 1993.31 727.195C2398.42 726.737 2586.01 684.549 2721.83 691.049M118.846 252.752C118.846 252.752 375.208 315.197 551.051 341.009C726.893 366.821 794.43 396.118 906.959 480.068C1019.49 564.018 1216.51 229.005 1371.98 290.392C1527.45 351.779 1579.68 719.282 1987.15 716.019C2394.62 712.756 2579.77 687.688 2721.46 694.333M118.626 250.17C118.626 250.17 376.02 317.078 548.8 345.105C722.17 372.431 795.058 388.259 905.965 468.447C1016.87 548.635 1204.26 237.866 1356.67 301.468C1509.08 365.07 1569.98 712.315 1979.81 706.246C2389.65 700.178 2573.06 692.82 2719.32 699.721M118.405 247.588C118.405 247.588 376.941 320.25 547.139 348.5C716.746 377.451 796.868 378.998 905.562 456.125C1014.26 533.252 1191.9 245.435 1342.54 311.141C1493.18 376.847 1561.46 703.944 1972.96 694.481C2384.45 685.018 2567.41 695.258 2718.95 703.004M118.774 244.304C118.774 244.304 379.043 322.02 545.478 351.895C711.913 381.77 798.087 370.438 905.86 444.393C1013.63 518.347 1180.83 252.893 1329.11 321.404C1477.39 389.915 1553.64 696.163 1968.09 683.194C2382.53 670.225 2561.18 698.397 2718.58 706.288M119.254 242.311C119.254 242.311 380.555 324.491 544.518 355.88C708.481 387.269 801.298 362.357 906.157 432.66C1011.02 502.964 1169.87 261.642 1316.38 332.256C1462.89 402.871 1545.82 688.383 1962.63 672.608C2379.44 656.834 2555.65 702.125 2718.91 710.161M119.033 239.729C119.033 239.729 381.477 327.663 542.267 359.976C703.057 392.289 801.927 354.499 904.573 421.741C1007.22 488.983 1156.33 270.613 1301.07 343.332C1445.8 416.051 1536.12 681.415 1955.29 662.835C2374.46 644.256 2548.23 706.667 2716.77 715.549M118.813 237.147C118.813 237.147 382.989 330.134 540.016 364.072C697.043 398.01 803.146 345.939 903.58 410.12C1004.01 474.301 1143.38 278.884 1286.35 353.706C1429.31 428.529 1527.01 673.746 1948.54 652.361C2370.07 630.976 2541.4 710.507 2715.81 719.534M119.182 233.863C119.182 233.863 383.8 332.016 538.946 366.766C694.092 401.517 804.956 336.678 903.767 397.097C1002.58 457.516 1132.91 285.64 1272.81 362.678C1412.71 439.716 1519.09 664.674 1942.28 639.894C2365.47 615.115 2535.06 712.355 2714.04 721.638M118.961 231.281C118.961 231.281 385.312 334.487 536.695 370.862C688.078 407.238 805.584 328.819 903.474 386.066C1000.07 443.424 1120.66 294.501 1258.79 373.642C1396.92 452.783 1509.98 657.005 1936.23 630.01C2362.48 603.015 2528.94 716.785 2713.78 726.212M118.741 228.698C118.741 228.698 386.824 336.958 535.034 374.257C683.244 411.557 807.394 319.558 903.071 373.744C998.749 427.929 1108.3 302.07 1245.36 383.905C1381.72 465.15 1502.16 649.224 1930.66 618.133C2359.16 587.042 2523.99 719.813 2714 728.795M119.11 225.415C119.11 225.415 388.336 339.429 533.373 377.652C678.411 415.876 808.613 310.998 902.078 362.123C995.542 413.248 1096.64 310.229 1230.64 394.279C1364.64 478.329 1493.05 641.555 1923.91 607.659C2354.78 573.763 2517.17 723.653 2712.45 733.481M118.889 222.832C118.889 222.832 389.147 341.31 531.122 381.748C673.098 422.187 809.832 302.439 901.084 350.502C992.336 398.566 1083.69 318.5 1215.92 404.653C1348.14 490.807 1483.94 633.885 1917.16 597.184C2350.39 560.483 2510.34 727.493 2711.49 737.466M118.669 220.25C118.669 220.25 390.068 344.482 529.461 385.144C668.855 425.805 811.752 294.469 900.681 338.18C990.311 382.481 1071.33 326.069 1201.79 414.326C1332.24 502.584 1475.31 624.224 1910.31 585.419C2345.3 546.614 2503.41 730.043 2709.83 740.861M119.739 217.556C119.739 217.556 392.871 346.842 528.501 389.128C664.132 431.415 814.262 285.798 901.679 327.038C989.096 368.278 1061.07 335.408 1189.06 425.179C1317.04 514.951 1468.19 617.033 1905.55 575.423C2342.91 533.813 2498.57 734.361 2710.86 745.324M119.518 214.974C119.518 214.974 393.682 348.723 526.841 392.524C659.999 436.324 815.482 277.238 901.276 314.716C987.071 352.194 1049.3 342.276 1175.63 435.442C1301.95 528.609 1460.37 609.252 1899.98 563.546C2339.59 517.84 2492.93 736.799 2710.49 748.608M119.298 212.391C119.298 212.391 394.604 351.896 524.59 396.62C654.575 441.344 816.701 268.678 899.692 303.796C983.275 338.213 1035.76 351.247 1159.73 447.219C1283.69 543.19 1450.08 602.986 1892.05 554.475C2334.02 505.964 2484.92 742.042 2707.65 753.406M119.077 209.809C119.077 209.809 396.116 354.367 522.339 400.716C648.561 447.065 817.329 260.819 898.699 292.175C980.068 323.531 1023.52 360.108 1145.01 457.593C1266.5 555.079 1440.97 595.317 1885.3 544C2329.64 492.684 2478.8 746.472 2706.1 758.092M119.446 206.525C119.446 206.525 396.927 356.248 521.268 403.41C645.61 450.571 819.729 250.857 898.886 279.152C978.043 307.447 1011.75 366.976 1131.47 466.565C1251.18 566.154 1432.34 585.655 1879.04 531.534C2325.73 477.412 2472.45 748.32 2705.62 760.084M119.226 203.943C119.226 203.943 398.439 358.719 519.017 407.506C639.595 456.293 820.358 242.999 898.593 268.121C976.128 292.654 1000.09 375.135 1117.45 477.529C1235.39 579.222 1423.93 578.575 1872.99 521.649C2322.04 464.723 2466.33 752.75 2705.36 764.659M119.005 201.36C119.005 201.36 399.951 361.19 517.356 410.901C635.463 461.202 822.168 233.738 898.19 255.799C973.512 277.271 988.429 383.294 1104.02 487.792C1219.6 592.29 1416.11 570.795 1867.42 509.772C2318.73 448.75 2460.68 755.188 2704.99 767.943M119.374 198.077C119.374 198.077 400.762 363.071 515.696 414.296C630.63 465.521 824.088 225.768 897.197 244.178C970.306 262.589 975.48 391.564 1089.3 498.166C1203.11 604.768 1407 563.126 1860.67 499.298C2314.34 435.471 2453.86 759.028 2704.03 771.928M119.154 195.494C119.154 195.494 402.274 365.542 513.445 418.392C624.616 471.242 825.307 217.208 896.203 232.557C967.1 247.907 962.53 399.835 1074.57 508.54C1186.62 617.246 1397.19 554.866 1853.92 488.824C2310.65 422.781 2447.03 762.868 2702.48 776.614M119.633 193.502C119.633 193.502 403.896 369.305 512.485 422.377C621.184 476.741 827.227 209.238 896.501 220.825C966.476 233.002 952.162 407.883 1061.14 518.803C1170.13 629.724 1389.37 547.086 1847.77 477.648C2306.16 408.211 2440.8 766.007 2702.11 779.898M119.413 190.919C119.413 190.919 404.707 371.186 510.934 427.063C616.461 482.351 829.146 201.268 896.208 209.794C963.97 218.91 939.914 416.743 1047.12 529.767C1154.34 642.792 1380.96 540.007 1841.72 467.764C2302.47 395.521 2435.37 771.027 2700.56 784.584M119.782 187.636C119.782 187.636 406.81 372.955 509.864 429.757C612.919 486.558 830.956 192.007 897.096 197.361C962.646 203.416 928.846 424.201 1034.99 539.919C1141.13 655.637 1374.44 532.115 1836.85 456.477C2299.27 380.839 2430.43 774.055 2701.48 787.756M119.562 185.053C119.562 185.053 407.731 376.128 507.613 433.853C607.495 491.578 832.175 183.447 895.512 186.441C958.849 189.435 916.006 433.762 1019.68 550.994C1123.34 668.226 1364.74 525.147 1830.1 446.003C2295.47 366.859 2423.61 777.895 2699.93 792.442M0.711099 164.083C0.711099 164.083 548.086 -112.037 882.721 318.267C1217.36 748.57 1678.84 213.208 1943.55 183.231C2208.27 153.254 2127.78 702.595 2357.13 966.378C2586.48 1230.16 3007.83 347.065 3007.83 347.065M3.07251 161.278C3.07251 161.278 545.504 -111.814 878.516 314.727C1211.53 741.268 1667.81 213.509 1929.94 183.754C2192.08 154 2116.16 703.597 2349.42 959.889C2582.69 1216.18 3000.23 364.63 3004.4 352.564M6.13483 159.063C6.13483 159.063 543.512 -112.293 875.012 311.777C1206.51 735.847 1656.19 214.511 1917.73 185.457C2179.28 156.404 2106.53 705.077 2343.22 955.87C2580.62 1207.25 2992.62 382.195 3002.26 357.951M8.49624 156.258C8.49624 156.258 540.229 -112.66 870.107 307.648C1199.99 727.955 1644.45 214.221 1903.42 185.391C2162.38 156.56 2094.21 705.489 2335.52 949.381C2576.94 1194.56 2984.32 399.169 2998.82 363.45M11.5586 154.042C11.5586 154.042 538.347 -111.848 866.013 305.399C1194.38 723.236 1633.54 215.813 1890.62 187.795C2147.7 159.777 2083.99 707.671 2328.73 946.064C2573.47 1184.46 2976.72 416.734 2995.98 368.247M14.6207 151.827C14.6207 151.827 535.765 -111.625 862.509 302.449C1189.25 716.524 1622.51 216.114 1877.71 188.908C2132.91 161.703 2073.07 709.262 2321.83 941.455C2570.6 1173.65 2969.7 433.598 2993.25 374.336M16.9821 149.022C16.9821 149.022 532.482 -111.992 858.305 298.91C1182.84 709.923 1610.89 217.115 1864.8 190.021C2118.71 162.927 2062.15 710.854 2314.82 935.556C2567.5 1160.26 2962.69 450.461 2990.3 377.842M19.4542 147.508C19.4542 147.508 529.9 -111.77 852.919 296.772C1176.53 704.613 1598.68 218.819 1850 191.947C2101.33 165.076 2049.94 712.557 2306.05 931.76C2562.15 1150.96 2953.21 468.839 2986.28 384.042M21.8156 144.703C21.8156 144.703 527.317 -111.547 848.715 293.233C1170.11 698.013 1586.94 218.529 1837.09 193.06C2087.24 167.591 2039.02 714.149 2299.15 927.152C2559.28 1140.16 2945.6 486.404 2983.55 390.131M24.8777 142.488C24.8777 142.488 524.735 -111.324 845.211 290.283C1165.69 691.891 1576.03 220.121 1824.88 194.764C2073.74 169.406 2029.39 715.63 2293.54 922.433C2557.69 1129.24 2939.88 503.156 2982 394.817M27.9399 140.273C27.9399 140.273 522.153 -111.102 840.416 287.445C1158.68 685.991 1563.7 220.533 1810.68 195.988C2057.65 171.443 2017.18 717.333 2285.35 917.936C2553.53 1118.54 2930.99 520.832 2977.97 401.017M30.3015 137.468C30.3015 137.468 519.571 -110.879 836.211 283.905C1152.85 678.689 1552.67 220.834 1797.77 197.101C2042.86 173.369 2006.26 718.925 2279.05 912.626C2550.54 1106.44 2923.98 537.696 2976.42 405.703M33.3637 135.253C33.3637 135.253 517.579 -111.358 832.708 280.955C1147.84 673.269 1542.35 221.724 1785.45 197.513C2028.55 173.302 1996.52 719.114 2272.04 906.727C2547.56 1094.34 2916.26 553.97 2973.47 409.21M35.7251 132.448C35.7251 132.448 514.296 -111.725 827.802 276.826C1141.31 665.377 1529.32 221.546 1771.83 198.036C2014.34 174.526 1984.9 720.116 2264.44 901.529C2543.98 1082.94 2908.55 570.243 2970.04 414.708M38.7873 130.233C38.7873 130.233 511.713 -111.502 823.708 274.577C1135.7 660.657 1518.4 223.138 1758.33 199.851C1998.26 176.563 1973.98 721.707 2257.54 896.92C2541.11 1072.13 2901.65 588.398 2967.2 419.506M41.8497 128.018C41.8497 128.018 509.832 -110.69 820.205 271.628C1130.58 653.945 1508.08 224.028 1746.12 201.554C1984.17 179.079 1963.76 723.889 2251.35 892.902C2538.93 1061.91 2894.75 606.553 2965.17 426.185M44.211 125.213C44.211 125.213 507.139 -111.758 815.299 267.498C1123.46 646.754 1495.05 223.85 1731.81 201.487C1968.57 179.124 1951.44 724.301 2243.05 887.114C2533.95 1049.34 2885.74 622.938 2961.63 430.392M46.6829 123.699C46.6829 123.699 503.967 -110.834 810.615 265.951C1117.26 642.736 1483.54 226.143 1718.42 204.593C1953.29 183.042 1941.33 727.774 2236.26 883.797C2531.19 1039.82 2878.84 641.092 2958.89 436.481M49.0444 120.894C49.0444 120.894 501.385 -110.612 806.41 262.411C1111.44 635.434 1472.51 226.444 1704.81 205.116C1937.1 183.788 1929.71 728.776 2227.96 878.009C2526.21 1027.24 2869.83 657.477 2954.76 441.39M52.1066 118.679C52.1066 118.679 498.802 -110.389 802.906 259.461C1107.01 629.312 1461.48 226.744 1692.6 206.819C1923.71 186.893 1920.09 730.256 2222.36 873.289C2524.63 1016.32 2863.52 674.931 2953.91 446.666M55.1689 116.464C55.1689 116.464 496.22 -110.167 798.111 256.623C1100 623.413 1449.27 228.448 1678.39 208.043C1907.51 187.639 1907.88 731.959 2214.17 868.792C2520.46 1005.63 2855.22 691.906 2949.19 452.276M57.5303 113.659C57.5303 113.659 493.527 -111.235 793.907 253.083C1094.29 617.402 1438.24 228.748 1665.48 209.157C1892.72 189.565 1896.96 733.551 2207.27 864.184C2517.59 994.817 2848.32 710.061 2947.05 457.663M60.5925 111.444C60.5925 111.444 491.646 -110.423 790.403 250.134C1089.16 610.69 1427.21 229.049 1653.27 210.86C1879.33 192.671 1887.33 735.032 2201.67 859.465C2516 983.897 2842.01 727.514 2945.5 462.35M62.9539 108.639C62.9539 108.639 488.363 -110.79 785.498 246.004C1082.63 602.798 1414.89 229.461 1638.96 210.793C1862.43 192.827 1875.01 735.444 2193.37 853.677C2511.73 971.909 2833 743.899 2941.37 467.259M66.0161 106.424C66.0161 106.424 485.781 -110.567 781.404 243.756C1077.03 598.079 1403.97 231.052 1626.16 213.197C1848.34 195.342 1864.79 737.625 2185.88 849.769C2506.97 961.913 2825.4 761.464 2938.63 473.347M69.0784 104.208C69.0784 104.208 483.198 -110.344 777.9 240.806C1071.9 591.367 1392.94 231.353 1613.25 214.31C1833.55 197.268 1853.87 739.217 2179.57 844.46C2505.28 949.703 2818.39 778.327 2935.79 478.144M71.44 101.403C71.44 101.403 481.207 -110.823 772.995 236.676C1065.48 584.766 1380.62 231.765 1599.64 214.834C1818.65 197.902 1842.25 740.219 2171.98 839.262C2501.7 938.305 2810.08 795.302 2932.95 482.942M73.9117 99.8897C73.9117 99.8897 478.034 -109.899 768.31 235.129C1058.59 580.158 1369.11 234.058 1585.54 217.349C1801.97 200.641 1830.74 742.512 2164.49 835.355C2498.24 928.198 2801.89 813.569 2929.63 489.732M76.2732 97.0847C76.2732 97.0847 474.751 -110.267 764.105 231.589C1053.46 573.446 1357.38 233.769 1572.63 218.463C1787.88 203.156 1819.82 744.104 2157.59 830.747C2495.36 917.389 2794.88 830.432 2926.79 494.529M79.3355 94.8695C79.3355 94.8695 472.869 -109.454 759.901 228.05C1046.93 565.554 1346.35 234.069 1559.02 218.986C1771.69 203.902 1808.79 744.405 2149.99 825.549C2491.19 906.693 2787.27 847.997 2923.95 499.327M82.3976 92.6545C82.3976 92.6545 470.287 -109.231 756.397 225.1C1042.51 559.432 1335.43 235.661 1546.81 220.689C1758.18 205.717 1798.57 746.586 2143.69 820.239C2488.8 893.892 2780.26 864.861 2921.11 504.125M84.7592 89.8493C84.7592 89.8493 467.595 -110.3 751.602 222.262C1036.2 554.122 1323.11 236.073 1532.61 221.913C1742.1 207.754 1786.36 748.289 2135.5 815.742C2484.63 883.195 2771.37 882.537 2917.67 509.623M87.8215 87.6342C87.8215 87.6342 465.012 -110.077 748.098 219.312C1030.48 548.111 1312.78 236.963 1520.4 223.616C1728.01 210.269 1776.73 749.769 2129.3 811.723C2481.87 873.677 2765.06 899.99 2915.64 516.302M90.1828 84.8292C90.1828 84.8292 462.43 -109.855 743.193 215.182C1024.66 540.809 1300.46 237.375 1506.08 223.55C1711.7 209.724 1764.41 750.181 2121.59 805.234C2478.77 860.287 2756.64 915.674 2911.99 519.218M93.2451 82.6141C93.2451 82.6141 459.848 -109.632 739.099 212.934C1018.35 535.5 1288.84 238.377 1493.28 225.954C1697.72 213.531 1754.89 752.953 2114.81 801.917C2474.72 850.881 2749.15 934.53 2909.96 525.897M96.3072 80.3992C96.3072 80.3992 457.856 -110.111 735.595 209.984C1013.22 528.788 1278.51 239.268 1481.07 227.657C1683.63 216.047 1744.68 755.135 2109.2 797.198C2473.72 839.26 2742.84 951.984 2907.82 531.284M98.6688 77.594C98.6688 77.594 455.274 -109.888 730.69 205.855C1006.81 522.187 1266.78 238.978 1466.76 227.59C1666.74 216.203 1732.36 755.547 2100.2 790.82C2468.05 826.093 2733.72 967.078 2903.58 534.902M101.141 76.0803C101.141 76.0803 452.101 -108.964 726.005 204.307C1000.5 516.878 1253.98 241.383 1453.37 230.696C1652.75 220.009 1721.55 758.43 2092.82 788.204C2464.1 817.978 2726.34 987.225 2900.37 542.983M103.502 73.2751C103.502 73.2751 448.818 -109.332 721.801 200.768C994.784 510.867 1242.95 241.683 1439.76 231.219C1636.56 220.755 1709.93 759.432 2085.82 782.305C2461.71 805.177 2718.63 1003.5 2897.41 546.49M106.564 71.0599C106.564 71.0599 446.236 -109.109 717.596 197.228C988.957 503.565 1231.92 241.984 1426.85 232.332C1621.77 222.681 1699.6 760.322 2078.92 777.696C2458.24 795.07 2711.62 1020.36 2895.27 551.877M109.627 68.845C109.627 68.845 444.945 -108.997 714.093 194.278C983.241 497.554 1220.3 242.986 1413.93 233.446C1607.56 223.906 1688.68 761.914 2072.02 773.088C2455.36 784.262 2704.01 1037.93 2892.54 557.966M111.988 66.0399C111.988 66.0399 441.662 -109.365 709.298 191.44C976.934 492.245 1208.68 243.988 1400.43 235.26C1592.18 226.532 1677.17 764.207 2065.12 768.48C2453.08 772.752 2696.41 1055.49 2889.7 562.763M115.05 63.8249C115.05 63.8249 439.079 -109.142 705.093 187.9C971.107 484.943 1197.65 244.288 1386.82 235.783C1575.99 227.278 1666.14 764.508 2056.83 762.692C2447.51 760.876 2687.41 1071.88 2885.57 567.672M117.412 61.0198C117.412 61.0198 435.796 -109.509 700.889 184.361C965.981 478.231 1185.92 243.999 1373.91 236.896C1561.89 229.794 1655.22 766.099 2050.52 757.382C2445.82 748.665 2680.39 1088.74 2883.32 571.768M120.474 58.8048C120.474 58.8048 433.915 -108.697 696.794 182.112C959.674 472.921 1174.41 246.292 1360.41 238.711C1547.1 231.72 1644.3 767.691 2043.03 753.475C2441.76 739.259 2673.49 1106.89 2880.59 577.857M123.536 56.5897C123.536 56.5897 431.923 -109.175 693.291 179.163C954.548 466.209 1164.08 247.182 1348.2 240.414C1532.31 233.646 1634.08 769.873 2036.83 749.457C2439.59 729.041 2666.59 1125.05 2878.56 584.536M125.898 53.7846C125.898 53.7846 428.64 -109.543 688.385 175.033C948.131 459.609 1151.65 246.303 1334.59 240.937C1517.52 235.571 1622.46 770.875 2029.83 743.558C2437.19 716.24 2658.88 1141.32 2875.6 588.042M128.96 51.5694C128.96 51.5694 426.759 -108.73 684.882 172.083C943.005 452.897 1140.73 247.895 1321.67 242.05C1502.61 236.206 1612.13 771.765 2022.93 738.949C2433.73 706.133 2651.27 1158.89 2872.87 594.131M130.731 49.4656C130.731 49.4656 422.885 -108.396 679.496 169.946C936.108 448.288 1128.52 249.598 1308.17 243.865C1487.82 238.131 1600.62 774.058 2014.74 734.452C2428.86 694.846 2642.97 1175.86 2869.44 599.629M133.793 47.2505C133.793 47.2505 420.303 -108.174 675.292 166.406C930.281 440.986 1116.79 249.309 1294.56 244.388C1472.33 239.467 1589 775.06 2007.73 728.553C2426.47 682.046 2635.26 1192.14 2866.49 603.135M136.855 45.0354C136.855 45.0354 418.311 -108.652 671.788 163.457C925.265 435.566 1105.87 250.9 1282.35 246.091C1458.83 241.282 1579.37 776.541 2001.54 724.535C2423.7 672.529 2628.36 1210.29 2864.46 609.814M139.217 42.2303C139.217 42.2303 415.729 -108.43 666.993 160.618C918.257 429.666 1094.25 251.902 1268.15 247.316C1442.04 242.729 1567.16 778.244 1993.94 719.336C2420.72 660.429 2620.05 1227.27 2860.92 614.022M2957.09 575.163C2957.09 575.163 2779.63 545.588 2552.32 556.731C2325.01 567.875 2294.75 784.452 2095.2 892.057C1896.35 1000.25 1787.23 477.014 1598.51 490.684C1409.78 504.354 1260.35 1023.22 926.343 1087.13C592.34 1151.05 520.206 885.418 520.206 885.418M2957.57 573.17C2957.57 573.17 2777.16 547.102 2553.13 558.613C2329.1 570.123 2295.6 779.176 2099.81 885.155C1904.02 991.135 1795.42 481.511 1608.69 495.659C1421.95 509.808 1271.63 1018.34 936.12 1079.79C600.605 1141.23 525.481 886.264 520.316 886.709M2958.75 571.768C2958.75 571.768 2775.98 548.505 2553.35 561.195C2330.73 573.885 2297.15 774.49 2103.83 878.955C1910.4 982.13 1803.61 486.008 1617.69 502.037C1431.76 518.067 1281.04 1014.28 944.716 1073.84C608.39 1133.41 530.165 887.811 520.537 889.292M2959.94 570.365C2959.94 570.365 2774.21 550.608 2554.16 563.076C2334.12 575.544 2298.7 769.803 2107.75 871.464C1916.79 973.125 1811.69 489.214 1627.17 506.423C1442.65 523.633 1291.52 1007.52 953.903 1067.2C616.286 1126.87 534.26 890.06 519.467 891.986M2960.42 568.373C2960.42 568.373 2772.32 551.421 2554.27 564.367C2336.22 577.314 2300.14 763.826 2111.66 863.973C1923.76 963.419 1819.76 492.419 1636.05 511.51C1452.35 530.6 1301.52 1002.76 962.389 1059.96C623.26 1117.17 538.944 891.607 518.286 893.388M2961.6 566.97C2961.6 566.97 2770.55 553.525 2555.79 566.838C2341.02 580.152 2302.39 759.73 2116.97 857.662C1931.55 955.594 1829.35 498.096 1646.94 517.075C1464.52 536.055 1312.81 997.883 972.867 1053.21C632.927 1108.53 544.329 893.744 519.798 895.859M2962.08 564.978C2962.08 564.978 2768.67 554.337 2555.31 568.831C2341.94 583.325 2302.65 755.155 2120.29 850.872C1937.93 946.589 1836.84 502.003 1655.82 522.162C1474.81 542.321 1322.1 992.529 981.353 1045.97C640.602 1099.41 548.313 894.701 518.617 897.262M2963.26 563.575C2963.26 563.575 2766.2 555.851 2556.12 570.712C2346.03 585.573 2304.09 749.178 2124.79 842.679C1945.5 936.181 1845.51 504.508 1665.3 526.548C1485.1 548.588 1331.99 986.474 989.839 1038.74C647.686 1091 552.297 895.659 518.137 899.254M2963.15 562.284C2963.15 562.284 2763.73 557.365 2555.64 572.705C2347.54 588.044 2304.35 744.603 2128.12 835.889C1951.88 927.176 1853 508.414 1674.89 532.225C1496.79 556.035 1342.69 982.3 999.726 1032.68C656.762 1083.06 557.682 897.796 518.358 901.836M2964.33 560.882C2964.33 560.882 2761.96 559.469 2556.56 575.877C2351.16 592.285 2306.6 740.507 2132.84 830.279C1959.07 920.052 1862.59 514.091 1684.59 539.193C1506.6 564.294 1352.8 978.827 1009.02 1027.33C665.248 1075.83 561.776 900.044 517.288 904.53M2965.51 559.479C2965.51 559.479 2760.78 560.871 2557.37 577.758C2353.96 594.645 2308.15 735.82 2137.45 823.378C1966.75 910.936 1870.77 518.588 1694.77 544.168C1518.77 569.748 1363.98 972.66 1018.21 1020.68C672.443 1068.7 567.272 903.473 518.209 907.703M2965.99 557.487C2965.99 557.487 2758.3 562.385 2557.48 579.049C2356.65 595.713 2309.59 729.843 2140.66 815.297C1971.73 900.751 1878.15 521.204 1703.55 547.964C1528.95 574.724 1373.86 966.605 1026.59 1012.15C679.307 1057.7 571.145 903.139 516.918 907.814M2967.17 556.084C2967.17 556.084 2757.12 563.788 2557.7 581.632C2358.28 599.476 2310.55 725.858 2144.68 809.097C1978.82 892.336 1886.34 525.701 1712.55 554.342C1538.06 582.393 1383.27 962.542 1035.88 1006.8C688.493 1051.06 575.94 905.977 516.659 912.389M2967.65 554.092C2967.65 554.092 2754.65 565.302 2558.51 583.513C2362.37 601.724 2311.4 720.582 2149.3 802.196C1987.19 883.809 1895.82 530.087 1722.73 559.318C1549.65 588.548 1393.86 957.076 1045.07 1000.15C696.278 1043.23 580.625 907.524 516.179 914.381M2968.83 552.689C2968.83 552.689 2753.47 566.704 2559.32 585.394C2365.17 604.084 2313.54 715.194 2153.21 794.704C1992.87 874.214 1903.31 533.993 1731.62 564.404C1559.94 594.815 1403.86 952.312 1053.55 992.92C703.252 1033.53 585.309 909.072 514.998 915.784M2969.31 550.697C2969.31 550.697 2750.3 567.628 2558.84 587.386C2367.39 607.145 2313.8 710.62 2156.53 787.914C1999.26 865.209 1910.79 537.9 1740.51 569.491C1570.23 601.082 1413.15 946.958 1062.04 985.685C710.927 1024.41 588.703 910.73 514.518 917.776M2970.49 549.294C2970.49 549.294 2749.12 569.03 2559.65 589.268C2370.19 609.505 2315.94 705.232 2161.14 781.013C2006.34 856.794 1919.57 541.696 1750.1 575.168C1580.63 608.64 1423.74 941.493 1071.93 979.629C720.114 1017.77 594.088 912.867 514.739 920.359M2970.97 547.302C2970.97 547.302 2746.65 570.544 2560.46 591.149C2373.58 611.163 2317.49 700.546 2165.75 774.112C2014.02 847.678 1928.35 545.492 1760.28 580.143C1591.51 614.205 1435.03 936.617 1081.11 972.984C727.198 1009.35 598.773 914.414 514.96 922.941M2971.56 546.601C2971.56 546.601 2744.87 572.648 2560.1 594.432C2375.91 615.515 2318.45 696.561 2168.49 768.023C2019.81 839.374 1935.36 551.391 1768.58 585.932C1601.21 621.173 1443.74 931.964 1089.01 966.45C734.283 1000.94 602.166 916.073 513.189 925.045M2972.74 545.198C2972.74 545.198 2743.1 574.752 2560.91 596.313C2378.71 617.875 2319.3 691.285 2173.1 761.122C2026.89 830.959 1944.14 555.187 1778.17 591.608C1612.2 628.03 1453.74 927.2 1098.2 959.805C742.658 992.409 607.551 918.21 512.709 927.037M2973.22 543.205C2973.22 543.205 2741.22 575.564 2561.02 597.605C2380.81 619.645 2320.15 686.009 2177.01 753.63C2033.87 821.252 1952.22 558.392 1787.65 595.994C1623.08 633.595 1464.32 921.735 1106.68 952.569C749.042 983.404 610.945 919.868 512.229 929.03M2974.4 541.803C2974.4 541.803 2739.45 577.668 2561.24 600.187C2383.02 622.706 2321.7 681.323 2181.03 747.431C2040.36 813.539 1960.4 562.89 1796.65 602.372C1633.48 641.153 1473.73 917.672 1115.98 947.215C758.229 976.759 615.74 922.707 511.859 932.313M2974.88 539.81C2974.88 539.81 2737.57 578.481 2562.05 602.068C2386.53 625.656 2323.25 676.636 2184.94 739.939C2046.64 803.242 1968.59 567.386 1806.13 606.758C1643.07 646.83 1483.62 911.617 1125.06 939.279C766.494 966.941 620.314 922.963 511.97 933.605M2976.06 538.408C2976.06 538.408 2735.8 580.585 2562.86 603.949C2389.92 627.314 2325.39 671.249 2189.56 733.038C2053.72 794.827 1977.37 571.182 1815.72 612.434C1654.06 653.687 1494.91 906.741 1133.65 933.335C772.397 959.929 624.408 925.211 510.899 936.298M2976.54 536.415C2976.54 536.415 2733.22 580.807 2562.38 605.942C2392.13 630.375 2325.65 666.674 2193.47 725.547C2061.28 784.42 1985.45 574.388 1825.2 616.82C1664.94 659.252 1504.8 900.686 1142.73 925.399C780.662 950.111 629.683 926.057 510.309 937M2977.72 535.013C2977.72 535.013 2731.45 582.911 2563.19 607.823C2394.94 632.735 2327.09 660.697 2198.08 718.646C2069.07 776.594 1994.23 578.183 1835.38 621.796C1676.53 665.408 1515.38 895.22 1153.21 918.642C791.03 942.063 635.658 927.493 511.821 939.471M2978.9 533.61C2978.9 533.61 2730.26 584.314 2564.7 610.294C2398.44 635.685 2329.34 656.6 2202.69 711.744C2076.04 766.888 2003.01 581.979 1844.97 627.472C1687.52 672.265 1526.08 891.046 1162.39 911.996C798.705 932.947 639.753 929.742 511.341 941.463M2979.38 531.618C2979.38 531.618 2727.79 585.827 2564.22 612.287C2400.65 638.746 2330.19 651.324 2206.02 704.954C2081.84 758.584 2010.6 587.177 1853.86 632.559C1697.11 677.941 1535.38 885.692 1170.29 905.462C805.199 925.233 643.146 931.4 510.27 944.157M2980.56 530.215C2980.56 530.215 2726.61 587.23 2565.03 614.168C2403.46 641.106 2331.74 646.638 2210.63 698.053C2089.51 749.468 2019.38 590.973 1863.45 638.236C1707.51 685.499 1545.38 880.928 1179.48 898.817C813.574 916.706 647.83 932.947 509.2 946.851M2980.45 528.924C2980.45 528.924 2723.55 589.445 2564.55 616.16C2405.56 642.875 2332.59 641.362 2213.95 691.263C2095.3 741.164 2026.87 594.88 1872.33 643.323C1717.8 691.766 1555.97 875.463 1188.66 892.172C821.359 908.881 653.216 935.085 508.72 948.843M2981.64 527.522C2981.64 527.522 2722.37 590.847 2566.07 618.631C2409.76 646.415 2334.84 637.266 2218.56 684.362C2102.98 732.048 2035.65 598.676 1881.92 649C1728.79 698.623 1565.96 870.698 1197.26 886.228C828.554 901.757 657.31 937.333 508.351 952.127M2982.12 525.529C2982.12 525.529 2719.9 592.361 2565.59 620.624C2411.87 648.185 2335.69 631.99 2221.88 677.572C2108.07 723.154 2043.25 603.874 1890.81 654.087C1738.38 704.299 1575.26 865.344 1205.74 878.993C836.229 892.641 660.703 938.991 507.17 953.529M2983.3 524.127C2983.3 524.127 2718.72 593.764 2566.4 622.505C2414.78 651.836 2336.54 626.713 2226.5 670.671C2115.75 714.038 2052.03 607.669 1900.99 659.062C1749.96 710.455 1586.55 860.469 1215.52 871.646C844.494 882.823 665.978 939.837 507.981 955.41M2984.48 522.724C2984.48 522.724 2716.24 595.278 2567.21 624.386C2417.58 654.196 2338.09 622.027 2230.41 663.179C2122.72 704.331 2060.1 610.875 1909.88 664.149C1759.66 717.423 1595.85 855.115 1224.01 864.411C852.169 873.707 669.962 940.795 506.8 956.813M2984.96 520.732C2984.96 520.732 2714.36 596.09 2567.43 626.968C2420.5 657.847 2339.64 617.341 2234.43 656.979C2129.81 695.916 2068.29 615.372 1920.17 670.416C1772.05 725.46 1606.54 850.941 1234.01 859.647C861.466 868.353 676.158 944.813 507.132 960.686M2986.14 519.329C2986.14 519.329 2712.59 598.194 2568.24 628.85C2423.89 659.505 2341.19 612.655 2239.04 650.078C2136.89 687.501 2077.18 620.459 1929.76 676.093C1782.34 731.726 1617.24 846.766 1243.19 853.001C869.141 859.236 680.843 946.36 507.352 963.269M2986.62 517.337C2986.62 517.337 2710.71 599.007 2568.35 630.141C2425.99 661.275 2342.04 607.379 2242.95 642.587C2143.86 677.795 2085.26 623.665 1939.24 680.478C1793.23 737.292 1627.72 840.01 1252.27 845.065C876.815 850.12 684.826 947.317 506.762 963.97M2987.8 515.934C2987.8 515.934 2708.94 601.11 2568.57 632.723C2428.2 664.336 2342.89 602.102 2246.28 635.797C2149.66 669.491 2092.75 627.572 1947.54 686.266C1802.34 744.961 1637.02 834.656 1260.16 838.531C883.309 842.406 688.22 948.976 505.692 966.664M2988.28 513.942C2988.28 513.942 2707.06 601.923 2569.38 634.604C2431.71 667.286 2344.44 597.416 2250.89 628.895C2157.33 660.374 2101.53 631.367 1957.72 691.242C1813.92 751.116 1647.72 830.482 1270.05 832.476C892.386 834.47 693.605 951.113 505.912 969.246M2988.87 513.24C2988.87 513.24 2704.7 604.728 2569.6 637.187C2434.51 669.645 2345.99 592.73 2254.91 622.695C2163.83 652.661 2109.12 636.565 1967.31 696.919C1825.5 757.272 1657.71 825.717 1279.24 825.83C900.761 825.943 698.99 953.25 505.432 971.239M2989.35 511.248C2989.35 511.248 2702.81 605.541 2569.12 639.179C2435.43 672.818 2346.84 587.454 2258.82 615.204C2170.8 642.954 2117.9 640.361 1976.2 702.005C1834.5 763.65 1667.01 820.363 1287.13 819.296C907.255 818.229 702.384 954.909 504.362 973.932M2990.53 509.846C2990.53 509.846 2700.34 607.054 2569.93 641.06C2439.53 675.066 2348.39 582.768 2262.73 607.713C2177.07 632.658 2125.98 643.567 1985.68 706.391C1845.38 769.215 1677.6 814.898 1296.91 811.95C916.221 809.002 707.068 956.456 504.472 975.224M2991.71 508.443C2991.71 508.443 2699.16 608.457 2571.45 643.532C2443.73 678.606 2350.65 578.672 2268.05 601.402C2185.45 624.132 2135.46 647.952 1995.97 712.658C1856.48 777.363 1688.89 810.023 1306.8 805.895C924.707 801.766 712.454 958.593 505.394 978.396M2992.19 506.451C2992.19 506.451 2696.69 609.971 2570.97 645.524C2444.54 680.487 2350.9 574.097 2271.37 594.612C2191.83 615.127 2142.36 652.561 2004.86 717.745C1867.36 782.929 1698.19 804.669 1315.28 798.659C932.382 792.65 716.437 959.55 503.623 980.5M2993.37 505.048C2993.37 505.048 2695.51 611.373 2571.78 647.405C2448.05 683.437 2352.34 568.119 2275.28 587.12C2198.22 606.122 2151.14 656.356 2013.75 722.832C1876.36 789.307 1708.18 799.904 1323.18 792.125C938.175 784.346 720.532 961.799 502.442 981.902M2993.85 503.056C2993.85 503.056 2693.04 612.887 2571.89 648.696C2450.74 684.505 2353.19 562.843 2279.19 579.629C2205.19 596.415 2159.21 659.562 2023.23 727.217C1887.24 794.872 1718.07 793.849 1332.26 784.189C946.44 774.529 725.106 962.055 501.962 983.895M2995.03 501.653C2995.03 501.653 2691.86 614.29 2572.11 651.279C2452.36 688.268 2354.74 558.157 2283.21 573.429C2211.68 588.701 2167.4 664.059 2032.82 732.894C1898.23 801.729 1728.07 789.085 1341.44 777.544C954.816 766.002 729.79 963.602 501.482 985.887M2995.51 499.661C2995.51 499.661 2689.39 615.803 2572.92 653.16C2456.45 690.516 2356.29 553.471 2287.83 566.528C2219.36 579.585 2176.18 667.855 2042.41 738.571C1908.63 809.287 1738.77 784.911 1350.74 772.189C962.711 759.468 733.995 967.141 501.813 989.761M2996.69 498.258C2996.69 498.258 2688.2 617.206 2573.73 655.041C2459.26 692.876 2358.44 548.084 2291.74 559.037C2225.74 570.58 2184.37 672.351 2051.89 742.956C1919.4 813.561 1748.65 778.855 1359.82 764.253C970.976 749.651 738.569 967.398 501.223 990.462M2997.87 496.856C2997.87 496.856 2686.43 619.31 2573.95 657.623C2462.17 696.527 2359.4 544.099 2295.76 552.837C2232.83 562.165 2192.56 676.848 2060.89 749.334C1929.22 821.82 1758.65 774.091 1368.41 758.309C978.171 742.527 743.364 970.236 500.153 993.156M2997.76 495.564C2997.76 495.564 2683.26 620.234 2573.47 659.616C2464.27 698.297 2359.54 538.233 2299.08 546.047C2238.51 552.57 2200.04 680.755 2069.78 754.421C1939.51 828.087 1768.65 769.327 1376.31 751.775C983.965 734.223 746.757 971.894 499.082 995.85M2998.94 494.162C2998.94 494.162 2681.49 622.337 2574.98 662.087C2467.78 701.246 2361.8 534.136 2303.69 539.145C2245.59 544.155 2208.82 684.551 2079.96 759.397C1951.09 834.243 1779.24 763.862 1386.79 745.019C994.332 726.175 752.733 973.33 499.893 997.731M3112.38 474.626C3112.38 474.626 2707.15 344.372 2273.84 615.861C1840.52 887.349 1593.58 600.369 1365.75 597.899C1137.93 595.429 1040.14 912.131 752.747 1079.99C465.349 1247.85 361.465 755.375 361.465 755.375M3110.28 472.857C3110.28 472.857 2709.84 345.441 2279.59 614.714C1849.34 883.988 1603.21 598.889 1377.37 596.897C1150.84 594.316 1049.88 911.941 760.863 1076.04C471.843 1240.13 363.529 764.302 362.977 757.846M3108.88 471.677C3108.88 471.677 2713.24 347.1 2284.75 614.269C1856.27 881.439 1612.94 598.7 1388.4 596.597C1163.86 594.494 1058.33 911.863 768.389 1072.79C478.448 1233.71 364.413 774.631 363.198 760.428M3106.88 471.198C3106.88 471.198 2716.04 349.459 2290.62 614.414C1865.2 879.368 1623.38 599.1 1400.13 596.886C1176.88 594.672 1068.77 912.264 775.915 1069.54C483.06 1226.81 365.185 783.67 364.12 763.6M3104.78 469.428C3104.78 469.428 2718.73 350.528 2295.78 613.969C1872.84 877.409 1633.12 598.911 1410.57 597.287C1188.02 595.663 1076.63 912.887 783.441 1066.29C490.255 1219.68 366.659 793.298 364.341 766.183M3103.38 468.248C3103.38 468.248 2722.12 352.186 2300.95 613.523C1879.77 874.86 1642.86 598.722 1422.3 597.576C1201.75 596.431 1085.78 913.399 791.668 1063.63C497.56 1213.85 368.833 803.517 365.963 769.945M3101.98 467.068C3101.98 467.068 2725.52 353.845 2307.4 612.967C1889.29 872.088 1653.89 598.421 1434.62 597.164C1215.36 595.907 1096.22 913.8 800.485 1060.26C504.755 1206.73 371.007 813.735 367.475 772.416M3100.58 465.888C3100.58 465.888 2728.91 355.503 2313.27 613.111C1897.63 870.719 1664.33 598.822 1446.36 597.454C1228.38 596.085 1105.95 913.611 808.011 1057.01C510.068 1200.42 371.78 822.773 368.396 775.589M3098.47 464.119C3098.47 464.119 2732.19 355.871 2318.32 611.375C1904.45 866.879 1673.26 596.751 1457.27 595.862C1241.29 594.972 1114.99 912.831 815.426 1052.47C515.861 1192.11 373.143 831.11 369.207 777.47M3096.48 463.64C3096.48 463.64 2735 358.23 2323.6 612.221C1912.2 866.211 1683.11 597.853 1468.41 596.852C1253.72 595.852 1123.55 914.045 823.063 1050.51C522.576 1186.98 374.137 842.731 369.539 781.343M3095.08 462.46C3095.08 462.46 2738.39 359.889 2330.05 611.664C1921.72 863.44 1694.14 597.553 1480.85 597.732C1267.56 597.911 1134.69 915.036 832.581 1047.74C530.472 1180.45 376.2 851.658 371.05 783.815M3092.98 460.69C3092.98 460.69 2741.08 360.958 2334.52 610.629C1927.95 860.301 1703.17 596.773 1491.17 596.841C1279.18 596.909 1142.44 914.367 838.705 1043.31C534.974 1172.25 377.674 861.287 371.972 786.987M3091.58 459.51C3091.58 459.51 2744.48 362.616 2340.38 610.774C1936.29 858.931 1713.61 597.174 1502.91 597.131C1292.2 597.087 1151.58 914.879 846.932 1040.65C542.279 1166.42 379.147 870.915 372.894 790.159M3090.18 458.331C3090.18 458.331 2747.87 364.274 2346.84 610.217C1945.81 856.16 1724.64 596.874 1515.23 596.719C1305.81 596.564 1162.61 914.579 855.749 1037.29C548.884 1160 380.621 880.543 374.405 792.63M3088.77 457.151C3088.77 457.151 2751.26 365.933 2352 609.772C1952.74 853.611 1733.68 596.094 1525.67 597.119C1317.65 598.144 1170.47 915.202 861.984 1034.15C553.496 1153.1 380.803 890.283 374.036 795.914M3086.08 456.082C3086.08 456.082 2753.37 367.703 2357.17 609.327C1960.97 850.95 1743.42 595.905 1537.4 597.409C1331.37 598.912 1180.32 916.304 870.211 1031.49C560.101 1146.68 382.977 900.501 374.957 799.086M3084.68 454.902C3084.68 454.902 2756.76 369.361 2363.03 609.471C1969.31 849.581 1753.86 596.306 1549.13 597.698C1344.39 599.09 1189.47 916.816 878.437 1028.83C567.406 1140.84 385.152 910.72 376.58 802.848M3083.28 453.722C3083.28 453.722 2760.15 371.02 2368.2 609.026C1976.24 847.032 1763.6 596.117 1560.16 597.397C1356.72 598.678 1199.21 916.627 886.553 1024.88C573.9 1133.13 385.924 919.758 377.391 804.73M3081.18 451.953C3081.18 451.953 2762.85 372.089 2373.95 607.88C1985.06 843.671 1773.93 595.226 1571.78 596.396C1369.63 597.565 1208.25 915.847 893.969 1020.34C579.693 1124.82 387.398 929.386 378.903 807.201M3079.78 450.773C3079.78 450.773 2766.24 373.747 2379.82 608.024C1993.4 842.301 1784.37 595.627 1583.51 596.685C1382.65 597.743 1217.39 916.36 902.196 1017.68C586.998 1118.99 389.462 938.314 379.123 809.783M3078.37 449.593C3078.37 449.593 2769.63 375.406 2385.57 606.878C2001.51 838.35 1794.69 594.736 1595.83 596.273C1396.96 597.81 1228.42 916.059 911.013 1014.31C593.603 1112.57 390.935 947.942 381.336 812.844M3076.27 447.823C3076.27 447.823 2772.92 375.773 2390.74 606.432C2008.56 837.092 1804.43 594.547 1606.27 596.674C1408.1 598.801 1236.28 916.682 917.949 1011.77C599.617 1106.85 391.819 958.271 380.967 816.128M3074.28 447.344C3074.28 447.344 2775.72 378.133 2396.01 607.278C2016.31 836.424 1813.58 595.059 1617.41 597.664C1421.23 600.27 1245.54 918.486 924.884 1009.22C604.229 1099.95 392.701 968.601 381.298 820.002M3072.88 446.164C3072.88 446.164 2779.11 379.791 2401.77 606.132C2024.42 832.472 1823.91 594.168 1629.03 596.663C1434.14 599.157 1255.17 917.005 933.591 1004.56C612.014 1092.12 394.765 977.528 383.4 821.771M3071.48 444.984C3071.48 444.984 2782.51 381.45 2407.63 606.276C2032.76 831.103 1834.35 594.569 1640.76 596.952C1447.17 599.335 1265.02 918.107 941.817 1001.9C618.619 1085.7 396.239 987.157 384.322 824.944M3069.37 443.215C3069.37 443.215 2785.2 382.518 2413.39 605.13C2041.58 827.742 1844.68 593.679 1652.38 595.95C1460.08 598.222 1274.05 917.328 949.934 997.952C625.814 1078.58 397.712 996.785 385.833 827.415M3067.97 442.035C3067.97 442.035 2788.59 384.177 2418.55 604.685C2048.51 825.193 1854.42 593.489 1663.52 596.941C1472.62 600.392 1283.31 919.131 956.87 995.402C630.426 1071.67 399.186 1006.41 385.464 830.698M3066.57 440.855C3066.57 440.855 2791.98 385.835 2425.01 604.128C2058.03 822.421 1865.45 593.189 1675.84 596.529C1486.23 599.869 1293.64 918.24 965.687 992.041C637.731 1065.84 400.659 1016.04 386.976 833.17M3063.88 439.786C3063.88 439.786 2794.09 387.605 2429.58 604.384C2065.08 821.163 1874.6 593.701 1686.28 596.929C1497.96 600.158 1301.5 918.864 972.622 989.492C643.745 1060.12 401.543 1026.37 387.307 837.043M3062.48 438.606C3062.48 438.606 2797.48 389.263 2434.75 603.939C2072.01 818.614 1883.63 592.921 1697.31 596.629C1510.98 600.336 1310.65 919.376 980.148 986.242C649.649 1053.11 403.606 1035.3 389.409 838.813M3061.08 437.427C3061.08 437.427 2800.87 390.922 2441.2 603.382C2081.53 815.842 1894.66 592.621 1709.63 596.217C1524.6 599.813 1320.98 918.485 988.855 981.589C656.734 1044.69 404.969 1043.64 389.63 841.395M3059.67 436.247C3059.67 436.247 2804.27 392.581 2447.07 603.527C2089.87 814.473 1905.1 593.022 1722.06 597.096C1539.02 601.171 1331.53 920.177 997.782 979.518C664.039 1038.86 407.254 1055.15 391.953 845.748M3057.57 434.477C3057.57 434.477 2806.96 393.649 2452.12 601.79C2096.69 810.633 1914.73 591.541 1732.39 596.206C1550.64 600.169 1339.27 919.509 1004.61 975.678C669.942 1031.85 408.027 1064.18 392.174 848.33M3056.17 433.297C3056.17 433.297 2810.35 395.308 2457.99 601.935C2105.62 808.563 1924.58 592.643 1744.12 596.495C1563.66 600.347 1349.71 919.91 1012.83 973.018C675.957 1026.13 410.201 1074.4 393.686 850.801M3054.18 432.818C3054.18 432.818 2813.16 397.667 2463.26 602.781C2113.37 807.895 1934.43 593.745 1755.26 597.486C1576.09 601.227 1358.27 921.123 1019.77 970.469C681.27 1019.81 409.793 1084.84 393.316 854.085M3052.08 431.048C3052.08 431.048 2816.44 398.035 2468.32 601.045C2120.19 804.054 1944.06 592.264 1766.18 595.894C1588.41 600.815 1366.61 919.754 1027.19 965.927C687.764 1012.1 411.156 1093.18 394.127 855.966M3050.67 429.869C3050.67 429.869 2819.83 399.693 2474.18 601.189C2129.12 801.984 1953.8 592.075 1778.61 596.773C1603.43 601.471 1377.16 921.446 1036.7 963.155C696.25 1004.86 414.621 1103.29 396.34 859.027M3049.27 428.689C3049.27 428.689 2823.23 401.352 2480.64 600.633C2138.05 799.914 1964.83 591.775 1790.34 597.063C1615.86 602.351 1386.9 921.257 1044.93 960.495C702.964 999.734 416.095 1112.92 397.962 862.789M3047.87 427.509C3047.87 427.509 2826.62 403.01 2485.8 600.187C2144.98 797.364 1974.56 591.585 1801.37 596.762C1628.18 601.939 1396.04 921.768 1051.76 956.655C707.467 991.541 416.277 1122.65 397.482 864.782M3045.77 425.739C3045.77 425.739 2829.31 404.079 2491.56 599.041C2153.8 794.003 1984.89 590.695 1812.99 595.76C1641.09 600.825 1405.08 920.989 1059.87 952.703C714.662 984.417 418.341 1131.58 398.994 867.253M3043.78 425.26C3043.78 425.26 2832.12 406.439 2496.83 599.887C2161.55 793.335 1994.74 591.797 1824.13 596.751C1654.22 602.295 1414.93 922.091 1067.51 950.744C720.085 979.397 419.925 1142.5 399.325 871.126M3042.38 424.08C3042.38 424.08 2835.51 408.097 2501.99 599.442C2168.48 790.786 2004.48 591.607 1835.86 597.04C1666.65 603.174 1424.08 922.603 1075.03 947.494C725.989 972.384 420.107 1152.24 400.247 874.299M3040.27 422.311C3040.27 422.311 2838.2 409.166 2507.75 598.295C2177.3 787.424 2014.81 590.717 1847.48 596.038C1680.15 601.36 1433.12 921.824 1083.15 943.542C733.184 965.26 422.171 1161.17 401.759 876.77M3038.87 421.131C3038.87 421.131 2841.59 410.824 2513.61 598.44C2185.64 786.055 2024.55 590.528 1858.62 597.029C1692.7 603.53 1442.97 922.926 1091.38 940.882C739.788 958.838 424.345 1171.39 402.68 879.942M3037.47 419.951C3037.47 419.951 2844.99 412.483 2519.37 597.293C2193.75 782.104 2034.88 589.637 1870.24 596.027C1705.61 602.417 1452 922.147 1099.49 936.93C746.983 951.714 425.708 1179.72 404.192 882.413M3035.37 418.181C3035.37 418.181 2847.68 413.551 2524.53 596.848C2201.39 780.145 2044.62 589.448 1881.27 595.726C1717.93 602.005 1461.15 922.659 1106.32 933.09C751.485 943.521 425.891 1189.46 403.712 884.406M3033.97 417.001C3033.97 417.001 2851.07 415.21 2530.4 596.993C2209.73 778.775 2055.05 589.848 1893.7 596.606C1732.35 603.363 1471 923.761 1115.25 931.019C759.491 938.278 428.766 1200.27 406.035 888.758M3031.97 416.523C3031.97 416.523 2853.88 417.57 2535.56 596.547C2217.25 775.525 2064.79 589.659 1904.73 596.305C1744.08 603.652 1480.74 923.571 1122.77 927.769C764.804 931.967 429.539 1209.31 406.256 891.34M3030.57 415.343C3030.57 415.343 2857.86 418.527 2541.43 596.692C2225.59 774.156 2075.23 590.06 1915.87 597.296C1756.51 604.532 1489.3 924.785 1130.41 925.81C771.519 926.836 430.532 1220.93 407.288 895.804M3028.47 413.573C3028.47 413.573 2860.55 419.595 2547.18 595.546C2233.81 771.496 2085.56 589.169 1927.49 596.294C1770.12 604.008 1498.34 924.005 1138.41 920.567C778.493 917.129 432.486 1228.57 407.989 896.394M3027.07 412.393C3027.07 412.393 2863.95 421.254 2552.35 595.1C2240.75 768.946 2095.3 588.98 1939.22 596.583C1783.15 604.186 1508.77 924.406 1146.64 917.907C784.507 911.408 434.66 1238.79 409.611 900.156M3025.67 411.213C3025.67 411.213 2867.34 422.913 2558.8 594.544C2250.27 766.175 2105.63 588.09 1950.84 595.581C1796.06 603.073 1517.81 923.627 1154.76 913.956C791.702 904.284 436.023 1247.12 410.422 902.037" stroke="url(#paint0_linear_309_23450)" stroke-width="0.2569" stroke-miterlimit="10"/>
<defs>
<linearGradient id="paint0_linear_309_23450" x1="3044.36" y1="279.248" x2="558.065" y2="-94.5206" gradientUnits="userSpaceOnUse">
<stop stop-color="#11E9EF"/>
<stop offset="0.1486" stop-color="#4B1DC3"/>
<stop offset="0.3757" stop-color="#FF97B2"/>
<stop offset="0.5378" stop-color="#4319B3"/>
<stop offset="0.7054" stop-color="#F737F7"/>
<stop offset="1" stop-color="#3A14A3"/>
</linearGradient>
</defs>
</svg>
