<svg width="32" height="32" viewBox="0 0 32 32" fill="none" xmlns="http://www.w3.org/2000/svg">
<path d="M16 15.5C17.1867 15.5 18.3467 15.1481 19.3334 14.4888C20.3201 13.8295 21.0892 12.8925 21.5433 11.7961C21.9974 10.6997 22.1162 9.49335 21.8847 8.32946C21.6532 7.16558 21.0818 6.09648 20.2426 5.25736C19.4035 4.41825 18.3344 3.8468 17.1705 3.61529C16.0067 3.38378 14.8003 3.5026 13.7039 3.95673C12.6075 4.41085 11.6705 5.17989 11.0112 6.16658C10.3519 7.15328 10 8.31331 10 9.5C10.0016 11.0908 10.6342 12.616 11.7591 13.7409C12.884 14.8658 14.4092 15.4984 16 15.5ZM16 5.5C16.7911 5.5 17.5645 5.7346 18.2223 6.17412C18.8801 6.61365 19.3928 7.23836 19.6955 7.96927C19.9983 8.70017 20.0775 9.50444 19.9231 10.2804C19.7688 11.0563 19.3878 11.769 18.8284 12.3284C18.269 12.8878 17.5563 13.2688 16.7804 13.4231C16.0044 13.5775 15.2002 13.4983 14.4693 13.1955C13.7384 12.8928 13.1136 12.3801 12.6741 11.7223C12.2346 11.0645 12 10.2911 12 9.5C12 8.43914 12.4214 7.42172 13.1716 6.67158C13.9217 5.92143 14.9391 5.5 16 5.5Z" fill="white"/>
<path d="M16 16.5C8.1 16.5 3 20.818 3 27.5C3 27.7652 3.10536 28.0196 3.29289 28.2071C3.48043 28.3946 3.73478 28.5 4 28.5H28C28.2652 28.5 28.5196 28.3946 28.7071 28.2071C28.8946 28.0196 29 27.7652 29 27.5C29 20.818 23.9 16.5 16 16.5ZM5.045 26.5C5.589 20.625 10.958 18.5 16 18.5C21.042 18.5 26.411 20.625 26.955 26.5H5.045Z" fill="white"/>
</svg>
