<svg width="122" height="118" viewBox="0 0 122 118" fill="none" xmlns="http://www.w3.org/2000/svg">
<path fill-rule="evenodd" clip-rule="evenodd" d="M22.4096 82.3962C22.4096 82.3962 22.4095 82.3963 22.5404 82.4697C22.6118 82.6016 22.6119 82.6016 22.6119 82.6016L22.6192 82.5976L22.6417 82.5855L22.7302 82.5382C22.8081 82.4967 22.923 82.436 23.0708 82.3588C23.3663 82.2044 23.7931 81.9845 24.3182 81.7225C25.3684 81.1985 26.8107 80.5067 28.3796 79.8349C29.949 79.1628 31.6421 78.5121 33.1946 78.0693C34.7528 77.6248 36.1483 77.3961 37.132 77.5499L37.1784 77.2535C36.1258 77.089 34.6762 77.3347 33.1123 77.7808C31.5427 78.2285 29.8367 78.8846 28.2615 79.5591C26.6857 80.2339 25.2379 80.9284 24.1843 81.4541C23.6573 81.717 23.2288 81.9378 22.9319 82.0929C22.9251 82.0964 22.9183 82.0999 22.9117 82.1034C22.9567 82.0199 23.0075 81.9253 23.0632 81.8204C23.3075 81.3614 23.6488 80.7059 24.0372 79.9196C24.8137 78.3475 25.7798 76.2499 26.5354 74.1525C27.289 72.0603 27.8406 69.9487 27.772 68.356C27.7377 67.5586 27.5473 66.871 27.1283 66.3832C26.7046 65.8901 26.0673 65.6243 25.1921 65.6328L25.195 65.9328C26.0047 65.9249 26.5481 66.1683 26.9007 66.5787C27.258 66.9946 27.4394 67.6049 27.4723 68.3689C27.5381 69.8989 27.0052 71.9631 26.2531 74.0508C25.5029 76.1333 24.5422 78.2197 23.7682 79.7867C23.3813 80.5699 23.0415 81.2227 22.7984 81.6795C22.6768 81.9079 22.5795 82.0873 22.5126 82.2096C22.4792 82.2707 22.4534 82.3175 22.4359 82.3489L22.4161 82.3845L22.4096 82.3962ZM22.5404 82.4697L22.6119 82.6016L22.1562 82.8481L22.4096 82.3962L22.5404 82.4697Z" fill="white"/>
<path fill-rule="evenodd" clip-rule="evenodd" d="M60.803 46.1122C47.9195 53.0561 36.4216 62.8131 29.4707 74.0643L29.7259 74.2219C36.6422 63.0267 48.095 53.3023 60.9453 46.3763C73.7957 39.4504 88.0299 35.3303 100.5 35.3303V35.0303C87.9694 35.0303 73.6865 39.1684 60.803 46.1122Z" fill="white"/>
</svg>
