<svg width="26" height="26" viewBox="0 0 26 26" fill="none" xmlns="http://www.w3.org/2000/svg">
<path d="M10.3955 0.204962C6.94166 0.995432 4.11064 2.95998 2.1629 5.93587C-1.24565 11.1785 -0.566204 18.2114 3.78224 22.6985C5.08451 24.0469 7.06622 25.3489 8.561 25.8487C9.11588 26.0347 9.18383 26.0347 9.43296 25.8604C9.70473 25.6744 9.71606 25.6279 9.71606 24.2911V22.9194L8.71954 22.9775C7.55316 23.0356 6.64723 22.8264 6.10368 22.3498C5.91117 22.187 5.53747 21.629 5.27702 21.1175C4.84671 20.2573 4.52963 19.8621 3.64635 19.06C3.35193 18.7926 3.3406 18.781 3.54444 18.6299C4.03137 18.2579 5.01657 18.6183 5.63939 19.3855C6.7265 20.7456 7.14549 21.1059 7.76832 21.2454C8.3232 21.3617 8.83278 21.3152 9.60282 21.0827C9.70473 21.0478 9.84062 20.8037 9.90857 20.5247C9.97651 20.2573 10.1577 19.8505 10.3049 19.6296L10.5767 19.2227L9.65944 19.0368C7.73434 18.6299 6.54532 17.9208 5.76396 16.7118C5.03921 15.5959 4.80141 14.631 4.79008 12.8292C4.79008 11.132 4.97127 10.4346 5.68469 9.48136C6.00176 9.06288 6.03573 8.93501 5.94514 8.69089C5.77528 8.27241 5.82058 6.50547 6.00176 5.97074C6.14897 5.57551 6.22824 5.50576 6.53399 5.47089C7.04358 5.41277 7.9948 5.74988 8.95735 6.30786L9.784 6.79609L10.5087 6.62172C11.5392 6.3776 14.6307 6.38923 15.5593 6.62172L16.2614 6.80771L16.9182 6.40085C17.7901 5.86612 18.8999 5.44764 19.4548 5.44764C19.8964 5.44764 19.8964 5.45926 20.0776 6.05212C20.2701 6.73796 20.3041 7.98179 20.1342 8.57465C20.0436 8.92338 20.0663 9.028 20.3154 9.36512C21.5497 11.0391 21.6856 13.8173 20.6438 16.0957C19.9417 17.5953 18.4582 18.6415 16.4652 19.0251L15.514 19.2111L15.865 19.8505L16.2274 20.5014L16.2614 23.0937L16.3067 25.686L16.5898 25.872C16.8502 26.0464 16.9068 26.0464 17.4504 25.8487C18.3563 25.5349 19.9077 24.6747 20.757 24.0121C25.8076 20.1295 27.4382 13.1663 24.6412 7.37732C22.9992 3.97132 19.8964 1.35579 16.3406 0.37933C14.7892 -0.0391541 11.8676 -0.132151 10.3955 0.204962Z" fill="white"/>
</svg>
