<svg width="26" height="26" viewBox="0 0 26 26" fill="none" xmlns="http://www.w3.org/2000/svg">
<g clip-path="url(#clip0_21_513)">
<path d="M4.60417 0H21.3958C23.9417 0 26 2.11111 26 4.72222V21.2778C26 23.8889 23.9417 26 21.3958 26H4.60417C2.05833 26 0 23.8889 0 21.2778V4.72222C0 2.11111 2.05833 0 4.60417 0Z" fill="#470137"/>
<path d="M13.6718 6.83329L10.4218 12.3333L13.8885 18.1666C13.9102 18.2111 13.921 18.2555 13.9102 18.3C13.8993 18.3444 13.856 18.3111 13.791 18.3222H11.3102C11.1368 18.3222 11.0177 18.3111 10.9418 18.2C10.7143 17.7333 10.476 17.2777 10.2485 16.8111C10.021 16.3555 9.77185 15.8888 9.51185 15.4111C9.25185 14.9333 8.99185 14.4555 8.73185 13.9666H8.71018C8.48268 14.4444 8.23351 14.9222 7.98435 15.4C7.73518 15.8777 7.48601 16.3555 7.24768 16.8222C6.99851 17.2888 6.74935 17.7666 6.50018 18.2222C6.45685 18.3333 6.37018 18.3444 6.25101 18.3444H3.86768C3.82435 18.3444 3.79185 18.3666 3.79185 18.3111C3.78101 18.2666 3.79185 18.2222 3.81351 18.1888L7.18268 12.5222L3.90018 6.82218C3.86768 6.77774 3.85685 6.73329 3.87851 6.71107C3.90018 6.67774 3.94351 6.66663 3.98685 6.66663H6.44601C6.50018 6.66663 6.55435 6.67774 6.59768 6.68885C6.64101 6.71107 6.67351 6.7444 6.70601 6.78885C6.91185 7.26663 7.15018 7.7444 7.39935 8.22218C7.65935 8.69996 7.90851 9.16663 8.17935 9.63329C8.43935 10.1 8.67768 10.5666 8.90518 11.0444H8.92685C9.15435 10.5555 9.39268 10.0777 9.63101 9.61107C9.86935 9.1444 10.1185 8.67774 10.3677 8.21107C10.6168 7.7444 10.8552 7.26663 11.0935 6.81107C11.1043 6.76663 11.126 6.72218 11.1585 6.69996C11.2018 6.67774 11.2452 6.66663 11.2993 6.67774H13.5852C13.6393 6.66663 13.6935 6.69996 13.7043 6.75551C13.7152 6.76663 13.6935 6.81107 13.6718 6.83329Z" fill="#FF61F6"/>
<path d="M18.677 18.5555C17.8753 18.5666 17.0736 18.4 16.3478 18.0555C15.6653 17.7333 15.102 17.2 14.712 16.5444C14.3111 15.8666 14.1161 15.0222 14.1161 14.0111C14.1053 13.1889 14.3111 12.3777 14.712 11.6666C15.1236 10.9444 15.7195 10.3444 16.4345 9.94441C17.1928 9.51108 18.1028 9.29997 19.1753 9.29997C19.2295 9.29997 19.3053 9.29997 19.4028 9.31108C19.5003 9.32219 19.6086 9.32219 19.7386 9.3333V5.82219C19.7386 5.74441 19.7711 5.69997 19.847 5.69997H22.0461C22.1003 5.68886 22.1436 5.7333 22.1545 5.77775C22.1545 5.78886 22.1545 5.79997 22.1545 5.79997V16.3777C22.1545 16.5777 22.1653 16.8 22.1761 17.0444C22.1978 17.2777 22.2086 17.5 22.2195 17.6889C22.2195 17.7666 22.187 17.8333 22.1111 17.8666C21.5478 18.1111 20.952 18.2889 20.3453 18.4C19.7928 18.5 19.2403 18.5555 18.677 18.5555ZM19.7386 16.3333V11.4444C19.6411 11.4222 19.5436 11.4 19.4461 11.3889C19.327 11.3777 19.2078 11.3666 19.0886 11.3666C18.6661 11.3666 18.2436 11.4555 17.8645 11.6555C17.4961 11.8444 17.182 12.1222 16.9436 12.4777C16.7053 12.8333 16.5861 13.3111 16.5861 13.8889C16.5753 14.2777 16.6403 14.6666 16.7703 15.0333C16.8786 15.3333 17.0411 15.6 17.2578 15.8222C17.4636 16.0222 17.7128 16.1777 17.9945 16.2666C18.287 16.3666 18.5903 16.4111 18.8936 16.4111C19.0561 16.4111 19.2078 16.4 19.3486 16.3889C19.4895 16.4 19.6086 16.3777 19.7386 16.3333Z" fill="#FF61F6"/>
</g>
<defs>
<clipPath id="clip0_21_513">
<rect width="26" height="26" fill="white"/>
</clipPath>
</defs>
</svg>
