<svg width="26" height="26" viewBox="0 0 26 26" fill="none" xmlns="http://www.w3.org/2000/svg">
<path d="M5.54247 23.7646L3.88721 5.19141H22.0837L20.4256 23.7618L12.974 25.828L5.54247 23.7646Z" fill="#E44D26"/>
<path d="M12.9854 24.2498L19.0071 22.5803L20.4226 6.70972H12.9854V24.2498Z" fill="#F16529"/>
<path d="M12.9855 13.599H9.97177L9.76343 11.2645H12.9855V8.98706H12.9769H7.27197L7.32905 9.5978L7.88842 15.8764H12.9855V13.599Z" fill="#EBEBEB"/>
<path d="M12.9855 19.5152L12.9769 19.518L10.4398 18.8331L10.2771 17.0151H9.04423H7.98828L8.30792 20.5911L12.9741 21.8868L12.9855 21.8839V19.5152Z" fill="#EBEBEB"/>
<path d="M5.58008 0.142822H6.73791V1.28667H7.79699V0.142822H8.95482V3.60661H7.79699V2.44678H6.73791V3.60661H5.58008V0.142822Z" fill="white"/>
<path d="M10.4766 1.29152H9.45752V0.142822H12.6542V1.29152H11.6345V3.60661H10.4766V1.29152Z" fill="white"/>
<path d="M13.1614 0.142822H14.3686L15.1112 1.35973L15.8529 0.142822H17.0604V3.60661H15.9074V1.8897L15.1109 3.12116H15.0909L14.2938 1.8897V3.60661H13.1611L13.1614 0.142822Z" fill="white"/>
<path d="M17.6367 0.142822H18.7948V2.46162H20.423V3.60661H17.637L17.6367 0.142822Z" fill="white"/>
<path d="M12.9771 13.599V15.8764H15.7824L15.5199 18.8302L12.9771 19.518V21.8867L17.6489 20.5911L17.6831 20.2086L18.2168 14.2097L18.2739 13.599H17.6603H12.9771Z" fill="white"/>
<path d="M12.9771 8.98706V10.4026V11.2588V11.2645H18.4737H18.4794L18.525 10.7536L18.6306 9.5978L18.6849 8.98706H12.9771Z" fill="white"/>
</svg>
