<svg width="26" height="26" viewBox="0 0 26 26" fill="none" xmlns="http://www.w3.org/2000/svg">
<g clip-path="url(#clip0_21_501)">
<path d="M4.60417 0H21.3958C23.9417 0 26 2.11111 26 4.72222V21.2778C26 23.8889 23.9417 26 21.3958 26H4.60417C2.05833 26 0 23.8889 0 21.2778V4.72222C0 2.11111 2.05833 0 4.60417 0Z" fill="#001E36"/>
<path d="M5.8501 18.2333V6.79997C5.8501 6.7222 5.8826 6.67775 5.95843 6.67775C6.1426 6.67775 6.31593 6.67775 6.5651 6.66664C6.8251 6.65553 7.09593 6.65553 7.38843 6.64442C7.68093 6.63331 7.9951 6.63331 8.33093 6.62219C8.66676 6.61108 8.99176 6.61108 9.31676 6.61108C10.2051 6.61108 10.9418 6.72219 11.5484 6.95553C12.0901 7.14442 12.5884 7.45553 13.0001 7.86664C13.3468 8.2222 13.6176 8.65553 13.7909 9.13331C13.9534 9.59997 14.0401 10.0778 14.0401 10.5778C14.0401 11.5333 13.8234 12.3222 13.3901 12.9444C12.9568 13.5666 12.3501 14.0333 11.6459 14.3C10.9093 14.5778 10.0968 14.6778 9.20843 14.6778C8.94843 14.6778 8.7751 14.6778 8.66676 14.6666C8.55843 14.6555 8.40676 14.6555 8.20093 14.6555V18.2222C8.21176 18.3 8.1576 18.3666 8.08176 18.3778C8.07093 18.3778 8.0601 18.3778 8.03843 18.3778H5.9801C5.89343 18.3778 5.8501 18.3333 5.8501 18.2333ZM8.21176 8.8222V12.5555C8.36343 12.5666 8.50426 12.5778 8.63426 12.5778H9.20843C9.63093 12.5778 10.0534 12.5111 10.4543 12.3778C10.8009 12.2778 11.1043 12.0666 11.3426 11.7889C11.5701 11.5111 11.6784 11.1333 11.6784 10.6444C11.6893 10.3 11.6026 9.95553 11.4293 9.65553C11.2451 9.36664 10.9851 9.14442 10.6709 9.02219C10.2701 8.85553 9.83676 8.78886 9.3926 8.79997C9.11093 8.79997 8.86176 8.79997 8.65593 8.81108C8.43926 8.79997 8.2876 8.81108 8.21176 8.8222Z" fill="#31A8FF"/>
<path d="M20.8 11.8778C20.475 11.7 20.1283 11.5778 19.76 11.5C19.3591 11.4111 18.9583 11.3556 18.5466 11.3556C18.33 11.3445 18.1025 11.3778 17.8966 11.4334C17.7558 11.4667 17.6366 11.5445 17.5608 11.6556C17.5066 11.7445 17.4741 11.8556 17.4741 11.9556C17.4741 12.0556 17.5175 12.1556 17.5825 12.2445C17.68 12.3667 17.81 12.4667 17.9508 12.5445C18.2 12.6778 18.46 12.8 18.72 12.9111C19.305 13.1111 19.8683 13.3889 20.3883 13.7223C20.7458 13.9556 21.0383 14.2667 21.2441 14.6445C21.4175 15 21.5041 15.3889 21.4933 15.7889C21.5041 16.3111 21.3525 16.8334 21.0708 17.2667C20.7675 17.7111 20.345 18.0556 19.8575 18.2556C19.3266 18.4889 18.6766 18.6111 17.8966 18.6111C17.3983 18.6111 16.9108 18.5667 16.4233 18.4667C16.0441 18.4 15.665 18.2778 15.3183 18.1111C15.2425 18.0667 15.1883 17.9889 15.1991 17.9V15.9667C15.1991 15.9334 15.21 15.8889 15.2425 15.8667C15.275 15.8445 15.3075 15.8556 15.34 15.8778C15.7625 16.1334 16.2066 16.3111 16.6833 16.4223C17.095 16.5334 17.5283 16.5889 17.9616 16.5889C18.3733 16.5889 18.6658 16.5334 18.8608 16.4334C19.0341 16.3556 19.1533 16.1667 19.1533 15.9667C19.1533 15.8111 19.0666 15.6667 18.8933 15.5223C18.72 15.3778 18.3625 15.2111 17.8316 15C17.2791 14.8 16.77 14.5334 16.2933 14.2C15.9575 13.9556 15.6758 13.6334 15.47 13.2556C15.2966 12.9 15.21 12.5111 15.2208 12.1223C15.2208 11.6445 15.3508 11.1889 15.5891 10.7778C15.86 10.3334 16.2608 9.97781 16.7266 9.75559C17.2358 9.48892 17.875 9.3667 18.6441 9.3667C19.0883 9.3667 19.5433 9.40003 19.9875 9.4667C20.3125 9.51114 20.6266 9.60003 20.9191 9.72225C20.9625 9.73337 21.0058 9.77781 21.0275 9.82225C21.0383 9.8667 21.0491 9.91114 21.0491 9.95559V11.7667C21.0491 11.8111 21.0275 11.8556 20.995 11.8778C20.8975 11.9 20.8433 11.9 20.8 11.8778Z" fill="#31A8FF"/>
</g>
<defs>
<clipPath id="clip0_21_501">
<rect width="26" height="26" fill="white"/>
</clipPath>
</defs>
</svg>
