<svg width="32" height="23" viewBox="0 0 32 23" fill="none" xmlns="http://www.w3.org/2000/svg">
<path d="M10.6451 17.2866C10.4951 16.3079 10.0826 15.5129 9.08139 15.1285C8.68952 14.9785 8.35014 14.7047 7.96389 14.5322C7.52514 14.3353 7.07889 14.1478 6.61577 14.026C6.26514 13.9322 5.93889 14.0897 5.73077 14.3972C5.53389 14.686 5.67639 14.9578 5.84139 15.1997C6.02702 15.4716 6.23327 15.7303 6.44139 15.9853C6.78639 16.4091 7.15202 16.816 7.48764 17.2454C7.80827 17.656 8.08202 18.1116 8.03514 18.6554C7.93202 19.8479 7.39202 20.8361 6.52202 21.6404C6.42639 21.7266 6.25764 21.7885 6.13389 21.7773C5.57889 21.7173 5.07452 21.5073 4.66764 21.1191C4.20077 20.6748 4.27202 20.1516 4.83077 19.8273C4.96389 19.7504 5.10264 19.6791 5.22452 19.5854C5.56577 19.3285 5.68014 18.8898 5.49452 18.5091C5.40639 18.3254 5.30702 18.1266 5.16077 17.9935C4.44639 17.3429 3.74508 16.6716 2.98008 16.0791C1.12564 14.6391 0.173204 12.7341 0.0268913 10.4278C-0.138109 7.86652 0.456266 5.4759 1.80814 3.28771C2.32002 2.45708 2.91627 1.66577 3.83127 1.25521C4.45377 0.975835 5.13627 0.818335 5.80195 0.64396C7.63389 0.162085 9.48258 -0.19979 11.3895 0.12271C13.032 0.398335 14.234 1.24396 14.7852 2.85834C15.1471 3.91396 15.2333 5.00521 15.1208 6.12277C14.8996 8.31846 13.2777 10.2816 11.1626 10.8628C10.2458 11.1141 9.74514 10.9735 9.19389 10.2103C8.79827 9.66096 8.47014 9.06283 8.11577 8.4834C8.06327 8.39715 8.02577 8.29777 7.98077 8.2059C7.93764 8.11402 7.89077 8.0259 7.84577 7.93402C7.97889 8.88652 8.20014 9.80346 8.71952 10.6209C9.00077 11.0653 9.37577 11.3934 9.92514 11.4421C11.9464 11.624 13.6527 10.9603 14.864 9.33459C16.2196 7.51577 16.5178 5.42327 16.1258 3.22015C16.049 2.78515 15.9196 2.35952 15.8277 1.9264C15.7658 1.64702 15.8765 1.44077 16.1521 1.34327C16.2796 1.30015 16.4108 1.26452 16.5383 1.23827C18.1921 0.882022 19.8646 0.763898 21.5503 0.934523C23.4628 1.12577 25.2722 1.65077 26.8903 2.71396C29.4235 4.38084 30.9929 6.75277 31.846 9.62159C31.9698 10.0378 31.9885 10.4935 31.9998 10.9323C32.0073 11.2248 31.8198 11.3016 31.5966 11.1179C31.351 10.9173 31.126 10.6885 30.9141 10.4523C30.7173 10.2291 30.5598 9.97415 30.3685 9.73977C30.2204 9.55602 30.091 9.58415 30.0198 9.8129C29.9748 9.95165 29.9354 10.0885 29.896 10.2273C29.4535 11.806 28.756 13.246 27.6254 14.4592C27.4679 14.6298 27.3273 14.883 27.3085 15.108C27.2598 15.7305 27.2241 16.3661 27.2841 16.9867C27.4079 18.3199 27.601 19.6473 27.751 20.9786C27.8354 21.7305 27.5935 22.173 26.8866 22.4337C26.3898 22.6156 25.8573 22.7487 25.3323 22.7862C24.496 22.8443 23.6523 22.8031 22.8123 22.8031C22.7898 21.8656 22.8704 20.9449 21.9891 20.4424C22.1598 19.7468 22.3566 19.0868 22.4748 18.4118C22.5723 17.8511 22.4898 17.2999 22.096 16.8405C21.7266 16.4074 21.2635 16.2893 20.8397 16.5368C19.5628 17.2811 18.2353 17.2849 16.8834 16.7974C16.2628 16.5724 15.8296 16.6999 15.4865 17.2661C15.1171 17.8755 14.9615 18.5599 15.0027 19.2518C15.0552 20.1237 15.2071 20.9862 15.3233 21.8543C15.3871 22.34 15.3327 22.4656 14.8508 22.5893C13.7802 22.8612 12.6908 22.8912 11.5958 22.8031C11.5376 22.7975 11.4795 22.7731 11.442 22.7637C11.3876 21.8543 11.4833 20.9093 10.3995 20.4255C10.8795 19.4074 10.8139 18.3518 10.6489 17.2961L10.6451 17.2868V17.2866ZM4.17258 13.7185C4.33195 13.5685 4.45945 13.3341 4.50445 13.1185C4.61695 12.5785 4.21195 11.8548 3.7432 11.6541C3.49383 11.5454 3.27633 11.5848 3.10008 11.7835C2.6707 12.2691 2.24695 12.7604 1.82502 13.2536C1.75377 13.338 1.69002 13.4373 1.63939 13.5367C1.47064 13.8611 1.57002 14.0973 1.93002 14.1855C2.14752 14.2398 2.37252 14.2511 2.59564 14.283C3.17689 14.2267 3.73939 14.1292 4.17252 13.7205V13.7186L4.17258 13.7185ZM4.22133 8.32034C4.21945 7.93409 3.89695 7.61159 3.51633 7.60971C3.12445 7.60784 2.78695 7.95846 2.80008 8.34471C2.81695 8.73284 3.13945 9.04409 3.5257 9.03659C3.9157 9.03096 4.22695 8.71221 4.2232 8.32221L4.22133 8.32034Z" fill="#777BB4"/>
</svg>
