<svg width="26" height="26" viewBox="0 0 26 26" fill="none" xmlns="http://www.w3.org/2000/svg">
<path d="M13 1.21875L5.67277 1.99347L0 9.60852L13 24.7469L26 9.60852L20.3273 1.99347L13 1.21875Z" fill="#FDB300"/>
<path d="M0 9.60864L13 24.7469L5.26561 9.60864H0Z" fill="#EB6C00"/>
<path d="M20.7343 9.60864L13 24.7469L25.9999 9.60864H20.7343Z" fill="#EB6C00"/>
<path d="M5.26562 9.60864L13 24.7469L20.7344 9.60864H5.26562Z" fill="#FDAD00"/>
<path d="M5.67279 1.99347L5.26562 9.60852L13 1.21875L5.67279 1.99347Z" fill="#FDD231"/>
<path d="M20.7343 9.60852L20.3272 1.99337L13 1.21875L20.7343 9.60852Z" fill="#FDD231"/>
<path d="M20.7343 9.60856H25.9998L20.3271 1.99341L20.7343 9.60856Z" fill="#FDAD00"/>
<path d="M0 9.60856H5.26561L5.67277 1.99341L0 9.60856Z" fill="#FDAD00"/>
<path d="M13 1.21875L5.26562 9.60852H20.7344L13 1.21875Z" fill="#FEEEB7"/>
</svg>
