<svg width="26" height="26" viewBox="0 0 26 26" fill="none" xmlns="http://www.w3.org/2000/svg">
<g clip-path="url(#clip0_21_548)">
<path d="M4.0074 16.9192L2.64725 17.4161L2.57422 21.4624L7.2826 19.7424C5.66768 19.1999 4.48837 18.2455 4.0074 16.9192Z" fill="#FDBD39"/>
<path d="M4.71927 12.6395L0 14.3635L2.64732 17.4161L4.00747 16.9192C3.52791 15.5968 3.82365 14.1019 4.71927 12.6395Z" fill="#F69833"/>
<path d="M12.6612 6.80087C6.65165 8.99623 2.77732 13.5264 4.00769 16.9192L25.7702 8.9691C24.5399 5.57623 18.6708 4.60549 12.6612 6.80087Z" fill="#FECF33"/>
<path d="M17.1163 19.0874C23.1259 16.892 27.0075 12.3819 25.7699 8.96899L4.00732 16.9191C5.24495 20.3321 11.1068 21.2827 17.1163 19.0874Z" fill="#EE6723"/>
<path d="M25.7699 8.96899L4.00732 16.9191C4.43346 18.0943 6.05851 18.6732 8.33863 18.6732C10.5616 18.6732 13.4071 18.1233 16.3737 17.0396C22.3833 14.8442 26.6115 11.2898 25.7699 8.96899Z" fill="#F69833"/>
<path d="M21.4389 7.21497C19.2159 7.21497 16.3703 7.76484 13.4037 8.84859C7.39415 11.044 3.16602 14.5984 4.00762 16.9192L25.7702 8.96906C25.344 7.79391 23.719 7.21497 21.4389 7.21497Z" fill="#FDBD39"/>
<path d="M20.2371 21.6767H20.2369C19.5966 21.6767 18.652 21.0983 17.4292 19.9577C15.9827 18.6082 14.3256 16.6316 12.7632 14.3922C11.201 12.1528 9.9172 9.91388 9.14847 8.08791C8.31092 6.09807 8.1915 4.87458 8.79352 4.45141C8.92553 4.35872 9.08465 4.31177 9.26643 4.31177C9.75614 4.31177 10.7103 4.67636 12.4747 6.41337L12.5133 6.45133L12.5081 6.50532C12.496 6.6301 12.4849 6.75601 12.475 6.87958L12.4553 7.12496L12.2822 6.95056C10.3811 5.03529 9.54427 4.82851 9.27267 4.82851C9.19522 4.82851 9.13354 4.84426 9.08933 4.87535C8.8282 5.05883 8.81139 5.95752 9.6234 7.88645C10.3784 9.67987 11.6435 11.8849 13.1856 14.0953C14.7278 16.3059 16.3595 18.2532 17.7802 19.5786C19.3122 21.0077 20.0026 21.1621 20.2283 21.1621C20.3063 21.1621 20.3696 21.1453 20.4166 21.1123C20.6921 20.9187 20.6924 19.956 19.7868 17.8798L19.7453 17.7845L19.8363 17.7347C19.9273 17.6849 20.0153 17.6358 20.0978 17.5889L20.2069 17.5269L20.2571 17.6421C20.8992 19.1132 21.4994 20.983 20.7124 21.5362C20.5797 21.6294 20.4198 21.6767 20.2371 21.6767ZM20.2369 21.4498H20.2371L20.237 21.5632L20.2369 21.4498Z" fill="#EE6723"/>
<path d="M17.2626 19.0254L17.2535 19.1384C17.1015 21.0184 16.7015 23.2785 15.6585 23.37C15.6375 23.3719 15.6157 23.3728 15.594 23.3728C14.8854 23.3728 14.215 22.3576 13.6016 20.3553C13.0211 18.4611 12.5707 15.9177 12.3332 13.1939C12.0958 10.4705 12.0994 7.88733 12.3433 5.92018C12.6091 3.77658 13.1152 2.65713 13.8475 2.59287C13.8691 2.59087 13.8915 2.58984 13.9137 2.58984C14.4277 2.58984 15.2024 3.17188 15.9955 5.88288L15.4776 5.98282C15.2128 5.07688 14.9243 4.34005 14.6378 3.83375C14.3728 3.36543 14.1151 3.10753 13.9122 3.10753C13.9056 3.10753 13.8988 3.1078 13.8922 3.10837C13.5748 3.13625 13.1126 3.90612 12.8549 5.9841C12.6154 7.91596 12.6125 10.4604 12.8468 13.1488C13.0812 15.8376 13.5243 18.3429 14.0943 20.2032C14.3496 21.0364 14.6297 21.7231 14.9041 22.189C15.1572 22.6187 15.4022 22.8554 15.5938 22.8554C15.6004 22.8554 15.607 22.855 15.6135 22.8545C15.9172 22.8279 16.4895 22.0267 16.7303 19.208L17.2626 19.0254Z" fill="#EE6723"/>
</g>
<defs>
<clipPath id="clip0_21_548">
<rect width="26" height="26" fill="white"/>
</clipPath>
</defs>
</svg>
