<svg width="26" height="26" viewBox="0 0 26 26" fill="none" xmlns="http://www.w3.org/2000/svg">
<path d="M18.1257 1.18945H16.6258L18.1856 2.88209V3.68788H14.973V2.74437H16.5326L14.973 1.05173V0.245117H18.1257V1.18945ZM14.336 1.18945H12.8361L14.3959 2.88209V3.68788H11.1831V2.74437H12.7429L11.1831 1.05173V0.245117H14.336V1.18945ZM10.5835 1.22804H8.96495V2.70496H10.5835V3.68788H7.81445V0.245117H10.5835V1.22804Z" fill="white"/>
<path d="M5.60906 23.7059L3.96436 5.25952H22.0358L20.3897 23.7029L12.989 25.7548L5.60906 23.7059Z" fill="#1572B6"/>
<path d="M13 24.1865L18.9798 22.5286L20.3866 6.76794H13V24.1865Z" fill="#33A9DC"/>
<path d="M13 13.451H15.9937L16.2006 11.1344H13V8.87195H18.6731L18.6188 9.47889L18.0629 15.7132H13V13.451Z" fill="white"/>
<path d="M13.0138 19.3266L13.0038 19.3294L10.4843 18.649L10.323 16.8446H8.05225L8.36932 20.3969L13.0034 21.6832L13.014 21.6802L13.0138 19.3266Z" fill="#EBEBEB"/>
<path d="M15.8017 15.6174L15.5291 18.6472L13.0059 19.3283V21.6821L17.6438 20.3968L17.6779 20.0145L18.0716 15.6174H15.8017Z" fill="white"/>
<path d="M13.0077 8.87195V11.1342H7.54305L7.49755 10.6257L7.39457 9.47889L7.34033 8.87195H13.0077ZM12.9998 13.4512V15.7136H10.5121L10.4668 15.2052L10.3636 14.0581L10.3094 13.4512H12.9998Z" fill="#EBEBEB"/>
</svg>
