<svg width="26" height="26" viewBox="0 0 26 26" fill="none" xmlns="http://www.w3.org/2000/svg">
<g clip-path="url(#clip0_21_493)">
<path d="M24.8499 11.9031L14.0963 1.15013C13.4772 0.530686 12.4728 0.530686 11.8531 1.15013L9.62033 3.38345L12.4527 6.21584C13.111 5.99337 13.8658 6.14267 14.3904 6.66749C14.9182 7.19553 15.0661 7.95677 14.838 8.61749L17.5683 11.3475C18.229 11.1197 18.9908 11.2671 19.5183 11.7954C20.2554 12.5325 20.2554 13.7269 19.5183 14.4645C18.7806 15.2019 17.5862 15.2019 16.8483 14.4645C16.294 13.9097 16.1568 13.0949 16.438 12.4119L13.8916 9.86576V16.566C14.0712 16.655 14.2408 16.7735 14.3904 16.923C15.1275 17.6601 15.1275 18.8545 14.3904 19.5924C13.6533 20.3293 12.4581 20.3293 11.7215 19.5924C10.9844 18.8543 10.9844 17.6599 11.7215 16.923C11.9038 16.741 12.1147 16.6032 12.3399 16.511V9.74836C12.1147 9.65615 11.9043 9.51972 11.7215 9.33638C11.1632 8.77832 11.0289 7.95865 11.3152 7.273L8.52297 4.48027L1.14915 11.8533C0.52971 12.4733 0.52971 13.4776 1.14915 14.0971L11.9032 24.8503C12.5224 25.4698 13.5265 25.4698 14.1465 24.8503L24.8499 14.1469C25.4693 13.5275 25.4693 12.5226 24.8499 11.9031Z" fill="#F05133"/>
</g>
<defs>
<clipPath id="clip0_21_493">
<rect width="26" height="26" fill="white"/>
</clipPath>
</defs>
</svg>
