<svg width="26" height="26" viewBox="0 0 26 26" fill="none" xmlns="http://www.w3.org/2000/svg">
<g clip-path="url(#clip0_21_558)">
<path fill-rule="evenodd" clip-rule="evenodd" d="M9.72656 25.5836L13.5612 14.1143L16.9866 25.3753C15.728 25.7782 14.3905 25.9993 13 25.9993C11.8665 25.9993 10.7705 25.8516 9.72656 25.5836ZM0 12.9998C0 5.82366 5.82384 0.000976562 13 0.000976562C16.4318 0.000976562 19.5586 1.33325 21.8811 3.5129C21.7545 3.48229 21.6211 3.46225 21.4824 3.45847C19.2358 3.3825 17.7879 5.58369 19.3787 7.52258C19.8787 8.13032 20.8947 8.68893 21.2571 9.75966L18.6013 18.4676L16.1654 10.4638C15.8331 9.37037 15.6733 8.71954 15.6733 8.50902C15.6733 8.31173 15.7145 8.13825 15.804 7.98896C15.8917 7.83438 16.0119 7.72251 16.1654 7.6609C16.3865 7.56906 16.7478 7.51426 17.2531 7.50632V6.99419H10.0426V7.50632C10.4999 7.50632 10.8506 7.5838 11.0891 7.74103C11.3253 7.89976 11.5347 8.16244 11.7214 8.52754C11.9013 8.89302 12.1587 9.62095 12.5 10.7144L12.816 11.7518L10.5532 19.1608L7.85462 10.7144C7.49481 9.57445 7.31868 8.83179 7.31868 8.48105C7.31868 8.21157 7.4041 7.98896 7.5772 7.80641C7.74539 7.6265 8.09197 7.52521 8.61203 7.50632V6.99419H2.15587V7.50632C2.6268 7.56377 2.9575 7.75312 3.15479 8.07702C3.35473 8.39979 3.70131 9.3356 4.1987 10.8795L8.7908 25.3021C3.67864 23.553 0 18.705 0 12.9998ZM18.0653 24.9744L22.0039 11.8422C22.4677 10.677 23.8 7.40243 23.84 6.47455C23.84 6.21188 23.8158 5.95827 23.7705 5.71978C25.1746 7.79586 26 10.3024 26 12.9999C26 18.3758 22.7251 22.9943 18.0653 24.9744Z" fill="#3476B2"/>
</g>
<defs>
<clipPath id="clip0_21_558">
<rect width="26" height="26" fill="white"/>
</clipPath>
</defs>
</svg>
