<svg width="29" height="20" viewBox="0 0 29 20" fill="none" xmlns="http://www.w3.org/2000/svg">
<g clip-path="url(#clip0_21_488)">
<path d="M25.9624 11.4771C24.9485 11.4823 24.0706 11.7062 23.3343 12.0396C23.0624 11.5448 22.7905 11.1125 22.7452 10.7896C22.6942 10.4146 22.6319 10.1854 22.6942 9.73747C22.7566 9.28955 23.0398 8.65413 23.0398 8.60205C23.0341 8.55518 22.9775 8.32601 22.3941 8.3208C21.8107 8.31559 21.3066 8.42497 21.2499 8.56559C21.1933 8.70622 21.08 9.02913 21.0064 9.36247C20.9044 9.85205 19.8396 11.5864 19.2335 12.4979C19.0353 12.1437 18.8653 11.8312 18.8314 11.5812C18.7804 11.2062 18.7181 10.9771 18.7804 10.5291C18.8427 10.0812 19.1259 9.4458 19.1259 9.39372C19.1202 9.34684 19.0636 9.11768 18.4802 9.11247C17.8968 9.10726 17.3927 9.21663 17.336 9.35726C17.2794 9.49788 17.2171 9.83122 17.0925 10.1541C16.9735 10.4771 15.5575 13.3729 15.1894 14.1281C15.0024 14.5135 14.8382 14.8208 14.7192 15.0291C14.6003 15.2375 14.7136 15.0448 14.7023 15.0656C14.6003 15.2427 14.5437 15.3416 14.5437 15.3416V15.3468C14.4644 15.4771 14.3794 15.6021 14.3398 15.6021C14.3114 15.6021 14.2548 15.2531 14.3511 14.7739C14.5607 13.7687 15.0704 12.201 15.0648 12.1437C15.0648 12.1177 15.161 11.8416 14.7362 11.701C14.3228 11.5604 14.1755 11.7948 14.1415 11.7948C14.1075 11.7948 14.0792 11.8781 14.0792 11.8781C14.0792 11.8781 14.538 10.1125 13.2013 10.1125C12.363 10.1125 11.2075 10.951 10.6355 11.7166C10.273 11.8989 9.50265 12.2843 8.68702 12.6958C8.3755 12.8521 8.05265 13.0187 7.74679 13.1698L7.68448 13.1073C6.06456 11.5187 3.06827 10.3937 3.19288 8.2583C3.23819 7.48226 3.53272 5.43539 8.94757 2.95622C13.3825 0.924968 16.9339 1.48226 17.5513 2.72184C18.4292 4.49268 15.6538 7.78434 11.0433 8.2583C9.28741 8.44059 8.36417 7.81559 8.13194 7.58122C7.88839 7.33643 7.8544 7.32601 7.76378 7.37289C7.61651 7.4458 7.70714 7.66455 7.76378 7.79476C7.89972 8.12288 8.46612 8.70622 9.42901 8.99788C10.273 9.25309 12.3347 9.39372 14.8269 8.5083C17.6192 7.51351 19.7999 4.75309 19.1599 2.4458C18.5085 0.0968434 14.2718 -0.67399 10.2673 0.633302C7.88272 1.41455 5.29991 2.6333 3.4421 4.23226C1.23311 6.12809 0.881942 7.78434 1.02921 8.47184C1.54464 10.925 5.22061 12.5239 6.69327 13.7062C6.61964 13.7427 6.55167 13.7791 6.48936 13.8104C5.75304 14.1437 2.94932 15.4927 2.24698 16.9198C1.45401 18.5343 2.37159 19.6958 2.98331 19.8521C4.87511 20.3364 6.81222 19.4666 7.86007 18.0343C8.90225 16.6021 8.77765 14.7427 8.2962 13.8937L8.27921 13.8625L8.85694 13.55C9.23077 13.3468 9.59893 13.1593 9.92179 12.9979C9.74054 13.451 9.61026 13.9875 9.54229 14.7687C9.463 15.6854 9.87081 16.8729 10.4089 17.3416C10.6468 17.5448 10.93 17.55 11.1056 17.55C11.7286 17.55 12.0118 17.076 12.3233 16.5083C12.7085 15.8156 13.0483 15.0135 13.0483 15.0135C13.0483 15.0135 12.6235 17.1854 13.7847 17.1854C14.2095 17.1854 14.6343 16.6802 14.8269 16.4198V16.425C14.8269 16.425 14.8382 16.4093 14.8608 16.3729C14.9062 16.3104 14.9288 16.2739 14.9288 16.2739V16.2635C15.0987 15.9927 15.4782 15.3729 16.0446 14.3468C16.7753 13.0239 17.4776 11.3677 17.4776 11.3677C17.4776 11.3677 17.5456 11.7739 17.7552 12.4406C17.8798 12.8364 18.1517 13.2687 18.3612 13.6906C18.1913 13.9093 18.0894 14.0343 18.0894 14.0343L18.095 14.0396C17.9591 14.2062 17.8062 14.3833 17.6476 14.5604C17.0698 15.1958 16.3788 15.9198 16.2882 16.1281C16.1806 16.3729 16.2032 16.5552 16.4128 16.701C16.5657 16.8052 16.8376 16.826 17.1265 16.8052C17.6476 16.7739 18.0101 16.6541 18.1913 16.5812C18.4745 16.4875 18.7974 16.3468 19.1089 16.1385C19.6753 15.7531 20.0208 15.2062 19.9868 14.4771C19.9698 14.076 19.8282 13.6802 19.6526 13.3052C19.7036 13.2375 19.7546 13.1698 19.8056 13.0968C20.7005 11.8937 21.3915 10.5708 21.3915 10.5708C21.3915 10.5708 21.4595 10.9771 21.6691 11.6437C21.7767 11.9823 21.9919 12.3521 22.1845 12.7166C21.3462 13.3468 20.8194 14.076 20.6382 14.5552C20.304 15.4406 20.5646 15.8416 21.0573 15.9354C21.2782 15.9771 21.5954 15.8833 21.8333 15.7896C22.1278 15.701 22.4847 15.55 22.8132 15.326C23.3796 14.9406 23.9233 14.4041 23.895 13.6802C23.878 13.3468 23.7817 13.0187 23.6515 12.7062C24.3651 12.4354 25.2884 12.2791 26.4608 12.4093C28.9814 12.6802 29.4798 14.1281 29.3835 14.7323C29.2872 15.3364 28.7605 15.6698 28.5849 15.7739C28.4093 15.8729 28.3526 15.9093 28.3696 15.9823C28.3923 16.0916 28.4716 16.0864 28.6245 16.0656C28.8341 16.0343 29.9499 15.5708 29.9952 14.4562C30.0632 13.0239 28.5849 11.4614 25.9624 11.4771ZM6.52335 17.5031C5.69073 18.3416 4.51827 18.6593 4.01983 18.3885C3.48175 18.1021 3.69132 16.8677 4.71651 15.9771C5.33956 15.4354 6.14952 14.9354 6.68194 14.6281C6.80089 14.5604 6.98214 14.4614 7.19737 14.3416C7.23136 14.3208 7.25401 14.3104 7.25401 14.3104C7.29366 14.2896 7.33897 14.2635 7.38429 14.2375C7.76378 15.5083 7.40128 16.6229 6.52335 17.5031ZM12.6122 13.6958C12.3233 14.3468 11.7116 16.0187 11.3435 15.925C11.0263 15.8468 10.8337 14.5812 11.2812 13.3312C11.5077 12.701 11.9892 11.951 12.2724 11.6593C12.7312 11.1906 13.2296 11.0343 13.3542 11.2271C13.5015 11.4771 12.7935 13.2896 12.6122 13.6958ZM17.6362 15.9041C17.5116 15.9614 17.3983 16.0031 17.3474 15.9718C17.3077 15.951 17.3983 15.8729 17.3983 15.8729C17.3983 15.8729 18.0271 15.2531 18.2763 14.9666C18.4179 14.8 18.5878 14.6073 18.7691 14.3885V14.451C18.7691 15.201 17.9874 15.701 17.6362 15.9041ZM21.5105 15.0916C21.4198 15.0291 21.4312 14.8364 21.737 14.2323C21.856 13.9927 22.1278 13.5916 22.598 13.2114C22.6546 13.3677 22.6886 13.5187 22.6829 13.6593C22.6773 14.5968 21.9523 14.9458 21.5105 15.0916Z" fill="#CF649A"/>
</g>
<defs>
<clipPath id="clip0_21_488">
<rect width="29" height="20" fill="white"/>
</clipPath>
</defs>
</svg>
