<svg width="21" height="28" viewBox="0 0 21 28" fill="none" xmlns="http://www.w3.org/2000/svg">
<path d="M5 27C7.76 27 10 24.984 10 22.5V18H5C2.24 18 0 20.016 0 22.5C0 24.984 2.24 27 5 27Z" fill="#0ACF83"/>
<path d="M0 13.5C0 11.016 2.24 9 5 9H10V18H5C2.24 18 0 15.984 0 13.5Z" fill="#A259FF"/>
<path d="M0 4.5C0 2.016 2.24 0 5 0H10V9H5C2.24 9 0 6.984 0 4.5Z" fill="#F24E1E"/>
<path d="M10 0H15C17.76 0 20 2.016 20 4.5C20 6.984 17.76 9 15 9H10V0Z" fill="#FF7262"/>
<path d="M20 13.5C20 15.984 17.76 18 15 18C12.24 18 10 15.984 10 13.5C10 11.016 12.24 9 15 9C17.76 9 20 11.016 20 13.5Z" fill="#1ABCFE"/>
</svg>
