<svg width="26" height="26" viewBox="0 0 26 26" fill="none" xmlns="http://www.w3.org/2000/svg">
<g clip-path="url(#clip0_21_574)">
<path fill-rule="evenodd" clip-rule="evenodd" d="M0.194824 13C0.194824 5.8203 5.92798 0 13.0002 0C20.0724 0 25.8056 5.8203 25.8056 13C25.8056 20.1797 20.0724 26 13.0002 26C5.92798 26 0.194824 20.1797 0.194824 13Z" fill="#0868AC"/>
<path fill-rule="evenodd" clip-rule="evenodd" d="M11.6021 7.7004C11.0576 8.63874 10.9898 9.79504 11.3041 10.8251C11.604 11.8183 12.2348 12.6942 13.0306 13.3352C13.0475 13.349 13.0648 13.3626 13.082 13.3764C13.1568 13.4346 13.2325 13.4921 13.3105 13.5469C13.3466 13.572 13.3834 13.5967 13.4202 13.621C13.4375 13.6325 13.4541 13.6447 13.4713 13.6559C13.5272 13.6921 13.5835 13.7272 13.6408 13.7614C13.6519 13.7682 13.6633 13.7743 13.6742 13.7807C13.7203 13.8081 13.7671 13.8352 13.8142 13.8612C13.8354 13.8724 13.8568 13.8835 13.878 13.8947C13.9147 13.914 13.9513 13.9336 13.9886 13.9522C14.0611 13.9887 14.1345 14.0236 14.2091 14.0567C14.225 14.0642 14.2415 14.0706 14.2577 14.0777C14.3172 14.1034 14.3773 14.1281 14.4379 14.1518C14.4628 14.1616 14.4882 14.1711 14.5135 14.1805C14.5689 14.2012 14.6248 14.2208 14.681 14.2394C14.705 14.2475 14.7288 14.2556 14.753 14.2631C14.8321 14.2885 14.9116 14.3121 14.9924 14.3338C16.8104 14.8152 18.5141 14.1985 19.3938 12.9059C19.3938 12.9059 18.4179 16.2262 14.1906 15.5117C14.1085 15.4978 14.0308 15.4664 13.952 15.4413C13.927 15.4336 13.9024 15.4251 13.8774 15.417C13.822 15.398 13.7671 15.3791 13.7124 15.3585C13.6869 15.349 13.661 15.3395 13.6355 15.3297C13.5751 15.306 13.5151 15.281 13.4558 15.2553C13.4397 15.2485 13.4233 15.2421 13.4074 15.235C13.3331 15.2018 13.2603 15.167 13.1882 15.1308C13.1368 15.1054 13.1019 15.0865 13.0671 15.0679C13.0492 15.0584 13.0313 15.0496 13.0137 15.0394C12.9633 15.0117 12.9131 14.9829 12.8635 14.9539C12.8556 14.9491 12.8476 14.9447 12.8395 14.9397C12.7819 14.9055 12.7254 14.87 12.6695 14.8334C12.6526 14.8229 12.6367 14.8111 12.62 14.7999C12.585 14.7766 12.5498 14.7539 12.5153 14.7296C12.4304 14.6697 12.3542 14.6122 12.2794 14.5537C12.2626 14.5405 12.2462 14.5269 12.2297 14.5141C12.155 14.4539 12.0816 14.3927 12.0105 14.3291C11.9367 14.2627 11.8745 14.2032 11.8133 14.1426C11.7971 14.1264 11.7808 14.1105 11.7649 14.0939C11.7019 14.0303 11.6402 13.9657 11.5812 13.8994C11.4184 13.7553 11.2824 13.5418 11.1597 13.3625C11.0251 13.1656 10.9047 12.959 10.7976 12.7458C10.159 11.4747 10.1145 9.86572 10.9333 8.66379M8.30259 8.91895C7.30576 10.8847 7.75381 13.2784 9.00101 15.0139C9.0461 15.0771 9.09215 15.1393 9.13928 15.2016C9.15381 15.2205 9.16848 15.2392 9.18315 15.2575C9.22228 15.3082 9.2624 15.3586 9.30286 15.4083C9.31745 15.4259 9.33171 15.4432 9.34647 15.4611C9.40069 15.5264 9.45607 15.591 9.51277 15.6543C9.57445 15.7229 9.62916 15.7818 9.68487 15.84C9.70211 15.8579 9.71969 15.8755 9.73726 15.8934C9.78104 15.9388 9.82564 15.9831 9.8709 16.0271C9.88831 16.0443 9.90556 16.0612 9.9233 16.0785C9.98447 16.1367 10.0463 16.1945 10.1093 16.251C10.1869 16.3193 10.2459 16.3697 10.3056 16.4198C10.3265 16.4371 10.3477 16.4543 10.369 16.4716C10.416 16.5101 10.4634 16.5476 10.511 16.5849C10.534 16.6028 10.5572 16.6208 10.5809 16.6387C10.6329 16.6779 10.6853 16.7165 10.7383 16.7548C10.7562 16.7673 10.7737 16.7807 10.7919 16.7933C10.8468 16.8318 10.9025 16.8694 10.9585 16.9062C10.9795 16.9205 11.0003 16.9353 11.0216 16.9492C11.0988 16.9989 11.1767 17.048 11.2556 17.0954C11.2759 17.1073 11.2963 17.1184 11.3164 17.1299C11.3757 17.1651 11.4353 17.1996 11.4961 17.2327C11.5291 17.2514 11.5629 17.2683 11.5962 17.2862C11.6459 17.3122 11.6957 17.339 11.7461 17.364C11.765 17.3735 11.7836 17.3823 11.8022 17.3914C11.8663 17.4229 11.9308 17.4533 11.996 17.4835C12.0114 17.4902 12.0263 17.4973 12.0419 17.5041C12.1177 17.5379 12.1944 17.5704 12.2717 17.6015C12.2916 17.6096 12.3115 17.6174 12.3314 17.6255C12.4019 17.6533 12.4727 17.6803 12.5443 17.706C12.6574 17.7463 12.7378 17.773 12.8189 17.7984C12.8396 17.8048 12.8603 17.8112 12.8814 17.8177C12.9644 17.8427 13.047 17.8698 13.1321 17.8894C15.3785 18.4107 17.7495 17.9425 19.0852 16.1672C19.0852 16.1672 17.4948 20.5423 12.0196 19.5237C11.9334 19.5075 11.8509 19.4767 11.7673 19.451C11.7476 19.4453 11.7278 19.4388 11.7083 19.4331C11.6262 19.407 11.5446 19.3803 11.4639 19.3515C11.3627 19.3154 11.2894 19.2873 11.2172 19.2589C11.1983 19.2514 11.1794 19.244 11.1606 19.2362C11.0825 19.2047 11.0051 19.1719 10.9283 19.1378C10.9142 19.1313 10.9005 19.1249 10.8862 19.1185C10.8192 19.088 10.7529 19.0566 10.6871 19.0244C10.67 19.0156 10.6528 19.0075 10.6357 18.9991C10.5642 18.9632 10.5228 18.9405 10.481 18.9182C10.4487 18.9013 10.4158 18.8847 10.3838 18.8671C10.3246 18.8343 10.2663 18.8008 10.2082 18.7667C10.1867 18.7542 10.165 18.742 10.1436 18.7295C10.0647 18.6821 9.98657 18.633 9.90964 18.5833C9.88792 18.5691 9.86653 18.5539 9.84497 18.5393C9.79489 18.5062 9.74466 18.473 9.69558 18.4385C9.66126 18.4142 9.64302 18.4006 9.62412 18.3868C9.57239 18.3499 9.52116 18.3123 9.47026 18.2741C9.44572 18.2552 9.42135 18.2362 9.39697 18.2173C9.35088 18.1814 9.30512 18.1449 9.25986 18.108C9.23714 18.0894 9.21426 18.0711 9.19171 18.0525C9.13634 18.0059 9.08129 17.9585 9.02724 17.9108C9.01696 17.9017 9.00618 17.8929 8.99573 17.8834C8.93157 17.8262 8.87138 17.7701 8.81186 17.7129C8.79379 17.696 8.77588 17.678 8.75781 17.6605C8.71321 17.6168 8.6691 17.5728 8.62566 17.5282C8.60776 17.5103 8.59001 17.492 8.57261 17.4737C8.51656 17.4149 8.46118 17.356 8.40713 17.2958C8.34215 17.2231 8.28793 17.1595 8.23471 17.0955C8.21979 17.0776 8.20486 17.0593 8.19011 17.0411C8.15048 16.9924 8.11152 16.9436 8.07322 16.8946C8.0573 16.874 8.04139 16.8533 8.02563 16.8327C7.98269 16.7762 7.94024 16.719 7.89912 16.6612C7.8915 16.6504 7.88321 16.6399 7.87574 16.629C7.82419 16.5563 7.7781 16.488 7.733 16.4193C7.71907 16.3983 7.70581 16.3767 7.69221 16.355C7.65955 16.3043 7.62755 16.2536 7.59638 16.2021C7.58029 16.1757 7.56487 16.1494 7.54929 16.123C7.5211 16.0749 7.49358 16.0269 7.46672 15.9785C7.45146 15.9511 7.43637 15.9244 7.42162 15.8963C7.41333 15.8814 7.40438 15.8662 7.39642 15.8507C7.38232 15.8246 7.36956 15.7975 7.35596 15.7712C7.33474 15.7295 7.31319 15.6879 7.29263 15.6457C6.42779 13.8819 6.28686 11.7223 7.41897 10.0623M14.2502 7.11084C13.5825 8.34141 14.2182 9.85243 15.2415 10.6444C15.4209 10.7827 15.6145 10.9036 15.8175 11.003C15.9244 11.0554 16.0345 11.1017 16.1461 11.1423C16.2332 11.1738 16.3325 11.207 16.4228 11.2295C17.5663 11.5126 18.4983 11.3171 19.0529 10.5025C18.8844 10.75 18.2513 12.432 15.9171 11.9719C15.8657 11.9621 15.8163 11.9435 15.7666 11.9276C15.751 11.9229 15.7357 11.9175 15.7203 11.9127C15.685 11.9006 15.6502 11.8887 15.6153 11.8755C14.7707 11.5596 14.047 10.8932 13.6938 10.0437C13.3589 9.2434 13.4063 8.34351 13.889 7.6189" fill="white"/>
<path fill-rule="evenodd" clip-rule="evenodd" d="M25.8055 13C25.8055 20.1797 20.0724 26 13.0002 26C10.3773 26 7.93853 25.1994 5.9082 23.8259L20.581 2.52173C23.7495 4.88827 25.8055 8.70036 25.8055 13Z" fill="black" fill-opacity="0.08"/>
</g>
<defs>
<clipPath id="clip0_21_574">
<rect width="26" height="26" fill="white"/>
</clipPath>
</defs>
</svg>
