<svg width="24" height="25" viewBox="0 0 24 25" fill="none" xmlns="http://www.w3.org/2000/svg">
<g clip-path="url(#clip0_3581_16668)">
<path fill-rule="evenodd" clip-rule="evenodd" d="M20.4996 3.50494C18.2736 1.26413 15.2414 0 12.0819 0H12.0456C5.45988 4.71513e-05 0.100008 5.36091 0.100008 11.9508L0.100055 11.9515C0.100449 14.0483 0.652385 16.1081 1.70046 17.9242L0 24.1185L6.33586 22.4556C8.08704 23.4099 10.0493 23.9108 12.0436 23.9125H12.0438H12.0463C18.647 23.9125 24 18.5595 24 11.9588C24 8.78905 22.7391 5.74769 20.4989 3.50754L20.4996 3.50494ZM12.0497 21.8996C10.2696 21.8996 8.51995 21.4177 6.99074 20.5096L6.62674 20.2926L2.86684 21.2775L3.86678 17.6127L3.63178 17.2366C2.63467 15.6521 2.10337 13.8142 2.10337 11.9412C2.10337 6.45411 6.55313 2.00435 12.0401 2.00435C14.6811 2.00435 17.2153 3.05616 19.0787 4.92679C20.9426 6.7916 21.9898 9.32021 21.99 11.9568C21.99 17.4471 17.5388 21.8996 12.0484 21.8996H12.0497ZM17.4996 14.4537C17.1996 14.3027 15.7327 13.5827 15.4607 13.4827C15.1887 13.3827 14.9887 13.3317 14.7857 13.6337C14.5827 13.9357 14.0137 14.6047 13.8397 14.8057C13.6657 15.0067 13.4907 15.0327 13.1947 14.8817C12.8987 14.7307 11.9317 14.4157 10.7948 13.3978C10.1398 12.7938 9.57727 12.0969 9.12509 11.3294C8.95007 11.0293 9.10604 10.8684 9.25806 10.7224C9.41008 10.5764 9.55808 10.3744 9.70505 10.1994C9.8293 10.0487 9.93033 9.88028 10.0048 9.69972C10.0445 9.61742 10.0631 9.52653 10.0589 9.43524C10.0547 9.34396 10.0279 9.25514 9.98084 9.17682C9.89984 9.02688 9.29979 7.55684 9.05979 6.95788C8.81979 6.35892 8.57083 6.45793 8.38685 6.44388C8.20286 6.42988 8.01383 6.43492 7.81683 6.43492C7.66497 6.43848 7.5155 6.47346 7.37783 6.53766C7.24017 6.60186 7.11729 6.69389 7.01696 6.80794C6.74787 7.1049 5.97492 7.82985 5.97492 9.29983C5.97492 10.7698 7.04388 12.1878 7.19387 12.3898C7.34391 12.5917 9.29979 15.6067 12.2998 16.8997C13.0117 17.2057 13.5677 17.3897 13.9997 17.5317C14.3854 17.6478 14.7859 17.7069 15.1887 17.707C15.42 17.707 15.6517 17.6874 15.8795 17.6487C16.4535 17.5647 17.6454 16.9277 17.8964 16.2307C18.1474 15.5337 18.1465 14.9307 18.0714 14.8118C17.9964 14.6928 17.8024 14.6058 17.5014 14.4527L17.4996 14.4537Z" fill="white"/>
</g>
<defs>
<clipPath id="clip0_3581_16668">
<rect width="24" height="24.1185" fill="white"/>
</clipPath>
</defs>
</svg>
